G75*
%MOIN*%
%OFA0B0*%
%FSLAX24Y24*%
%IPPOS*%
%LPD*%
%AMOC8*
5,1,8,0,0,1.08239X$1,22.5*
%
%ADD10C,0.0160*%
%ADD11C,0.0030*%
%ADD12C,0.0040*%
%ADD13C,0.0060*%
%ADD14C,0.0080*%
%ADD15C,0.0000*%
%ADD16C,0.0050*%
%ADD17C,0.0120*%
%ADD18C,0.0100*%
%ADD19C,0.0020*%
%ADD20R,0.0240X0.0340*%
%ADD21R,0.0650X0.0400*%
%ADD22R,0.0400X0.0650*%
%ADD23R,1.6000X0.0300*%
%ADD24R,0.0320X0.2850*%
%ADD25R,0.0320X0.1850*%
D10*
X000180Y000767D02*
X000180Y040137D01*
X039550Y040137D01*
X039550Y000767D01*
X000180Y000767D01*
D11*
X003445Y001532D02*
X003692Y001532D01*
X003568Y001532D02*
X003568Y001902D01*
X003445Y001779D01*
X003813Y001717D02*
X003937Y001779D01*
X003998Y001779D01*
X004060Y001717D01*
X004060Y001593D01*
X003998Y001532D01*
X003875Y001532D01*
X003813Y001593D01*
X003813Y001717D02*
X003813Y001902D01*
X004060Y001902D01*
X004182Y001717D02*
X004367Y001717D01*
X004429Y001655D01*
X004429Y001593D01*
X004367Y001532D01*
X004243Y001532D01*
X004182Y001593D01*
X004182Y001717D01*
X004305Y001840D01*
X004429Y001902D01*
X004550Y001717D02*
X004797Y001717D01*
X004918Y001840D02*
X004980Y001902D01*
X005103Y001902D01*
X005165Y001840D01*
X004918Y001593D01*
X004980Y001532D01*
X005103Y001532D01*
X005165Y001593D01*
X005165Y001840D01*
X005287Y001779D02*
X005410Y001902D01*
X005410Y001532D01*
X005287Y001532D02*
X005533Y001532D01*
X005655Y001532D02*
X005655Y001779D01*
X005778Y001902D01*
X005902Y001779D01*
X005902Y001532D01*
X005902Y001717D02*
X005655Y001717D01*
X004918Y001593D02*
X004918Y001840D01*
X006392Y001902D02*
X006392Y001532D01*
X006638Y001532D01*
X006760Y001593D02*
X006760Y001840D01*
X006822Y001902D01*
X006945Y001902D01*
X007007Y001840D01*
X007128Y001902D02*
X007375Y001532D01*
X007375Y001902D01*
X007496Y001840D02*
X007496Y001593D01*
X007558Y001532D01*
X007682Y001532D01*
X007743Y001593D01*
X007743Y001840D02*
X007682Y001902D01*
X007558Y001902D01*
X007496Y001840D01*
X007128Y001902D02*
X007128Y001532D01*
X007007Y001593D02*
X006945Y001532D01*
X006822Y001532D01*
X006760Y001593D01*
X008233Y001593D02*
X008295Y001532D01*
X008418Y001532D01*
X008480Y001593D01*
X008601Y001593D02*
X008663Y001532D01*
X008787Y001532D01*
X008848Y001593D01*
X008848Y001717D01*
X008787Y001779D01*
X008663Y001779D01*
X008601Y001717D01*
X008601Y001593D01*
X008480Y001840D02*
X008418Y001902D01*
X008295Y001902D01*
X008233Y001840D01*
X008233Y001593D01*
X008970Y001532D02*
X008970Y001779D01*
X009031Y001779D01*
X009093Y001717D01*
X009155Y001779D01*
X009217Y001717D01*
X009217Y001532D01*
X009338Y001532D02*
X009523Y001532D01*
X009585Y001593D01*
X009585Y001717D01*
X009523Y001779D01*
X009338Y001779D01*
X009338Y001902D02*
X009338Y001532D01*
X009093Y001532D02*
X009093Y001717D01*
X009706Y001717D02*
X009706Y001593D01*
X009768Y001532D01*
X009892Y001532D01*
X009953Y001593D01*
X009953Y001717D01*
X009892Y001779D01*
X009768Y001779D01*
X009706Y001717D01*
X010443Y001779D02*
X010628Y001779D01*
X010690Y001717D01*
X010690Y001593D01*
X010628Y001532D01*
X010443Y001532D01*
X010443Y001902D01*
X010811Y001717D02*
X010811Y001593D01*
X010873Y001532D01*
X010996Y001532D01*
X011058Y001593D01*
X011058Y001717D01*
X010996Y001779D01*
X010873Y001779D01*
X010811Y001717D01*
X011180Y001593D02*
X011241Y001655D01*
X011426Y001655D01*
X011426Y001717D02*
X011426Y001532D01*
X011241Y001532D01*
X011180Y001593D01*
X011241Y001779D02*
X011365Y001779D01*
X011426Y001717D01*
X011548Y001779D02*
X011548Y001532D01*
X011548Y001655D02*
X011671Y001779D01*
X011733Y001779D01*
X011855Y001717D02*
X011917Y001779D01*
X012102Y001779D01*
X012102Y001902D02*
X012102Y001532D01*
X011917Y001532D01*
X011855Y001593D01*
X011855Y001717D01*
X001165Y027782D02*
X001165Y028029D01*
X001165Y028150D02*
X001165Y028273D01*
X001165Y028212D02*
X000918Y028212D01*
X000918Y028150D01*
X000795Y028212D02*
X000733Y028212D01*
X000918Y028457D02*
X000980Y028396D01*
X001103Y028396D01*
X001165Y028457D01*
X001165Y028642D01*
X001103Y028764D02*
X000980Y028764D01*
X000918Y028826D01*
X000918Y028949D01*
X000980Y029011D01*
X001042Y029011D01*
X001042Y028764D01*
X001103Y028764D02*
X001165Y028826D01*
X001165Y028949D01*
X001165Y029132D02*
X000918Y029132D01*
X000918Y029317D01*
X000980Y029379D01*
X001165Y029379D01*
X001165Y029500D02*
X001165Y029686D01*
X001103Y029747D01*
X001042Y029686D01*
X001042Y029562D01*
X000980Y029500D01*
X000918Y029562D01*
X000918Y029747D01*
X000980Y029869D02*
X000918Y029930D01*
X000918Y030054D01*
X000980Y030116D01*
X001042Y030116D01*
X001042Y029869D01*
X001103Y029869D02*
X000980Y029869D01*
X001103Y029869D02*
X001165Y029930D01*
X001165Y030054D01*
X001165Y030237D02*
X001103Y030237D01*
X001103Y030299D01*
X001165Y030299D01*
X001165Y030237D01*
X000980Y030237D02*
X000918Y030237D01*
X000918Y030299D01*
X000980Y030299D01*
X000980Y030237D01*
X001103Y030790D02*
X001165Y030851D01*
X001165Y030975D01*
X001103Y031036D01*
X001165Y031158D02*
X001165Y031405D01*
X001165Y031526D02*
X000795Y031526D01*
X000795Y031711D01*
X000856Y031773D01*
X000980Y031773D01*
X001042Y031711D01*
X001042Y031526D01*
X001042Y031650D02*
X001165Y031773D01*
X001165Y031895D02*
X000795Y031895D01*
X001165Y032141D01*
X000795Y032141D01*
X000980Y032263D02*
X000980Y032510D01*
X001103Y032631D02*
X001165Y032693D01*
X001165Y032816D01*
X001103Y032878D01*
X000856Y032878D01*
X000795Y032816D01*
X000795Y032693D01*
X000856Y032631D01*
X001103Y032631D01*
X001165Y032999D02*
X000795Y032999D01*
X000980Y032999D02*
X000980Y033246D01*
X000795Y033246D02*
X001165Y033246D01*
X001165Y033368D02*
X001165Y033615D01*
X000980Y033736D02*
X000980Y033983D01*
X001042Y034104D02*
X001042Y034290D01*
X000980Y034351D01*
X000856Y034351D01*
X000795Y034290D01*
X000795Y034104D01*
X001165Y034104D01*
X001165Y033368D02*
X000795Y033368D01*
X000795Y034841D02*
X001042Y034841D01*
X001165Y034964D01*
X001042Y035088D01*
X000795Y035088D01*
X000856Y035209D02*
X000795Y035271D01*
X000795Y035394D01*
X000856Y035456D01*
X000918Y035456D01*
X001165Y035209D01*
X001165Y035456D01*
X003795Y034539D02*
X004165Y034539D01*
X004165Y034417D02*
X004165Y034232D01*
X004103Y034170D01*
X003980Y034170D01*
X003918Y034232D01*
X003918Y034417D01*
X003980Y034539D02*
X003918Y034600D01*
X003918Y034724D01*
X003980Y034785D01*
X004165Y034785D01*
X004165Y034048D02*
X004165Y033986D01*
X004103Y033986D01*
X004103Y034048D01*
X004165Y034048D01*
X004165Y033865D02*
X003980Y033865D01*
X003918Y033803D01*
X003918Y033618D01*
X004165Y033618D01*
X004103Y033496D02*
X003980Y033496D01*
X003918Y033435D01*
X003918Y033311D01*
X003980Y033249D01*
X004103Y033249D01*
X004165Y033311D01*
X004165Y033435D01*
X004103Y033496D01*
X004165Y033128D02*
X004165Y032943D01*
X004103Y032881D01*
X003980Y032881D01*
X003918Y032943D01*
X003918Y033128D01*
X003918Y032697D02*
X004165Y032697D01*
X004165Y032636D02*
X004165Y032759D01*
X004165Y032513D02*
X004165Y032390D01*
X004165Y032452D02*
X003795Y032452D01*
X003795Y032390D01*
X003795Y032206D02*
X003733Y032206D01*
X003918Y032206D02*
X004165Y032206D01*
X004165Y032145D02*
X004165Y032268D01*
X004103Y032023D02*
X004042Y031961D01*
X004042Y031838D01*
X003980Y031776D01*
X003918Y031838D01*
X003918Y032023D01*
X003918Y032145D02*
X003918Y032206D01*
X004103Y032023D02*
X004165Y031961D01*
X004165Y031776D01*
X004165Y031654D02*
X004165Y031531D01*
X004165Y031592D02*
X003795Y031592D01*
X003795Y031531D01*
X003918Y031347D02*
X003980Y031409D01*
X004165Y031409D01*
X004165Y031224D01*
X004103Y031162D01*
X004042Y031224D01*
X004042Y031409D01*
X003918Y031347D02*
X003918Y031224D01*
X003918Y031041D02*
X004165Y031041D01*
X004165Y030856D01*
X004103Y030794D01*
X003918Y030794D01*
X003918Y030672D02*
X003918Y030548D01*
X003856Y030610D02*
X004103Y030610D01*
X004165Y030672D01*
X003918Y030427D02*
X003918Y030365D01*
X004042Y030242D01*
X004165Y030242D02*
X003918Y030242D01*
X003918Y030058D02*
X004165Y030058D01*
X004165Y030119D02*
X004165Y029996D01*
X004165Y029751D02*
X003918Y029628D01*
X003856Y029506D02*
X003980Y029506D01*
X004042Y029445D01*
X003918Y029445D01*
X003918Y029321D01*
X004042Y029321D01*
X004042Y029445D01*
X004103Y029506D02*
X004165Y029445D01*
X004165Y029321D01*
X004103Y029259D01*
X003856Y029259D01*
X003795Y029321D01*
X003795Y029445D01*
X003856Y029506D01*
X003918Y029875D02*
X004165Y029751D01*
X003918Y029996D02*
X003918Y030058D01*
X003795Y030058D02*
X003733Y030058D01*
X003980Y029138D02*
X003918Y029076D01*
X003918Y028953D01*
X003980Y028891D01*
X004103Y028891D01*
X004165Y028953D01*
X004165Y029076D01*
X004103Y029138D01*
X003980Y029138D01*
X003980Y028769D02*
X003980Y028646D01*
X003980Y028524D02*
X003918Y028462D01*
X003918Y028277D01*
X004165Y028277D01*
X004165Y028155D02*
X004165Y028032D01*
X004165Y028093D02*
X003918Y028093D01*
X003918Y028032D01*
X003795Y028093D02*
X003733Y028093D01*
X003980Y028524D02*
X004165Y028524D01*
X004165Y028707D02*
X003856Y028707D01*
X003795Y028769D01*
X001165Y027782D02*
X000795Y027782D01*
X000918Y028457D02*
X000918Y028642D01*
X000856Y030790D02*
X001103Y030790D01*
X000856Y030790D02*
X000795Y030851D01*
X000795Y030975D01*
X000856Y031036D01*
X000795Y031158D02*
X001165Y031158D01*
X000980Y031158D02*
X000980Y031281D01*
X000795Y031405D02*
X000795Y031158D01*
X003733Y032697D02*
X003795Y032697D01*
X003918Y032697D02*
X003918Y032636D01*
X005195Y038181D02*
X005380Y038181D01*
X005318Y038305D01*
X005318Y038366D01*
X005380Y038428D01*
X005503Y038428D01*
X005565Y038366D01*
X005565Y038243D01*
X005503Y038181D01*
X005195Y038181D02*
X005195Y038428D01*
X005195Y038549D02*
X005442Y038549D01*
X005565Y038673D01*
X005442Y038796D01*
X005195Y038796D01*
X006093Y038611D02*
X006155Y038611D01*
X006278Y038611D02*
X006525Y038611D01*
X006525Y038549D02*
X006525Y038673D01*
X006525Y038795D02*
X006278Y038795D01*
X006278Y038918D02*
X006278Y038980D01*
X006278Y038918D02*
X006402Y038795D01*
X006278Y038611D02*
X006278Y038549D01*
X006216Y038428D02*
X006155Y038366D01*
X006155Y038181D01*
X006525Y038181D01*
X006525Y038366D01*
X006463Y038428D01*
X006216Y038428D01*
X007115Y038366D02*
X007115Y038243D01*
X007176Y038181D01*
X007238Y038181D01*
X007300Y038243D01*
X007300Y038366D01*
X007362Y038428D01*
X007423Y038428D01*
X007485Y038366D01*
X007485Y038243D01*
X007423Y038181D01*
X007176Y038428D02*
X007115Y038366D01*
X007238Y038549D02*
X007238Y038673D01*
X007176Y038611D02*
X007423Y038611D01*
X007485Y038673D01*
X007423Y038795D02*
X007300Y038795D01*
X007238Y038857D01*
X007238Y038980D01*
X007300Y039042D01*
X007362Y039042D01*
X007362Y038795D01*
X007423Y038795D02*
X007485Y038857D01*
X007485Y038980D01*
X007485Y039163D02*
X007485Y039349D01*
X007423Y039410D01*
X007300Y039410D01*
X007238Y039349D01*
X007238Y039163D01*
X007608Y039163D01*
X008075Y039103D02*
X008075Y038918D01*
X008445Y038918D01*
X008445Y039103D01*
X008383Y039165D01*
X008136Y039165D01*
X008075Y039103D01*
X008075Y038796D02*
X008445Y038796D01*
X008075Y038549D01*
X008445Y038549D01*
X008383Y038428D02*
X008260Y038428D01*
X008260Y038305D01*
X008383Y038428D02*
X008445Y038366D01*
X008445Y038243D01*
X008383Y038181D01*
X008136Y038181D01*
X008075Y038243D01*
X008075Y038366D01*
X008136Y038428D01*
D12*
X008144Y037247D02*
X007963Y037067D01*
X008204Y037067D01*
X008332Y037127D02*
X008452Y037247D01*
X008452Y036887D01*
X008332Y036887D02*
X008572Y036887D01*
X008144Y036887D02*
X008144Y037247D01*
X007835Y037187D02*
X007595Y036947D01*
X007655Y036887D01*
X007775Y036887D01*
X007835Y036947D01*
X007835Y037187D01*
X007775Y037247D01*
X007655Y037247D01*
X007595Y037187D01*
X007595Y036947D01*
X007467Y036887D02*
X007227Y036887D01*
X007467Y037127D01*
X007467Y037187D01*
X007407Y037247D01*
X007287Y037247D01*
X007227Y037187D01*
X007099Y037067D02*
X006858Y037067D01*
X006730Y037127D02*
X006670Y037067D01*
X006730Y037007D01*
X006730Y036947D01*
X006670Y036887D01*
X006550Y036887D01*
X006490Y036947D01*
X006362Y036887D02*
X006122Y036887D01*
X006362Y037127D01*
X006362Y037187D01*
X006302Y037247D01*
X006182Y037247D01*
X006122Y037187D01*
X005994Y037067D02*
X005753Y037067D01*
X005625Y037127D02*
X005625Y037187D01*
X005565Y037247D01*
X005445Y037247D01*
X005385Y037187D01*
X005257Y037187D02*
X005197Y037247D01*
X005077Y037247D01*
X005017Y037187D01*
X005257Y037187D02*
X005257Y037127D01*
X005017Y036887D01*
X005257Y036887D01*
X005385Y036887D02*
X005625Y037127D01*
X005625Y036887D02*
X005385Y036887D01*
X006490Y037187D02*
X006550Y037247D01*
X006670Y037247D01*
X006730Y037187D01*
X006730Y037127D01*
X006670Y037067D02*
X006610Y037067D01*
X006550Y034497D02*
X006670Y034497D01*
X006730Y034437D01*
X006730Y034377D01*
X006670Y034317D01*
X006730Y034257D01*
X006730Y034197D01*
X006670Y034137D01*
X006550Y034137D01*
X006490Y034197D01*
X006362Y034137D02*
X006122Y034137D01*
X006362Y034377D01*
X006362Y034437D01*
X006302Y034497D01*
X006182Y034497D01*
X006122Y034437D01*
X005994Y034317D02*
X005753Y034317D01*
X005625Y034377D02*
X005625Y034437D01*
X005565Y034497D01*
X005445Y034497D01*
X005385Y034437D01*
X005257Y034437D02*
X005197Y034497D01*
X005077Y034497D01*
X005017Y034437D01*
X005257Y034437D02*
X005257Y034377D01*
X005017Y034137D01*
X005257Y034137D01*
X005385Y034137D02*
X005625Y034377D01*
X005625Y034137D02*
X005385Y034137D01*
X006490Y034437D02*
X006550Y034497D01*
X006610Y034317D02*
X006670Y034317D01*
X006858Y034317D02*
X007099Y034317D01*
X007227Y034437D02*
X007287Y034497D01*
X007407Y034497D01*
X007467Y034437D01*
X007467Y034377D01*
X007227Y034137D01*
X007467Y034137D01*
X007595Y034197D02*
X007835Y034437D01*
X007835Y034197D01*
X007775Y034137D01*
X007655Y034137D01*
X007595Y034197D01*
X007595Y034437D01*
X007655Y034497D01*
X007775Y034497D01*
X007835Y034437D01*
X007963Y034317D02*
X008204Y034317D01*
X008332Y034377D02*
X008452Y034497D01*
X008452Y034137D01*
X008332Y034137D02*
X008572Y034137D01*
X008144Y034137D02*
X008144Y034497D01*
X007963Y034317D01*
X008144Y031747D02*
X007963Y031567D01*
X008204Y031567D01*
X008332Y031627D02*
X008452Y031747D01*
X008452Y031387D01*
X008332Y031387D02*
X008572Y031387D01*
X008144Y031387D02*
X008144Y031747D01*
X007835Y031687D02*
X007595Y031447D01*
X007655Y031387D01*
X007775Y031387D01*
X007835Y031447D01*
X007835Y031687D01*
X007775Y031747D01*
X007655Y031747D01*
X007595Y031687D01*
X007595Y031447D01*
X007467Y031387D02*
X007227Y031387D01*
X007467Y031627D01*
X007467Y031687D01*
X007407Y031747D01*
X007287Y031747D01*
X007227Y031687D01*
X007099Y031567D02*
X006858Y031567D01*
X006730Y031627D02*
X006670Y031567D01*
X006730Y031507D01*
X006730Y031447D01*
X006670Y031387D01*
X006550Y031387D01*
X006490Y031447D01*
X006362Y031387D02*
X006122Y031387D01*
X006362Y031627D01*
X006362Y031687D01*
X006302Y031747D01*
X006182Y031747D01*
X006122Y031687D01*
X005994Y031567D02*
X005753Y031567D01*
X005625Y031627D02*
X005625Y031687D01*
X005565Y031747D01*
X005445Y031747D01*
X005385Y031687D01*
X005257Y031687D02*
X005197Y031747D01*
X005077Y031747D01*
X005017Y031687D01*
X005257Y031687D02*
X005257Y031627D01*
X005017Y031387D01*
X005257Y031387D01*
X005385Y031387D02*
X005625Y031627D01*
X005625Y031387D02*
X005385Y031387D01*
X006490Y031687D02*
X006550Y031747D01*
X006670Y031747D01*
X006730Y031687D01*
X006730Y031627D01*
X006670Y031567D02*
X006610Y031567D01*
X006550Y028997D02*
X006670Y028997D01*
X006730Y028937D01*
X006730Y028877D01*
X006670Y028817D01*
X006730Y028757D01*
X006730Y028697D01*
X006670Y028637D01*
X006550Y028637D01*
X006490Y028697D01*
X006362Y028637D02*
X006122Y028637D01*
X006362Y028877D01*
X006362Y028937D01*
X006302Y028997D01*
X006182Y028997D01*
X006122Y028937D01*
X005994Y028817D02*
X005753Y028817D01*
X005625Y028877D02*
X005625Y028937D01*
X005565Y028997D01*
X005445Y028997D01*
X005385Y028937D01*
X005257Y028937D02*
X005197Y028997D01*
X005077Y028997D01*
X005017Y028937D01*
X005257Y028937D02*
X005257Y028877D01*
X005017Y028637D01*
X005257Y028637D01*
X005385Y028637D02*
X005625Y028877D01*
X005625Y028637D02*
X005385Y028637D01*
X006490Y028937D02*
X006550Y028997D01*
X006610Y028817D02*
X006670Y028817D01*
X006858Y028817D02*
X007099Y028817D01*
X007227Y028937D02*
X007287Y028997D01*
X007407Y028997D01*
X007467Y028937D01*
X007467Y028877D01*
X007227Y028637D01*
X007467Y028637D01*
X007595Y028697D02*
X007835Y028937D01*
X007835Y028697D01*
X007775Y028637D01*
X007655Y028637D01*
X007595Y028697D01*
X007595Y028937D01*
X007655Y028997D01*
X007775Y028997D01*
X007835Y028937D01*
X007963Y028817D02*
X008204Y028817D01*
X008332Y028877D02*
X008452Y028997D01*
X008452Y028637D01*
X008332Y028637D02*
X008572Y028637D01*
X008144Y028637D02*
X008144Y028997D01*
X007963Y028817D01*
X012700Y029037D02*
X013083Y029037D01*
X013160Y029113D01*
X013160Y029267D01*
X013083Y029344D01*
X012700Y029344D01*
X012700Y029497D02*
X013160Y029497D01*
X013160Y029804D01*
X013160Y029957D02*
X012700Y029957D01*
X013160Y030264D01*
X012700Y030264D01*
X012776Y030418D02*
X012700Y030495D01*
X012700Y030648D01*
X012776Y030725D01*
X012853Y030725D01*
X013160Y030418D01*
X013160Y030725D01*
X013083Y030878D02*
X013160Y030955D01*
X013160Y031108D01*
X013083Y031185D01*
X013007Y031185D01*
X012930Y031108D01*
X012930Y030955D01*
X012853Y030878D01*
X012776Y030878D01*
X012700Y030955D01*
X012700Y031108D01*
X012776Y031185D01*
X012853Y031185D01*
X012930Y031108D01*
X012930Y030955D02*
X013007Y030878D01*
X013083Y030878D01*
X013083Y031339D02*
X012776Y031646D01*
X013083Y031646D01*
X013160Y031569D01*
X013160Y031415D01*
X013083Y031339D01*
X012776Y031339D01*
X012700Y031415D01*
X012700Y031569D01*
X012776Y031646D01*
X012776Y031799D02*
X012700Y031876D01*
X012700Y032029D01*
X012776Y032106D01*
X012853Y032106D01*
X012930Y032029D01*
X013007Y032106D01*
X013083Y032106D01*
X013160Y032029D01*
X013160Y031876D01*
X013083Y031799D01*
X012930Y031952D02*
X012930Y032029D01*
X012930Y032259D02*
X012930Y032566D01*
X012853Y032566D02*
X013160Y032566D01*
X013160Y032259D02*
X012853Y032259D01*
X012700Y032413D01*
X012853Y032566D01*
X016050Y024438D02*
X016410Y024438D01*
X016410Y024318D02*
X016410Y024559D01*
X016170Y024318D02*
X016050Y024438D01*
X016110Y024190D02*
X016350Y023950D01*
X016410Y024010D01*
X016410Y024130D01*
X016350Y024190D01*
X016110Y024190D01*
X016050Y024130D01*
X016050Y024010D01*
X016110Y023950D01*
X016350Y023950D01*
X016350Y023822D02*
X016410Y023762D01*
X016410Y023642D01*
X016350Y023582D01*
X016230Y023582D02*
X016170Y023702D01*
X016170Y023762D01*
X016230Y023822D01*
X016350Y023822D01*
X016230Y023582D02*
X016050Y023582D01*
X016050Y023822D01*
X016110Y023454D02*
X016050Y023394D01*
X016050Y023273D01*
X016110Y023213D01*
X016170Y023085D02*
X016170Y022905D01*
X016230Y022845D01*
X016290Y022905D01*
X016290Y023025D01*
X016350Y023085D01*
X016410Y023025D01*
X016410Y022845D01*
X016350Y022717D02*
X016410Y022657D01*
X016410Y022477D01*
X016530Y022477D02*
X016170Y022477D01*
X016170Y022657D01*
X016230Y022717D01*
X016350Y022717D01*
X016410Y023213D02*
X016170Y023454D01*
X016110Y023454D01*
X016410Y023454D02*
X016410Y023213D01*
X018050Y023273D02*
X018110Y023213D01*
X018050Y023273D02*
X018050Y023394D01*
X018110Y023454D01*
X018170Y023454D01*
X018410Y023213D01*
X018410Y023454D01*
X018350Y023582D02*
X018410Y023642D01*
X018410Y023762D01*
X018350Y023822D01*
X018230Y023822D01*
X018170Y023762D01*
X018170Y023702D01*
X018230Y023582D01*
X018050Y023582D01*
X018050Y023822D01*
X018110Y023950D02*
X018050Y024010D01*
X018050Y024130D01*
X018110Y024190D01*
X018350Y023950D01*
X018410Y024010D01*
X018410Y024130D01*
X018350Y024190D01*
X018110Y024190D01*
X018170Y024318D02*
X018050Y024438D01*
X018410Y024438D01*
X018410Y024318D02*
X018410Y024559D01*
X018350Y023950D02*
X018110Y023950D01*
X018110Y023085D02*
X018050Y023025D01*
X018050Y022905D01*
X018110Y022845D01*
X018170Y022845D01*
X018230Y022905D01*
X018230Y023025D01*
X018290Y023085D01*
X018350Y023085D01*
X018410Y023025D01*
X018410Y022905D01*
X018350Y022845D01*
X018230Y022717D02*
X018290Y022657D01*
X018290Y022477D01*
X018410Y022477D02*
X018050Y022477D01*
X018050Y022657D01*
X018110Y022717D01*
X018230Y022717D01*
X020050Y023273D02*
X020110Y023213D01*
X020050Y023273D02*
X020050Y023394D01*
X020110Y023454D01*
X020170Y023454D01*
X020410Y023213D01*
X020410Y023454D01*
X020350Y023582D02*
X020410Y023642D01*
X020410Y023762D01*
X020350Y023822D01*
X020230Y023822D01*
X020170Y023762D01*
X020170Y023702D01*
X020230Y023582D01*
X020050Y023582D01*
X020050Y023822D01*
X020110Y023950D02*
X020050Y024010D01*
X020050Y024130D01*
X020110Y024190D01*
X020350Y023950D01*
X020410Y024010D01*
X020410Y024130D01*
X020350Y024190D01*
X020110Y024190D01*
X020170Y024318D02*
X020050Y024438D01*
X020410Y024438D01*
X020410Y024318D02*
X020410Y024559D01*
X020350Y023950D02*
X020110Y023950D01*
X020170Y023085D02*
X020170Y022905D01*
X020230Y022845D01*
X020290Y022905D01*
X020290Y023025D01*
X020350Y023085D01*
X020410Y023025D01*
X020410Y022845D01*
X020350Y022717D02*
X020410Y022657D01*
X020410Y022477D01*
X020530Y022477D02*
X020170Y022477D01*
X020170Y022657D01*
X020230Y022717D01*
X020350Y022717D01*
X022050Y022657D02*
X022050Y022477D01*
X022410Y022477D01*
X022290Y022477D02*
X022290Y022657D01*
X022230Y022717D01*
X022110Y022717D01*
X022050Y022657D01*
X022110Y022845D02*
X022170Y022845D01*
X022230Y022905D01*
X022230Y023025D01*
X022290Y023085D01*
X022350Y023085D01*
X022410Y023025D01*
X022410Y022905D01*
X022350Y022845D01*
X022110Y022845D02*
X022050Y022905D01*
X022050Y023025D01*
X022110Y023085D01*
X022110Y023213D02*
X022050Y023273D01*
X022050Y023394D01*
X022110Y023454D01*
X022170Y023454D01*
X022410Y023213D01*
X022410Y023454D01*
X022350Y023582D02*
X022410Y023642D01*
X022410Y023762D01*
X022350Y023822D01*
X022230Y023822D01*
X022170Y023762D01*
X022170Y023702D01*
X022230Y023582D01*
X022050Y023582D01*
X022050Y023822D01*
X022110Y023950D02*
X022050Y024010D01*
X022050Y024130D01*
X022110Y024190D01*
X022350Y023950D01*
X022410Y024010D01*
X022410Y024130D01*
X022350Y024190D01*
X022110Y024190D01*
X022170Y024318D02*
X022050Y024438D01*
X022410Y024438D01*
X022410Y024318D02*
X022410Y024559D01*
X022350Y023950D02*
X022110Y023950D01*
X027890Y027167D02*
X027890Y027527D01*
X028070Y027527D01*
X028130Y027467D01*
X028130Y027347D01*
X028070Y027287D01*
X027890Y027287D01*
X028258Y027287D02*
X028439Y027287D01*
X028499Y027347D01*
X028439Y027407D01*
X028318Y027407D01*
X028258Y027467D01*
X028318Y027527D01*
X028499Y027527D01*
X028627Y027587D02*
X028687Y027647D01*
X028807Y027647D01*
X028867Y027587D01*
X028867Y027527D01*
X028627Y027287D01*
X028867Y027287D01*
X028995Y027347D02*
X029055Y027287D01*
X029175Y027287D01*
X029235Y027347D01*
X029235Y027467D01*
X029175Y027527D01*
X029115Y027527D01*
X028995Y027467D01*
X028995Y027647D01*
X029235Y027647D01*
X029363Y027587D02*
X029423Y027647D01*
X029544Y027647D01*
X029604Y027587D01*
X029363Y027347D01*
X029423Y027287D01*
X029544Y027287D01*
X029604Y027347D01*
X029604Y027587D01*
X029732Y027527D02*
X029852Y027647D01*
X029852Y027287D01*
X029732Y027287D02*
X029972Y027287D01*
X029363Y027347D02*
X029363Y027587D01*
X029423Y029287D02*
X029363Y029347D01*
X029604Y029587D01*
X029604Y029347D01*
X029544Y029287D01*
X029423Y029287D01*
X029363Y029347D02*
X029363Y029587D01*
X029423Y029647D01*
X029544Y029647D01*
X029604Y029587D01*
X029732Y029527D02*
X029852Y029647D01*
X029852Y029287D01*
X029732Y029287D02*
X029972Y029287D01*
X029235Y029347D02*
X029175Y029287D01*
X029055Y029287D01*
X028995Y029347D01*
X028995Y029467D02*
X029115Y029527D01*
X029175Y029527D01*
X029235Y029467D01*
X029235Y029347D01*
X028995Y029467D02*
X028995Y029647D01*
X029235Y029647D01*
X028867Y029587D02*
X028807Y029647D01*
X028687Y029647D01*
X028627Y029587D01*
X028499Y029527D02*
X028318Y029527D01*
X028258Y029467D01*
X028318Y029407D01*
X028439Y029407D01*
X028499Y029347D01*
X028439Y029287D01*
X028258Y029287D01*
X028130Y029347D02*
X028130Y029467D01*
X028070Y029527D01*
X027890Y029527D01*
X027890Y029167D01*
X027890Y029287D02*
X028070Y029287D01*
X028130Y029347D01*
X028627Y029287D02*
X028867Y029527D01*
X028867Y029587D01*
X028867Y029287D02*
X028627Y029287D01*
X028627Y031287D02*
X028867Y031527D01*
X028867Y031587D01*
X028807Y031647D01*
X028687Y031647D01*
X028627Y031587D01*
X028499Y031527D02*
X028318Y031527D01*
X028258Y031467D01*
X028318Y031407D01*
X028439Y031407D01*
X028499Y031347D01*
X028439Y031287D01*
X028258Y031287D01*
X028130Y031347D02*
X028130Y031467D01*
X028070Y031527D01*
X027890Y031527D01*
X027890Y031167D01*
X027890Y031287D02*
X028070Y031287D01*
X028130Y031347D01*
X028627Y031287D02*
X028867Y031287D01*
X028995Y031347D02*
X029055Y031287D01*
X029175Y031287D01*
X029235Y031347D01*
X029235Y031467D01*
X029175Y031527D01*
X029115Y031527D01*
X028995Y031467D01*
X028995Y031647D01*
X029235Y031647D01*
X029363Y031587D02*
X029423Y031647D01*
X029544Y031647D01*
X029604Y031587D01*
X029363Y031347D01*
X029423Y031287D01*
X029544Y031287D01*
X029604Y031347D01*
X029604Y031587D01*
X029732Y031527D02*
X029852Y031647D01*
X029852Y031287D01*
X029732Y031287D02*
X029972Y031287D01*
X029363Y031347D02*
X029363Y031587D01*
X029423Y033287D02*
X029363Y033347D01*
X029604Y033587D01*
X029604Y033347D01*
X029544Y033287D01*
X029423Y033287D01*
X029363Y033347D02*
X029363Y033587D01*
X029423Y033647D01*
X029544Y033647D01*
X029604Y033587D01*
X029732Y033527D02*
X029852Y033647D01*
X029852Y033287D01*
X029732Y033287D02*
X029972Y033287D01*
X029235Y033347D02*
X029175Y033287D01*
X029055Y033287D01*
X028995Y033347D01*
X028995Y033467D02*
X029115Y033527D01*
X029175Y033527D01*
X029235Y033467D01*
X029235Y033347D01*
X028995Y033467D02*
X028995Y033647D01*
X029235Y033647D01*
X028867Y033587D02*
X028807Y033647D01*
X028687Y033647D01*
X028627Y033587D01*
X028499Y033527D02*
X028318Y033527D01*
X028258Y033467D01*
X028318Y033407D01*
X028439Y033407D01*
X028499Y033347D01*
X028439Y033287D01*
X028258Y033287D01*
X028130Y033347D02*
X028130Y033467D01*
X028070Y033527D01*
X027890Y033527D01*
X027890Y033167D01*
X027890Y033287D02*
X028070Y033287D01*
X028130Y033347D01*
X028627Y033287D02*
X028867Y033527D01*
X028867Y033587D01*
X028867Y033287D02*
X028627Y033287D01*
X028490Y038537D02*
X028490Y038997D01*
X028643Y038844D01*
X028797Y038997D01*
X028797Y038537D01*
X008810Y020466D02*
X008350Y020466D01*
X008350Y020159D02*
X008810Y020466D01*
X008810Y020159D02*
X008350Y020159D01*
X008426Y020006D02*
X008733Y019699D01*
X008810Y019776D01*
X008810Y019929D01*
X008733Y020006D01*
X008426Y020006D01*
X008350Y019929D01*
X008350Y019776D01*
X008426Y019699D01*
X008733Y019699D01*
X008580Y019546D02*
X008580Y019239D01*
X008350Y019469D01*
X008810Y019469D01*
X008810Y019085D02*
X008810Y018778D01*
X008503Y019085D01*
X008426Y019085D01*
X008350Y019008D01*
X008350Y018855D01*
X008426Y018778D01*
X008426Y018625D02*
X008350Y018548D01*
X008350Y018395D01*
X008426Y018318D01*
X008733Y018318D01*
X008810Y018395D01*
X008810Y018548D01*
X008733Y018625D01*
X008810Y018164D02*
X008350Y018164D01*
X008580Y018164D02*
X008580Y017857D01*
X008580Y017704D02*
X008580Y017397D01*
X008350Y017627D01*
X008810Y017627D01*
X008810Y017857D02*
X008350Y017857D01*
X008350Y017244D02*
X008426Y017244D01*
X008733Y016937D01*
X008810Y016937D01*
X008350Y016937D02*
X008350Y017244D01*
X008350Y007216D02*
X008810Y007216D01*
X008350Y006909D01*
X008810Y006909D01*
X008733Y006756D02*
X008810Y006679D01*
X008810Y006526D01*
X008733Y006449D01*
X008426Y006756D01*
X008733Y006756D01*
X008426Y006756D02*
X008350Y006679D01*
X008350Y006526D01*
X008426Y006449D01*
X008733Y006449D01*
X008580Y006296D02*
X008580Y005989D01*
X008350Y006219D01*
X008810Y006219D01*
X008810Y005835D02*
X008810Y005528D01*
X008503Y005835D01*
X008426Y005835D01*
X008350Y005758D01*
X008350Y005605D01*
X008426Y005528D01*
X008426Y005375D02*
X008350Y005298D01*
X008350Y005145D01*
X008426Y005068D01*
X008733Y005068D01*
X008810Y005145D01*
X008810Y005298D01*
X008733Y005375D01*
X008810Y004914D02*
X008350Y004914D01*
X008580Y004914D02*
X008580Y004607D01*
X008580Y004454D02*
X008580Y004147D01*
X008350Y004377D01*
X008810Y004377D01*
X008810Y004607D02*
X008350Y004607D01*
X008350Y003994D02*
X008426Y003994D01*
X008733Y003687D01*
X008810Y003687D01*
X008350Y003687D02*
X008350Y003994D01*
X002257Y029787D02*
X001950Y029787D01*
X002257Y029787D02*
X002410Y029940D01*
X002257Y030094D01*
X001950Y030094D01*
X002103Y030247D02*
X001950Y030401D01*
X002103Y030554D01*
X002410Y030554D01*
X002180Y030554D02*
X002180Y030247D01*
X002103Y030247D02*
X002410Y030247D01*
X002180Y030707D02*
X002180Y031014D01*
X002333Y031168D02*
X002026Y031475D01*
X002333Y031475D01*
X002410Y031398D01*
X002410Y031245D01*
X002333Y031168D01*
X002026Y031168D01*
X001950Y031245D01*
X001950Y031398D01*
X002026Y031475D01*
X001950Y031628D02*
X002180Y031628D01*
X002103Y031782D01*
X002103Y031858D01*
X002180Y031935D01*
X002333Y031935D01*
X002410Y031858D01*
X002410Y031705D01*
X002333Y031628D01*
X001950Y031628D02*
X001950Y031935D01*
X002026Y032089D02*
X001950Y032165D01*
X001950Y032319D01*
X002026Y032396D01*
X002333Y032089D01*
X002410Y032165D01*
X002410Y032319D01*
X002333Y032396D01*
X002026Y032396D01*
X001950Y032549D02*
X002180Y032549D01*
X002103Y032702D01*
X002103Y032779D01*
X002180Y032856D01*
X002333Y032856D01*
X002410Y032779D01*
X002410Y032626D01*
X002333Y032549D01*
X001950Y032549D02*
X001950Y032856D01*
X002026Y033009D02*
X001950Y033086D01*
X001950Y033240D01*
X002026Y033316D01*
X002180Y033240D02*
X002257Y033316D01*
X002333Y033316D01*
X002410Y033240D01*
X002410Y033086D01*
X002333Y033009D01*
X002180Y033086D02*
X002103Y033009D01*
X002026Y033009D01*
X002180Y033086D02*
X002180Y033240D01*
X002333Y032089D02*
X002026Y032089D01*
D13*
X001780Y034067D02*
X003080Y034067D01*
X003106Y034069D01*
X003132Y034074D01*
X003157Y034082D01*
X003180Y034094D01*
X003202Y034108D01*
X003221Y034126D01*
X003239Y034145D01*
X003253Y034167D01*
X003265Y034190D01*
X003273Y034215D01*
X003278Y034241D01*
X003280Y034267D01*
X003280Y034767D01*
X003278Y034793D01*
X003273Y034819D01*
X003265Y034844D01*
X003253Y034867D01*
X003239Y034889D01*
X003221Y034908D01*
X003202Y034926D01*
X003180Y034940D01*
X003157Y034952D01*
X003132Y034960D01*
X003106Y034965D01*
X003080Y034967D01*
X001780Y034967D01*
X001754Y034965D01*
X001728Y034960D01*
X001703Y034952D01*
X001680Y034940D01*
X001658Y034926D01*
X001639Y034908D01*
X001621Y034889D01*
X001607Y034867D01*
X001595Y034844D01*
X001587Y034819D01*
X001582Y034793D01*
X001580Y034767D01*
X001580Y034267D01*
X001582Y034241D01*
X001587Y034215D01*
X001595Y034190D01*
X001607Y034167D01*
X001621Y034145D01*
X001639Y034126D01*
X001658Y034108D01*
X001680Y034094D01*
X001703Y034082D01*
X001728Y034074D01*
X001754Y034069D01*
X001780Y034067D01*
X001586Y037381D02*
X001588Y037454D01*
X001594Y037527D01*
X001604Y037599D01*
X001618Y037671D01*
X001635Y037742D01*
X001657Y037812D01*
X001682Y037881D01*
X001711Y037948D01*
X001743Y038013D01*
X001779Y038077D01*
X001819Y038139D01*
X001861Y038198D01*
X001907Y038255D01*
X001956Y038309D01*
X002008Y038361D01*
X002062Y038410D01*
X002119Y038456D01*
X002178Y038498D01*
X002240Y038538D01*
X002304Y038574D01*
X002369Y038606D01*
X002436Y038635D01*
X002505Y038660D01*
X002575Y038682D01*
X002646Y038699D01*
X002718Y038713D01*
X002790Y038723D01*
X002863Y038729D01*
X002936Y038731D01*
X003009Y038729D01*
X003082Y038723D01*
X003154Y038713D01*
X003226Y038699D01*
X003297Y038682D01*
X003367Y038660D01*
X003436Y038635D01*
X003503Y038606D01*
X003568Y038574D01*
X003632Y038538D01*
X003694Y038498D01*
X003753Y038456D01*
X003810Y038410D01*
X003864Y038361D01*
X003916Y038309D01*
X003965Y038255D01*
X004011Y038198D01*
X004053Y038139D01*
X004093Y038077D01*
X004129Y038013D01*
X004161Y037948D01*
X004190Y037881D01*
X004215Y037812D01*
X004237Y037742D01*
X004254Y037671D01*
X004268Y037599D01*
X004278Y037527D01*
X004284Y037454D01*
X004286Y037381D01*
X004284Y037308D01*
X004278Y037235D01*
X004268Y037163D01*
X004254Y037091D01*
X004237Y037020D01*
X004215Y036950D01*
X004190Y036881D01*
X004161Y036814D01*
X004129Y036749D01*
X004093Y036685D01*
X004053Y036623D01*
X004011Y036564D01*
X003965Y036507D01*
X003916Y036453D01*
X003864Y036401D01*
X003810Y036352D01*
X003753Y036306D01*
X003694Y036264D01*
X003632Y036224D01*
X003568Y036188D01*
X003503Y036156D01*
X003436Y036127D01*
X003367Y036102D01*
X003297Y036080D01*
X003226Y036063D01*
X003154Y036049D01*
X003082Y036039D01*
X003009Y036033D01*
X002936Y036031D01*
X002863Y036033D01*
X002790Y036039D01*
X002718Y036049D01*
X002646Y036063D01*
X002575Y036080D01*
X002505Y036102D01*
X002436Y036127D01*
X002369Y036156D01*
X002304Y036188D01*
X002240Y036224D01*
X002178Y036264D01*
X002119Y036306D01*
X002062Y036352D01*
X002008Y036401D01*
X001956Y036453D01*
X001907Y036507D01*
X001861Y036564D01*
X001819Y036623D01*
X001779Y036685D01*
X001743Y036749D01*
X001711Y036814D01*
X001682Y036881D01*
X001657Y036950D01*
X001635Y037020D01*
X001618Y037091D01*
X001604Y037163D01*
X001594Y037235D01*
X001588Y037308D01*
X001586Y037381D01*
X009480Y036017D02*
X009480Y039967D01*
X010430Y039967D01*
X011480Y039967D01*
X011830Y040017D02*
X011830Y035967D01*
X011630Y035767D01*
X009730Y035767D01*
X009480Y036017D01*
X009730Y035267D02*
X010130Y035267D01*
X010156Y035265D01*
X010182Y035260D01*
X010207Y035252D01*
X010230Y035240D01*
X010252Y035226D01*
X010271Y035208D01*
X010289Y035189D01*
X010303Y035167D01*
X010315Y035144D01*
X010323Y035119D01*
X010328Y035093D01*
X010330Y035067D01*
X010330Y026467D01*
X010328Y026441D01*
X010323Y026415D01*
X010315Y026390D01*
X010303Y026367D01*
X010289Y026345D01*
X010271Y026326D01*
X010252Y026308D01*
X010230Y026294D01*
X010207Y026282D01*
X010182Y026274D01*
X010156Y026269D01*
X010130Y026267D01*
X009730Y026267D01*
X009704Y026269D01*
X009678Y026274D01*
X009653Y026282D01*
X009630Y026294D01*
X009608Y026308D01*
X009589Y026326D01*
X009571Y026345D01*
X009557Y026367D01*
X009545Y026390D01*
X009537Y026415D01*
X009532Y026441D01*
X009530Y026467D01*
X009530Y035067D01*
X009580Y035117D02*
X009580Y034417D01*
X010280Y034417D01*
X010280Y035117D01*
X009580Y035117D01*
X009530Y035067D02*
X009532Y035093D01*
X009537Y035119D01*
X009545Y035144D01*
X009557Y035167D01*
X009571Y035189D01*
X009589Y035208D01*
X009608Y035226D01*
X009630Y035240D01*
X009653Y035252D01*
X009678Y035260D01*
X009704Y035265D01*
X009730Y035267D01*
X010020Y037017D02*
X010022Y037067D01*
X010028Y037117D01*
X010038Y037167D01*
X010051Y037215D01*
X010068Y037263D01*
X010089Y037309D01*
X010113Y037353D01*
X010141Y037395D01*
X010172Y037435D01*
X010206Y037472D01*
X010243Y037507D01*
X010282Y037538D01*
X010323Y037567D01*
X010367Y037592D01*
X010413Y037614D01*
X010460Y037632D01*
X010508Y037646D01*
X010557Y037657D01*
X010607Y037664D01*
X010657Y037667D01*
X010708Y037666D01*
X010758Y037661D01*
X010808Y037652D01*
X010856Y037640D01*
X010904Y037623D01*
X010950Y037603D01*
X010995Y037580D01*
X011038Y037553D01*
X011078Y037523D01*
X011116Y037490D01*
X011151Y037454D01*
X011184Y037415D01*
X011213Y037374D01*
X011239Y037331D01*
X011262Y037286D01*
X011281Y037239D01*
X011296Y037191D01*
X011308Y037142D01*
X011316Y037092D01*
X011320Y037042D01*
X011320Y036992D01*
X011316Y036942D01*
X011308Y036892D01*
X011296Y036843D01*
X011281Y036795D01*
X011262Y036748D01*
X011239Y036703D01*
X011213Y036660D01*
X011184Y036619D01*
X011151Y036580D01*
X011116Y036544D01*
X011078Y036511D01*
X011038Y036481D01*
X010995Y036454D01*
X010950Y036431D01*
X010904Y036411D01*
X010856Y036394D01*
X010808Y036382D01*
X010758Y036373D01*
X010708Y036368D01*
X010657Y036367D01*
X010607Y036370D01*
X010557Y036377D01*
X010508Y036388D01*
X010460Y036402D01*
X010413Y036420D01*
X010367Y036442D01*
X010323Y036467D01*
X010282Y036496D01*
X010243Y036527D01*
X010206Y036562D01*
X010172Y036599D01*
X010141Y036639D01*
X010113Y036681D01*
X010089Y036725D01*
X010068Y036771D01*
X010051Y036819D01*
X010038Y036867D01*
X010028Y036917D01*
X010022Y036967D01*
X010020Y037017D01*
X011780Y035267D02*
X014080Y035267D01*
X014080Y026267D01*
X013330Y026267D01*
X013328Y026306D01*
X013322Y026345D01*
X013313Y026383D01*
X013300Y026420D01*
X013283Y026456D01*
X013263Y026489D01*
X013239Y026521D01*
X013213Y026550D01*
X013184Y026576D01*
X013152Y026600D01*
X013119Y026620D01*
X013083Y026637D01*
X013046Y026650D01*
X013008Y026659D01*
X012969Y026665D01*
X012930Y026667D01*
X012891Y026665D01*
X012852Y026659D01*
X012814Y026650D01*
X012777Y026637D01*
X012741Y026620D01*
X012708Y026600D01*
X012676Y026576D01*
X012647Y026550D01*
X012621Y026521D01*
X012597Y026489D01*
X012577Y026456D01*
X012560Y026420D01*
X012547Y026383D01*
X012538Y026345D01*
X012532Y026306D01*
X012530Y026267D01*
X011780Y026267D01*
X011780Y035267D01*
X015680Y034667D02*
X015680Y033917D01*
X015719Y033915D01*
X015758Y033909D01*
X015796Y033900D01*
X015833Y033887D01*
X015869Y033870D01*
X015902Y033850D01*
X015934Y033826D01*
X015963Y033800D01*
X015989Y033771D01*
X016013Y033739D01*
X016033Y033706D01*
X016050Y033670D01*
X016063Y033633D01*
X016072Y033595D01*
X016078Y033556D01*
X016080Y033517D01*
X016078Y033478D01*
X016072Y033439D01*
X016063Y033401D01*
X016050Y033364D01*
X016033Y033328D01*
X016013Y033295D01*
X015989Y033263D01*
X015963Y033234D01*
X015934Y033208D01*
X015902Y033184D01*
X015869Y033164D01*
X015833Y033147D01*
X015796Y033134D01*
X015758Y033125D01*
X015719Y033119D01*
X015680Y033117D01*
X015680Y032367D01*
X022680Y032367D01*
X022680Y034667D01*
X015680Y034667D01*
X015830Y030017D02*
X016530Y030017D01*
X016547Y030015D01*
X016564Y030011D01*
X016580Y030004D01*
X016594Y029994D01*
X016607Y029981D01*
X016617Y029967D01*
X016624Y029951D01*
X016628Y029934D01*
X016630Y029917D01*
X016630Y029767D01*
X016580Y029717D01*
X016580Y027817D01*
X016630Y027767D01*
X016630Y027617D01*
X016628Y027600D01*
X016624Y027583D01*
X016617Y027567D01*
X016607Y027553D01*
X016594Y027540D01*
X016580Y027530D01*
X016564Y027523D01*
X016547Y027519D01*
X016530Y027517D01*
X015830Y027517D01*
X015813Y027519D01*
X015796Y027523D01*
X015780Y027530D01*
X015766Y027540D01*
X015753Y027553D01*
X015743Y027567D01*
X015736Y027583D01*
X015732Y027600D01*
X015730Y027617D01*
X015730Y027767D01*
X015780Y027817D01*
X015780Y029717D01*
X015730Y029767D01*
X015730Y029917D01*
X015732Y029934D01*
X015736Y029951D01*
X015743Y029967D01*
X015753Y029981D01*
X015766Y029994D01*
X015780Y030004D01*
X015796Y030011D01*
X015813Y030015D01*
X015830Y030017D01*
X017480Y029917D02*
X017480Y029767D01*
X017530Y029717D01*
X017530Y027817D01*
X017480Y027767D01*
X017480Y027617D01*
X017482Y027600D01*
X017486Y027583D01*
X017493Y027567D01*
X017503Y027553D01*
X017516Y027540D01*
X017530Y027530D01*
X017546Y027523D01*
X017563Y027519D01*
X017580Y027517D01*
X018280Y027517D01*
X018297Y027519D01*
X018314Y027523D01*
X018330Y027530D01*
X018344Y027540D01*
X018357Y027553D01*
X018367Y027567D01*
X018374Y027583D01*
X018378Y027600D01*
X018380Y027617D01*
X018380Y027767D01*
X018330Y027817D01*
X018330Y029717D01*
X018380Y029767D01*
X018380Y029917D01*
X018378Y029934D01*
X018374Y029951D01*
X018367Y029967D01*
X018357Y029981D01*
X018344Y029994D01*
X018330Y030004D01*
X018314Y030011D01*
X018297Y030015D01*
X018280Y030017D01*
X017580Y030017D01*
X017563Y030015D01*
X017546Y030011D01*
X017530Y030004D01*
X017516Y029994D01*
X017503Y029981D01*
X017493Y029967D01*
X017486Y029951D01*
X017482Y029934D01*
X017480Y029917D01*
X019480Y029917D02*
X019480Y029767D01*
X019530Y029717D01*
X019530Y027817D01*
X019480Y027767D01*
X019480Y027617D01*
X019482Y027600D01*
X019486Y027583D01*
X019493Y027567D01*
X019503Y027553D01*
X019516Y027540D01*
X019530Y027530D01*
X019546Y027523D01*
X019563Y027519D01*
X019580Y027517D01*
X020280Y027517D01*
X020297Y027519D01*
X020314Y027523D01*
X020330Y027530D01*
X020344Y027540D01*
X020357Y027553D01*
X020367Y027567D01*
X020374Y027583D01*
X020378Y027600D01*
X020380Y027617D01*
X020380Y027767D01*
X020330Y027817D01*
X020330Y029717D01*
X020380Y029767D01*
X020380Y029917D01*
X020378Y029934D01*
X020374Y029951D01*
X020367Y029967D01*
X020357Y029981D01*
X020344Y029994D01*
X020330Y030004D01*
X020314Y030011D01*
X020297Y030015D01*
X020280Y030017D01*
X019580Y030017D01*
X019563Y030015D01*
X019546Y030011D01*
X019530Y030004D01*
X019516Y029994D01*
X019503Y029981D01*
X019493Y029967D01*
X019486Y029951D01*
X019482Y029934D01*
X019480Y029917D01*
X021480Y029917D02*
X021480Y029767D01*
X021530Y029717D01*
X021530Y027817D01*
X021480Y027767D01*
X021480Y027617D01*
X021482Y027600D01*
X021486Y027583D01*
X021493Y027567D01*
X021503Y027553D01*
X021516Y027540D01*
X021530Y027530D01*
X021546Y027523D01*
X021563Y027519D01*
X021580Y027517D01*
X022280Y027517D01*
X022297Y027519D01*
X022314Y027523D01*
X022330Y027530D01*
X022344Y027540D01*
X022357Y027553D01*
X022367Y027567D01*
X022374Y027583D01*
X022378Y027600D01*
X022380Y027617D01*
X022380Y027767D01*
X022330Y027817D01*
X022330Y029717D01*
X022380Y029767D01*
X022380Y029917D01*
X022378Y029934D01*
X022374Y029951D01*
X022367Y029967D01*
X022357Y029981D01*
X022344Y029994D01*
X022330Y030004D01*
X022314Y030011D01*
X022297Y030015D01*
X022280Y030017D01*
X021580Y030017D01*
X021563Y030015D01*
X021546Y030011D01*
X021530Y030004D01*
X021516Y029994D01*
X021503Y029981D01*
X021493Y029967D01*
X021486Y029951D01*
X021482Y029934D01*
X021480Y029917D01*
X024048Y029293D02*
X024083Y029323D01*
X024116Y029354D01*
X024146Y029389D01*
X024173Y029425D01*
X024197Y029463D01*
X024219Y029503D01*
X024237Y029545D01*
X024253Y029588D01*
X024265Y029632D01*
X024273Y029676D01*
X024278Y029722D01*
X024280Y029767D01*
X023320Y029287D02*
X023284Y029316D01*
X023250Y029348D01*
X023219Y029383D01*
X023191Y029419D01*
X023166Y029458D01*
X023143Y029499D01*
X023124Y029541D01*
X023108Y029584D01*
X023096Y029629D01*
X023087Y029675D01*
X023082Y029721D01*
X023080Y029767D01*
X024048Y030241D02*
X024083Y030211D01*
X024116Y030180D01*
X024146Y030145D01*
X024173Y030109D01*
X024197Y030071D01*
X024219Y030031D01*
X024237Y029989D01*
X024253Y029946D01*
X024265Y029902D01*
X024273Y029858D01*
X024278Y029812D01*
X024280Y029767D01*
X023331Y030255D02*
X023294Y030226D01*
X023259Y030194D01*
X023226Y030159D01*
X023196Y030122D01*
X023170Y030083D01*
X023147Y030042D01*
X023126Y029998D01*
X023110Y029954D01*
X023097Y029908D01*
X023088Y029862D01*
X023082Y029814D01*
X023080Y029767D01*
X023180Y028117D02*
X023680Y028117D01*
X023706Y028115D01*
X023732Y028110D01*
X023757Y028102D01*
X023780Y028090D01*
X023802Y028076D01*
X023821Y028058D01*
X023839Y028039D01*
X023853Y028017D01*
X023865Y027994D01*
X023873Y027969D01*
X023878Y027943D01*
X023880Y027917D01*
X023880Y026617D01*
X023878Y026591D01*
X023873Y026565D01*
X023865Y026540D01*
X023853Y026517D01*
X023839Y026495D01*
X023821Y026476D01*
X023802Y026458D01*
X023780Y026444D01*
X023757Y026432D01*
X023732Y026424D01*
X023706Y026419D01*
X023680Y026417D01*
X023180Y026417D01*
X023154Y026419D01*
X023128Y026424D01*
X023103Y026432D01*
X023080Y026444D01*
X023058Y026458D01*
X023039Y026476D01*
X023021Y026495D01*
X023007Y026517D01*
X022995Y026540D01*
X022987Y026565D01*
X022982Y026591D01*
X022980Y026617D01*
X022980Y027917D01*
X022982Y027943D01*
X022987Y027969D01*
X022995Y027994D01*
X023007Y028017D01*
X023021Y028039D01*
X023039Y028058D01*
X023058Y028076D01*
X023080Y028090D01*
X023103Y028102D01*
X023128Y028110D01*
X023154Y028115D01*
X023180Y028117D01*
X024380Y027517D02*
X024530Y027517D01*
X024530Y027667D01*
X024530Y027517D02*
X024680Y027517D01*
X024530Y027517D02*
X024530Y027367D01*
X024080Y027017D02*
X024082Y027083D01*
X024088Y027148D01*
X024098Y027213D01*
X024111Y027278D01*
X024129Y027341D01*
X024150Y027404D01*
X024175Y027464D01*
X024204Y027524D01*
X024236Y027581D01*
X024271Y027637D01*
X024310Y027690D01*
X024352Y027741D01*
X024396Y027789D01*
X024444Y027834D01*
X024494Y027877D01*
X024547Y027916D01*
X024602Y027953D01*
X024659Y027986D01*
X024718Y028015D01*
X024778Y028041D01*
X024840Y028063D01*
X024903Y028082D01*
X024967Y028096D01*
X025032Y028107D01*
X025098Y028114D01*
X025164Y028117D01*
X025229Y028116D01*
X025295Y028111D01*
X025360Y028102D01*
X025425Y028089D01*
X025488Y028073D01*
X025551Y028053D01*
X025612Y028028D01*
X025672Y028001D01*
X025730Y027970D01*
X025786Y027935D01*
X025840Y027897D01*
X025891Y027856D01*
X025940Y027812D01*
X025986Y027765D01*
X026030Y027716D01*
X026070Y027664D01*
X026107Y027609D01*
X026141Y027553D01*
X026171Y027494D01*
X026198Y027434D01*
X026221Y027373D01*
X026240Y027310D01*
X026256Y027246D01*
X026268Y027181D01*
X026276Y027116D01*
X026280Y027050D01*
X026280Y026984D01*
X026276Y026918D01*
X026268Y026853D01*
X026256Y026788D01*
X026240Y026724D01*
X026221Y026661D01*
X026198Y026600D01*
X026171Y026540D01*
X026141Y026481D01*
X026107Y026425D01*
X026070Y026370D01*
X026030Y026318D01*
X025986Y026269D01*
X025940Y026222D01*
X025891Y026178D01*
X025840Y026137D01*
X025786Y026099D01*
X025730Y026064D01*
X025672Y026033D01*
X025612Y026006D01*
X025551Y025981D01*
X025488Y025961D01*
X025425Y025945D01*
X025360Y025932D01*
X025295Y025923D01*
X025229Y025918D01*
X025164Y025917D01*
X025098Y025920D01*
X025032Y025927D01*
X024967Y025938D01*
X024903Y025952D01*
X024840Y025971D01*
X024778Y025993D01*
X024718Y026019D01*
X024659Y026048D01*
X024602Y026081D01*
X024547Y026118D01*
X024494Y026157D01*
X024444Y026200D01*
X024396Y026245D01*
X024352Y026293D01*
X024310Y026344D01*
X024271Y026397D01*
X024236Y026453D01*
X024204Y026510D01*
X024175Y026570D01*
X024150Y026630D01*
X024129Y026693D01*
X024111Y026756D01*
X024098Y026821D01*
X024088Y026886D01*
X024082Y026951D01*
X024080Y027017D01*
X025480Y028517D02*
X025880Y028517D01*
X025906Y028519D01*
X025932Y028524D01*
X025957Y028532D01*
X025980Y028544D01*
X026002Y028558D01*
X026021Y028576D01*
X026039Y028595D01*
X026053Y028617D01*
X026065Y028640D01*
X026073Y028665D01*
X026078Y028691D01*
X026080Y028717D01*
X026080Y033317D01*
X026078Y033343D01*
X026073Y033369D01*
X026065Y033394D01*
X026053Y033417D01*
X026039Y033439D01*
X026021Y033458D01*
X026002Y033476D01*
X025980Y033490D01*
X025957Y033502D01*
X025932Y033510D01*
X025906Y033515D01*
X025880Y033517D01*
X025480Y033517D01*
X025454Y033515D01*
X025428Y033510D01*
X025403Y033502D01*
X025380Y033490D01*
X025358Y033476D01*
X025339Y033458D01*
X025321Y033439D01*
X025307Y033417D01*
X025295Y033394D01*
X025287Y033369D01*
X025282Y033343D01*
X025280Y033317D01*
X025280Y028717D01*
X025330Y028667D02*
X026030Y028667D01*
X026030Y029367D01*
X025330Y029367D01*
X025330Y028667D01*
X025280Y028717D02*
X025282Y028691D01*
X025287Y028665D01*
X025295Y028640D01*
X025307Y028617D01*
X025321Y028595D01*
X025339Y028576D01*
X025358Y028558D01*
X025380Y028544D01*
X025403Y028532D01*
X025428Y028524D01*
X025454Y028519D01*
X025480Y028517D01*
X027780Y028517D02*
X027780Y026517D01*
X028530Y026517D01*
X028532Y026556D01*
X028538Y026595D01*
X028547Y026633D01*
X028560Y026670D01*
X028577Y026706D01*
X028597Y026739D01*
X028621Y026771D01*
X028647Y026800D01*
X028676Y026826D01*
X028708Y026850D01*
X028741Y026870D01*
X028777Y026887D01*
X028814Y026900D01*
X028852Y026909D01*
X028891Y026915D01*
X028930Y026917D01*
X028969Y026915D01*
X029008Y026909D01*
X029046Y026900D01*
X029083Y026887D01*
X029119Y026870D01*
X029152Y026850D01*
X029184Y026826D01*
X029213Y026800D01*
X029239Y026771D01*
X029263Y026739D01*
X029283Y026706D01*
X029300Y026670D01*
X029313Y026633D01*
X029322Y026595D01*
X029328Y026556D01*
X029330Y026517D01*
X030080Y026517D01*
X030080Y028517D01*
X029330Y028517D01*
X029328Y028556D01*
X029322Y028595D01*
X029313Y028633D01*
X029300Y028670D01*
X029283Y028706D01*
X029263Y028739D01*
X029239Y028771D01*
X029213Y028800D01*
X029184Y028826D01*
X029152Y028850D01*
X029119Y028870D01*
X029083Y028887D01*
X029046Y028900D01*
X029008Y028909D01*
X028969Y028915D01*
X028930Y028917D01*
X028891Y028915D01*
X028852Y028909D01*
X028814Y028900D01*
X028777Y028887D01*
X028741Y028870D01*
X028708Y028850D01*
X028676Y028826D01*
X028647Y028800D01*
X028621Y028771D01*
X028597Y028739D01*
X028577Y028706D01*
X028560Y028670D01*
X028547Y028633D01*
X028538Y028595D01*
X028532Y028556D01*
X028530Y028517D01*
X027780Y028517D01*
X027780Y030517D01*
X028530Y030517D01*
X028532Y030556D01*
X028538Y030595D01*
X028547Y030633D01*
X028560Y030670D01*
X028577Y030706D01*
X028597Y030739D01*
X028621Y030771D01*
X028647Y030800D01*
X028676Y030826D01*
X028708Y030850D01*
X028741Y030870D01*
X028777Y030887D01*
X028814Y030900D01*
X028852Y030909D01*
X028891Y030915D01*
X028930Y030917D01*
X028969Y030915D01*
X029008Y030909D01*
X029046Y030900D01*
X029083Y030887D01*
X029119Y030870D01*
X029152Y030850D01*
X029184Y030826D01*
X029213Y030800D01*
X029239Y030771D01*
X029263Y030739D01*
X029283Y030706D01*
X029300Y030670D01*
X029313Y030633D01*
X029322Y030595D01*
X029328Y030556D01*
X029330Y030517D01*
X030080Y030517D01*
X030080Y032517D01*
X029330Y032517D01*
X029328Y032556D01*
X029322Y032595D01*
X029313Y032633D01*
X029300Y032670D01*
X029283Y032706D01*
X029263Y032739D01*
X029239Y032771D01*
X029213Y032800D01*
X029184Y032826D01*
X029152Y032850D01*
X029119Y032870D01*
X029083Y032887D01*
X029046Y032900D01*
X029008Y032909D01*
X028969Y032915D01*
X028930Y032917D01*
X028891Y032915D01*
X028852Y032909D01*
X028814Y032900D01*
X028777Y032887D01*
X028741Y032870D01*
X028708Y032850D01*
X028676Y032826D01*
X028647Y032800D01*
X028621Y032771D01*
X028597Y032739D01*
X028577Y032706D01*
X028560Y032670D01*
X028547Y032633D01*
X028538Y032595D01*
X028532Y032556D01*
X028530Y032517D01*
X027780Y032517D01*
X027780Y034517D01*
X030080Y034517D01*
X030080Y032517D01*
X027780Y032517D01*
X027780Y030517D01*
X030080Y030517D01*
X030080Y028517D01*
X027780Y028517D01*
X028030Y025717D02*
X029330Y025717D01*
X029356Y025715D01*
X029382Y025710D01*
X029407Y025702D01*
X029430Y025690D01*
X029452Y025676D01*
X029471Y025658D01*
X029489Y025639D01*
X029503Y025617D01*
X029515Y025594D01*
X029523Y025569D01*
X029528Y025543D01*
X029530Y025517D01*
X029530Y025017D01*
X029528Y024991D01*
X029523Y024965D01*
X029515Y024940D01*
X029503Y024917D01*
X029489Y024895D01*
X029471Y024876D01*
X029452Y024858D01*
X029430Y024844D01*
X029407Y024832D01*
X029382Y024824D01*
X029356Y024819D01*
X029330Y024817D01*
X028030Y024817D01*
X028004Y024819D01*
X027978Y024824D01*
X027953Y024832D01*
X027930Y024844D01*
X027908Y024858D01*
X027889Y024876D01*
X027871Y024895D01*
X027857Y024917D01*
X027845Y024940D01*
X027837Y024965D01*
X027832Y024991D01*
X027830Y025017D01*
X027830Y025517D01*
X027832Y025543D01*
X027837Y025569D01*
X027845Y025594D01*
X027857Y025617D01*
X027871Y025639D01*
X027889Y025658D01*
X027908Y025676D01*
X027930Y025690D01*
X027953Y025702D01*
X027978Y025710D01*
X028004Y025715D01*
X028030Y025717D01*
X027530Y025517D02*
X027530Y025017D01*
X027528Y024991D01*
X027523Y024965D01*
X027515Y024940D01*
X027503Y024917D01*
X027489Y024895D01*
X027471Y024876D01*
X027452Y024858D01*
X027430Y024844D01*
X027407Y024832D01*
X027382Y024824D01*
X027356Y024819D01*
X027330Y024817D01*
X026030Y024817D01*
X026004Y024819D01*
X025978Y024824D01*
X025953Y024832D01*
X025930Y024844D01*
X025908Y024858D01*
X025889Y024876D01*
X025871Y024895D01*
X025857Y024917D01*
X025845Y024940D01*
X025837Y024965D01*
X025832Y024991D01*
X025830Y025017D01*
X025830Y025517D01*
X025832Y025543D01*
X025837Y025569D01*
X025845Y025594D01*
X025857Y025617D01*
X025871Y025639D01*
X025889Y025658D01*
X025908Y025676D01*
X025930Y025690D01*
X025953Y025702D01*
X025978Y025710D01*
X026004Y025715D01*
X026030Y025717D01*
X027330Y025717D01*
X027356Y025715D01*
X027382Y025710D01*
X027407Y025702D01*
X027430Y025690D01*
X027452Y025676D01*
X027471Y025658D01*
X027489Y025639D01*
X027503Y025617D01*
X027515Y025594D01*
X027523Y025569D01*
X027528Y025543D01*
X027530Y025517D01*
X025630Y024167D02*
X025630Y022867D01*
X025628Y022841D01*
X025623Y022815D01*
X025615Y022790D01*
X025603Y022767D01*
X025589Y022745D01*
X025571Y022726D01*
X025552Y022708D01*
X025530Y022694D01*
X025507Y022682D01*
X025482Y022674D01*
X025456Y022669D01*
X025430Y022667D01*
X024930Y022667D01*
X024904Y022669D01*
X024878Y022674D01*
X024853Y022682D01*
X024830Y022694D01*
X024808Y022708D01*
X024789Y022726D01*
X024771Y022745D01*
X024757Y022767D01*
X024745Y022790D01*
X024737Y022815D01*
X024732Y022841D01*
X024730Y022867D01*
X024730Y024167D01*
X024732Y024193D01*
X024737Y024219D01*
X024745Y024244D01*
X024757Y024267D01*
X024771Y024289D01*
X024789Y024308D01*
X024808Y024326D01*
X024830Y024340D01*
X024853Y024352D01*
X024878Y024360D01*
X024904Y024365D01*
X024930Y024367D01*
X025430Y024367D01*
X025456Y024365D01*
X025482Y024360D01*
X025507Y024352D01*
X025530Y024340D01*
X025552Y024326D01*
X025571Y024308D01*
X025589Y024289D01*
X025603Y024267D01*
X025615Y024244D01*
X025623Y024219D01*
X025628Y024193D01*
X025630Y024167D01*
X026064Y023651D02*
X026064Y022901D01*
X026103Y022899D01*
X026142Y022893D01*
X026180Y022884D01*
X026217Y022871D01*
X026253Y022854D01*
X026286Y022834D01*
X026318Y022810D01*
X026347Y022784D01*
X026373Y022755D01*
X026397Y022723D01*
X026417Y022690D01*
X026434Y022654D01*
X026447Y022617D01*
X026456Y022579D01*
X026462Y022540D01*
X026464Y022501D01*
X026462Y022462D01*
X026456Y022423D01*
X026447Y022385D01*
X026434Y022348D01*
X026417Y022312D01*
X026397Y022279D01*
X026373Y022247D01*
X026347Y022218D01*
X026318Y022192D01*
X026286Y022168D01*
X026253Y022148D01*
X026217Y022131D01*
X026180Y022118D01*
X026142Y022109D01*
X026103Y022103D01*
X026064Y022101D01*
X026064Y021351D01*
X033064Y021351D01*
X033064Y023651D01*
X026064Y023651D01*
X024380Y024517D02*
X024380Y024667D01*
X024378Y024684D01*
X024374Y024701D01*
X024367Y024717D01*
X024357Y024731D01*
X024344Y024744D01*
X024330Y024754D01*
X024314Y024761D01*
X024297Y024765D01*
X024280Y024767D01*
X023580Y024767D01*
X023563Y024765D01*
X023546Y024761D01*
X023530Y024754D01*
X023516Y024744D01*
X023503Y024731D01*
X023493Y024717D01*
X023486Y024701D01*
X023482Y024684D01*
X023480Y024667D01*
X023480Y024517D01*
X023530Y024467D01*
X023530Y022567D01*
X023480Y022517D01*
X023480Y022367D01*
X023482Y022350D01*
X023486Y022333D01*
X023493Y022317D01*
X023503Y022303D01*
X023516Y022290D01*
X023530Y022280D01*
X023546Y022273D01*
X023563Y022269D01*
X023580Y022267D01*
X024280Y022267D01*
X024297Y022269D01*
X024314Y022273D01*
X024330Y022280D01*
X024344Y022290D01*
X024357Y022303D01*
X024367Y022317D01*
X024374Y022333D01*
X024378Y022350D01*
X024380Y022367D01*
X024380Y022517D01*
X024330Y022567D01*
X024330Y024467D01*
X024380Y024517D01*
X023180Y024667D02*
X023180Y023917D01*
X023141Y023915D01*
X023102Y023909D01*
X023064Y023900D01*
X023027Y023887D01*
X022991Y023870D01*
X022958Y023850D01*
X022926Y023826D01*
X022897Y023800D01*
X022871Y023771D01*
X022847Y023739D01*
X022827Y023706D01*
X022810Y023670D01*
X022797Y023633D01*
X022788Y023595D01*
X022782Y023556D01*
X022780Y023517D01*
X022782Y023478D01*
X022788Y023439D01*
X022797Y023401D01*
X022810Y023364D01*
X022827Y023328D01*
X022847Y023295D01*
X022871Y023263D01*
X022897Y023234D01*
X022926Y023208D01*
X022958Y023184D01*
X022991Y023164D01*
X023027Y023147D01*
X023064Y023134D01*
X023102Y023125D01*
X023141Y023119D01*
X023180Y023117D01*
X023180Y022367D01*
X021180Y022367D01*
X021180Y024667D01*
X023180Y024667D01*
X021180Y024667D02*
X021180Y023917D01*
X021141Y023915D01*
X021102Y023909D01*
X021064Y023900D01*
X021027Y023887D01*
X020991Y023870D01*
X020958Y023850D01*
X020926Y023826D01*
X020897Y023800D01*
X020871Y023771D01*
X020847Y023739D01*
X020827Y023706D01*
X020810Y023670D01*
X020797Y023633D01*
X020788Y023595D01*
X020782Y023556D01*
X020780Y023517D01*
X020782Y023478D01*
X020788Y023439D01*
X020797Y023401D01*
X020810Y023364D01*
X020827Y023328D01*
X020847Y023295D01*
X020871Y023263D01*
X020897Y023234D01*
X020926Y023208D01*
X020958Y023184D01*
X020991Y023164D01*
X021027Y023147D01*
X021064Y023134D01*
X021102Y023125D01*
X021141Y023119D01*
X021180Y023117D01*
X021180Y022367D01*
X019180Y022367D01*
X019180Y023117D01*
X019141Y023119D01*
X019102Y023125D01*
X019064Y023134D01*
X019027Y023147D01*
X018991Y023164D01*
X018958Y023184D01*
X018926Y023208D01*
X018897Y023234D01*
X018871Y023263D01*
X018847Y023295D01*
X018827Y023328D01*
X018810Y023364D01*
X018797Y023401D01*
X018788Y023439D01*
X018782Y023478D01*
X018780Y023517D01*
X018782Y023556D01*
X018788Y023595D01*
X018797Y023633D01*
X018810Y023670D01*
X018827Y023706D01*
X018847Y023739D01*
X018871Y023771D01*
X018897Y023800D01*
X018926Y023826D01*
X018958Y023850D01*
X018991Y023870D01*
X019027Y023887D01*
X019064Y023900D01*
X019102Y023909D01*
X019141Y023915D01*
X019180Y023917D01*
X019180Y024667D01*
X017180Y024667D01*
X017180Y022367D01*
X019180Y022367D01*
X019180Y024667D01*
X021180Y024667D01*
X017180Y024667D02*
X017180Y023917D01*
X017141Y023915D01*
X017102Y023909D01*
X017064Y023900D01*
X017027Y023887D01*
X016991Y023870D01*
X016958Y023850D01*
X016926Y023826D01*
X016897Y023800D01*
X016871Y023771D01*
X016847Y023739D01*
X016827Y023706D01*
X016810Y023670D01*
X016797Y023633D01*
X016788Y023595D01*
X016782Y023556D01*
X016780Y023517D01*
X016782Y023478D01*
X016788Y023439D01*
X016797Y023401D01*
X016810Y023364D01*
X016827Y023328D01*
X016847Y023295D01*
X016871Y023263D01*
X016897Y023234D01*
X016926Y023208D01*
X016958Y023184D01*
X016991Y023164D01*
X017027Y023147D01*
X017064Y023134D01*
X017102Y023125D01*
X017141Y023119D01*
X017180Y023117D01*
X017180Y022367D01*
X015180Y022367D01*
X015180Y024667D01*
X017180Y024667D01*
X014630Y024417D02*
X014630Y024267D01*
X014580Y024217D01*
X014580Y022317D01*
X014630Y022267D01*
X014630Y022117D01*
X014628Y022100D01*
X014624Y022083D01*
X014617Y022067D01*
X014607Y022053D01*
X014594Y022040D01*
X014580Y022030D01*
X014564Y022023D01*
X014547Y022019D01*
X014530Y022017D01*
X013830Y022017D01*
X013813Y022019D01*
X013796Y022023D01*
X013780Y022030D01*
X013766Y022040D01*
X013753Y022053D01*
X013743Y022067D01*
X013736Y022083D01*
X013732Y022100D01*
X013730Y022117D01*
X013730Y022267D01*
X013780Y022317D01*
X013780Y024217D01*
X013730Y024267D01*
X013730Y024417D01*
X013732Y024434D01*
X013736Y024451D01*
X013743Y024467D01*
X013753Y024481D01*
X013766Y024494D01*
X013780Y024504D01*
X013796Y024511D01*
X013813Y024515D01*
X013830Y024517D01*
X014530Y024517D01*
X014547Y024515D01*
X014564Y024511D01*
X014580Y024504D01*
X014594Y024494D01*
X014607Y024481D01*
X014617Y024467D01*
X014624Y024451D01*
X014628Y024434D01*
X014630Y024417D01*
X013630Y024417D02*
X013630Y024267D01*
X013580Y024217D01*
X013580Y022317D01*
X013630Y022267D01*
X013630Y022117D01*
X013628Y022100D01*
X013624Y022083D01*
X013617Y022067D01*
X013607Y022053D01*
X013594Y022040D01*
X013580Y022030D01*
X013564Y022023D01*
X013547Y022019D01*
X013530Y022017D01*
X012830Y022017D01*
X012813Y022019D01*
X012796Y022023D01*
X012780Y022030D01*
X012766Y022040D01*
X012753Y022053D01*
X012743Y022067D01*
X012736Y022083D01*
X012732Y022100D01*
X012730Y022117D01*
X012730Y022267D01*
X012780Y022317D01*
X012780Y024217D01*
X012730Y024267D01*
X012730Y024417D01*
X012732Y024434D01*
X012736Y024451D01*
X012743Y024467D01*
X012753Y024481D01*
X012766Y024494D01*
X012780Y024504D01*
X012796Y024511D01*
X012813Y024515D01*
X012830Y024517D01*
X013530Y024517D01*
X013547Y024515D01*
X013564Y024511D01*
X013580Y024504D01*
X013594Y024494D01*
X013607Y024481D01*
X013617Y024467D01*
X013624Y024451D01*
X013628Y024434D01*
X013630Y024417D01*
X012630Y024417D02*
X012630Y024267D01*
X012580Y024217D01*
X012580Y022317D01*
X012630Y022267D01*
X012630Y022117D01*
X012628Y022100D01*
X012624Y022083D01*
X012617Y022067D01*
X012607Y022053D01*
X012594Y022040D01*
X012580Y022030D01*
X012564Y022023D01*
X012547Y022019D01*
X012530Y022017D01*
X011830Y022017D01*
X011813Y022019D01*
X011796Y022023D01*
X011780Y022030D01*
X011766Y022040D01*
X011753Y022053D01*
X011743Y022067D01*
X011736Y022083D01*
X011732Y022100D01*
X011730Y022117D01*
X011730Y022267D01*
X011780Y022317D01*
X011780Y024217D01*
X011730Y024267D01*
X011730Y024417D01*
X011732Y024434D01*
X011736Y024451D01*
X011743Y024467D01*
X011753Y024481D01*
X011766Y024494D01*
X011780Y024504D01*
X011796Y024511D01*
X011813Y024515D01*
X011830Y024517D01*
X012530Y024517D01*
X012547Y024515D01*
X012564Y024511D01*
X012580Y024504D01*
X012594Y024494D01*
X012607Y024481D01*
X012617Y024467D01*
X012624Y024451D01*
X012628Y024434D01*
X012630Y024417D01*
X009830Y025767D02*
X007530Y025767D01*
X007530Y015767D01*
X008280Y015767D01*
X008030Y015467D02*
X009330Y015467D01*
X009356Y015465D01*
X009382Y015460D01*
X009407Y015452D01*
X009430Y015440D01*
X009452Y015426D01*
X009471Y015408D01*
X009489Y015389D01*
X009503Y015367D01*
X009515Y015344D01*
X009523Y015319D01*
X009528Y015293D01*
X009530Y015267D01*
X009530Y014767D01*
X009528Y014741D01*
X009523Y014715D01*
X009515Y014690D01*
X009503Y014667D01*
X009489Y014645D01*
X009471Y014626D01*
X009452Y014608D01*
X009430Y014594D01*
X009407Y014582D01*
X009382Y014574D01*
X009356Y014569D01*
X009330Y014567D01*
X008030Y014567D01*
X008004Y014569D01*
X007978Y014574D01*
X007953Y014582D01*
X007930Y014594D01*
X007908Y014608D01*
X007889Y014626D01*
X007871Y014645D01*
X007857Y014667D01*
X007845Y014690D01*
X007837Y014715D01*
X007832Y014741D01*
X007830Y014767D01*
X007830Y015267D01*
X007832Y015293D01*
X007837Y015319D01*
X007845Y015344D01*
X007857Y015367D01*
X007871Y015389D01*
X007889Y015408D01*
X007908Y015426D01*
X007930Y015440D01*
X007953Y015452D01*
X007978Y015460D01*
X008004Y015465D01*
X008030Y015467D01*
X008280Y015767D02*
X008282Y015806D01*
X008288Y015845D01*
X008297Y015883D01*
X008310Y015920D01*
X008327Y015956D01*
X008347Y015989D01*
X008371Y016021D01*
X008397Y016050D01*
X008426Y016076D01*
X008458Y016100D01*
X008491Y016120D01*
X008527Y016137D01*
X008564Y016150D01*
X008602Y016159D01*
X008641Y016165D01*
X008680Y016167D01*
X008719Y016165D01*
X008758Y016159D01*
X008796Y016150D01*
X008833Y016137D01*
X008869Y016120D01*
X008902Y016100D01*
X008934Y016076D01*
X008963Y016050D01*
X008989Y016021D01*
X009013Y015989D01*
X009033Y015956D01*
X009050Y015920D01*
X009063Y015883D01*
X009072Y015845D01*
X009078Y015806D01*
X009080Y015767D01*
X009830Y015767D01*
X009830Y025767D01*
X006280Y025267D02*
X006280Y024767D01*
X006180Y024767D01*
X006180Y022017D01*
X006280Y022017D01*
X006280Y021517D01*
X006180Y021517D01*
X006180Y018767D01*
X006280Y018767D01*
X006280Y018267D01*
X006180Y018267D01*
X006180Y017767D01*
X002680Y017767D01*
X002680Y019617D01*
X002880Y019767D01*
X002880Y019967D01*
X002880Y020567D01*
X002880Y020767D01*
X002680Y020917D01*
X002680Y020967D01*
X003080Y020967D01*
X003180Y020967D01*
X003180Y020567D01*
X003180Y019967D01*
X003080Y019967D01*
X002880Y019967D01*
X003180Y019967D02*
X003180Y018267D01*
X005680Y018267D01*
X005680Y025267D01*
X003180Y025267D01*
X003180Y022567D01*
X003080Y022567D01*
X002680Y022567D01*
X002680Y023517D01*
X002730Y023517D01*
X002730Y024017D01*
X002680Y024017D01*
X002680Y025767D01*
X006180Y025767D01*
X006180Y025267D01*
X006280Y025267D01*
X003480Y022567D02*
X003180Y022567D01*
X003480Y022567D02*
X003480Y020967D01*
X003180Y020967D01*
X003180Y020567D02*
X003080Y020567D01*
X002880Y020567D01*
X002680Y020967D02*
X002680Y022567D01*
X001863Y027025D02*
X001863Y017009D01*
X001794Y016011D02*
X001794Y005995D01*
X002680Y006517D02*
X006180Y006517D01*
X006180Y007017D01*
X006280Y007017D01*
X006280Y007517D01*
X006180Y007517D01*
X006180Y010267D01*
X006280Y010267D01*
X006280Y010767D01*
X006180Y010767D01*
X006180Y013517D01*
X006280Y013517D01*
X006280Y014017D01*
X006180Y014017D01*
X006180Y014517D01*
X002680Y014517D01*
X002680Y012767D01*
X002730Y012767D01*
X002730Y012267D01*
X002680Y012267D01*
X002680Y011317D01*
X003080Y011317D01*
X003180Y011317D01*
X003180Y014017D01*
X005680Y014017D01*
X005680Y007017D01*
X003180Y007017D01*
X003180Y008717D01*
X003180Y009317D01*
X003180Y009717D01*
X003080Y009717D01*
X002680Y009717D01*
X002680Y011317D01*
X003180Y011317D02*
X003480Y011317D01*
X003480Y009717D01*
X003180Y009717D01*
X002880Y009517D02*
X002880Y009317D01*
X002880Y008717D01*
X003080Y008717D01*
X003180Y008717D01*
X002880Y008717D02*
X002880Y008517D01*
X002680Y008367D01*
X002680Y006517D01*
X004980Y005167D02*
X004980Y003867D01*
X004982Y003841D01*
X004987Y003815D01*
X004995Y003790D01*
X005007Y003767D01*
X005021Y003745D01*
X005039Y003726D01*
X005058Y003708D01*
X005080Y003694D01*
X005103Y003682D01*
X005128Y003674D01*
X005154Y003669D01*
X005180Y003667D01*
X005680Y003667D01*
X005706Y003669D01*
X005732Y003674D01*
X005757Y003682D01*
X005780Y003694D01*
X005802Y003708D01*
X005821Y003726D01*
X005839Y003745D01*
X005853Y003767D01*
X005865Y003790D01*
X005873Y003815D01*
X005878Y003841D01*
X005880Y003867D01*
X005880Y005167D01*
X005878Y005193D01*
X005873Y005219D01*
X005865Y005244D01*
X005853Y005267D01*
X005839Y005289D01*
X005821Y005308D01*
X005802Y005326D01*
X005780Y005340D01*
X005757Y005352D01*
X005732Y005360D01*
X005706Y005365D01*
X005680Y005367D01*
X005180Y005367D01*
X005154Y005365D01*
X005128Y005360D01*
X005103Y005352D01*
X005080Y005340D01*
X005058Y005326D01*
X005039Y005308D01*
X005021Y005289D01*
X005007Y005267D01*
X004995Y005244D01*
X004987Y005219D01*
X004982Y005193D01*
X004980Y005167D01*
X001586Y003523D02*
X001588Y003596D01*
X001594Y003669D01*
X001604Y003741D01*
X001618Y003813D01*
X001635Y003884D01*
X001657Y003954D01*
X001682Y004023D01*
X001711Y004090D01*
X001743Y004155D01*
X001779Y004219D01*
X001819Y004281D01*
X001861Y004340D01*
X001907Y004397D01*
X001956Y004451D01*
X002008Y004503D01*
X002062Y004552D01*
X002119Y004598D01*
X002178Y004640D01*
X002240Y004680D01*
X002304Y004716D01*
X002369Y004748D01*
X002436Y004777D01*
X002505Y004802D01*
X002575Y004824D01*
X002646Y004841D01*
X002718Y004855D01*
X002790Y004865D01*
X002863Y004871D01*
X002936Y004873D01*
X003009Y004871D01*
X003082Y004865D01*
X003154Y004855D01*
X003226Y004841D01*
X003297Y004824D01*
X003367Y004802D01*
X003436Y004777D01*
X003503Y004748D01*
X003568Y004716D01*
X003632Y004680D01*
X003694Y004640D01*
X003753Y004598D01*
X003810Y004552D01*
X003864Y004503D01*
X003916Y004451D01*
X003965Y004397D01*
X004011Y004340D01*
X004053Y004281D01*
X004093Y004219D01*
X004129Y004155D01*
X004161Y004090D01*
X004190Y004023D01*
X004215Y003954D01*
X004237Y003884D01*
X004254Y003813D01*
X004268Y003741D01*
X004278Y003669D01*
X004284Y003596D01*
X004286Y003523D01*
X004284Y003450D01*
X004278Y003377D01*
X004268Y003305D01*
X004254Y003233D01*
X004237Y003162D01*
X004215Y003092D01*
X004190Y003023D01*
X004161Y002956D01*
X004129Y002891D01*
X004093Y002827D01*
X004053Y002765D01*
X004011Y002706D01*
X003965Y002649D01*
X003916Y002595D01*
X003864Y002543D01*
X003810Y002494D01*
X003753Y002448D01*
X003694Y002406D01*
X003632Y002366D01*
X003568Y002330D01*
X003503Y002298D01*
X003436Y002269D01*
X003367Y002244D01*
X003297Y002222D01*
X003226Y002205D01*
X003154Y002191D01*
X003082Y002181D01*
X003009Y002175D01*
X002936Y002173D01*
X002863Y002175D01*
X002790Y002181D01*
X002718Y002191D01*
X002646Y002205D01*
X002575Y002222D01*
X002505Y002244D01*
X002436Y002269D01*
X002369Y002298D01*
X002304Y002330D01*
X002240Y002366D01*
X002178Y002406D01*
X002119Y002448D01*
X002062Y002494D01*
X002008Y002543D01*
X001956Y002595D01*
X001907Y002649D01*
X001861Y002706D01*
X001819Y002765D01*
X001779Y002827D01*
X001743Y002891D01*
X001711Y002956D01*
X001682Y003023D01*
X001657Y003092D01*
X001635Y003162D01*
X001618Y003233D01*
X001604Y003305D01*
X001594Y003377D01*
X001588Y003450D01*
X001586Y003523D01*
X002880Y009317D02*
X003080Y009317D01*
X003180Y009317D01*
X002880Y009517D02*
X002680Y009667D01*
X002680Y009717D01*
X003780Y014817D02*
X005080Y014817D01*
X005106Y014819D01*
X005132Y014824D01*
X005157Y014832D01*
X005180Y014844D01*
X005202Y014858D01*
X005221Y014876D01*
X005239Y014895D01*
X005253Y014917D01*
X005265Y014940D01*
X005273Y014965D01*
X005278Y014991D01*
X005280Y015017D01*
X005280Y015517D01*
X005278Y015543D01*
X005273Y015569D01*
X005265Y015594D01*
X005253Y015617D01*
X005239Y015639D01*
X005221Y015658D01*
X005202Y015676D01*
X005180Y015690D01*
X005157Y015702D01*
X005132Y015710D01*
X005106Y015715D01*
X005080Y015717D01*
X003780Y015717D01*
X003754Y015715D01*
X003728Y015710D01*
X003703Y015702D01*
X003680Y015690D01*
X003658Y015676D01*
X003639Y015658D01*
X003621Y015639D01*
X003607Y015617D01*
X003595Y015594D01*
X003587Y015569D01*
X003582Y015543D01*
X003580Y015517D01*
X003580Y015017D01*
X003582Y014991D01*
X003587Y014965D01*
X003595Y014940D01*
X003607Y014917D01*
X003621Y014895D01*
X003639Y014876D01*
X003658Y014858D01*
X003680Y014844D01*
X003703Y014832D01*
X003728Y014824D01*
X003754Y014819D01*
X003780Y014817D01*
X003780Y016567D02*
X005080Y016567D01*
X005106Y016569D01*
X005132Y016574D01*
X005157Y016582D01*
X005180Y016594D01*
X005202Y016608D01*
X005221Y016626D01*
X005239Y016645D01*
X005253Y016667D01*
X005265Y016690D01*
X005273Y016715D01*
X005278Y016741D01*
X005280Y016767D01*
X005280Y017267D01*
X005278Y017293D01*
X005273Y017319D01*
X005265Y017344D01*
X005253Y017367D01*
X005239Y017389D01*
X005221Y017408D01*
X005202Y017426D01*
X005180Y017440D01*
X005157Y017452D01*
X005132Y017460D01*
X005106Y017465D01*
X005080Y017467D01*
X003780Y017467D01*
X003754Y017465D01*
X003728Y017460D01*
X003703Y017452D01*
X003680Y017440D01*
X003658Y017426D01*
X003639Y017408D01*
X003621Y017389D01*
X003607Y017367D01*
X003595Y017344D01*
X003587Y017319D01*
X003582Y017293D01*
X003580Y017267D01*
X003580Y016767D01*
X003582Y016741D01*
X003587Y016715D01*
X003595Y016690D01*
X003607Y016667D01*
X003621Y016645D01*
X003639Y016626D01*
X003658Y016608D01*
X003680Y016594D01*
X003703Y016582D01*
X003728Y016574D01*
X003754Y016569D01*
X003780Y016567D01*
X007830Y013517D02*
X007830Y013017D01*
X007832Y012991D01*
X007837Y012965D01*
X007845Y012940D01*
X007857Y012917D01*
X007871Y012895D01*
X007889Y012876D01*
X007908Y012858D01*
X007930Y012844D01*
X007953Y012832D01*
X007978Y012824D01*
X008004Y012819D01*
X008030Y012817D01*
X009330Y012817D01*
X009356Y012819D01*
X009382Y012824D01*
X009407Y012832D01*
X009430Y012844D01*
X009452Y012858D01*
X009471Y012876D01*
X009489Y012895D01*
X009503Y012917D01*
X009515Y012940D01*
X009523Y012965D01*
X009528Y012991D01*
X009530Y013017D01*
X009530Y013517D01*
X009528Y013543D01*
X009523Y013569D01*
X009515Y013594D01*
X009503Y013617D01*
X009489Y013639D01*
X009471Y013658D01*
X009452Y013676D01*
X009430Y013690D01*
X009407Y013702D01*
X009382Y013710D01*
X009356Y013715D01*
X009330Y013717D01*
X008030Y013717D01*
X008004Y013715D01*
X007978Y013710D01*
X007953Y013702D01*
X007930Y013690D01*
X007908Y013676D01*
X007889Y013658D01*
X007871Y013639D01*
X007857Y013617D01*
X007845Y013594D01*
X007837Y013569D01*
X007832Y013543D01*
X007830Y013517D01*
X007530Y012517D02*
X009830Y012517D01*
X009830Y002517D01*
X009080Y002517D01*
X009078Y002556D01*
X009072Y002595D01*
X009063Y002633D01*
X009050Y002670D01*
X009033Y002706D01*
X009013Y002739D01*
X008989Y002771D01*
X008963Y002800D01*
X008934Y002826D01*
X008902Y002850D01*
X008869Y002870D01*
X008833Y002887D01*
X008796Y002900D01*
X008758Y002909D01*
X008719Y002915D01*
X008680Y002917D01*
X008641Y002915D01*
X008602Y002909D01*
X008564Y002900D01*
X008527Y002887D01*
X008491Y002870D01*
X008458Y002850D01*
X008426Y002826D01*
X008397Y002800D01*
X008371Y002771D01*
X008347Y002739D01*
X008327Y002706D01*
X008310Y002670D01*
X008297Y002633D01*
X008288Y002595D01*
X008282Y002556D01*
X008280Y002517D01*
X007530Y002517D01*
X007530Y012517D01*
X012030Y012267D02*
X014330Y012267D01*
X014330Y020267D01*
X013580Y020267D01*
X013578Y020228D01*
X013572Y020189D01*
X013563Y020151D01*
X013550Y020114D01*
X013533Y020078D01*
X013513Y020045D01*
X013489Y020013D01*
X013463Y019984D01*
X013434Y019958D01*
X013402Y019934D01*
X013369Y019914D01*
X013333Y019897D01*
X013296Y019884D01*
X013258Y019875D01*
X013219Y019869D01*
X013180Y019867D01*
X013141Y019869D01*
X013102Y019875D01*
X013064Y019884D01*
X013027Y019897D01*
X012991Y019914D01*
X012958Y019934D01*
X012926Y019958D01*
X012897Y019984D01*
X012871Y020013D01*
X012847Y020045D01*
X012827Y020078D01*
X012810Y020114D01*
X012797Y020151D01*
X012788Y020189D01*
X012782Y020228D01*
X012780Y020267D01*
X012030Y020267D01*
X012030Y012267D01*
X012780Y011717D02*
X014080Y011717D01*
X014106Y011715D01*
X014132Y011710D01*
X014157Y011702D01*
X014180Y011690D01*
X014202Y011676D01*
X014221Y011658D01*
X014239Y011639D01*
X014253Y011617D01*
X014265Y011594D01*
X014273Y011569D01*
X014278Y011543D01*
X014280Y011517D01*
X014280Y011017D01*
X014278Y010991D01*
X014273Y010965D01*
X014265Y010940D01*
X014253Y010917D01*
X014239Y010895D01*
X014221Y010876D01*
X014202Y010858D01*
X014180Y010844D01*
X014157Y010832D01*
X014132Y010824D01*
X014106Y010819D01*
X014080Y010817D01*
X012780Y010817D01*
X012754Y010819D01*
X012728Y010824D01*
X012703Y010832D01*
X012680Y010844D01*
X012658Y010858D01*
X012639Y010876D01*
X012621Y010895D01*
X012607Y010917D01*
X012595Y010940D01*
X012587Y010965D01*
X012582Y010991D01*
X012580Y011017D01*
X012580Y011517D01*
X012582Y011543D01*
X012587Y011569D01*
X012595Y011594D01*
X012607Y011617D01*
X012621Y011639D01*
X012639Y011658D01*
X012658Y011676D01*
X012680Y011690D01*
X012703Y011702D01*
X012728Y011710D01*
X012754Y011715D01*
X012780Y011717D01*
X012780Y010517D02*
X012030Y010517D01*
X012030Y002517D01*
X014330Y002517D01*
X014330Y010517D01*
X013580Y010517D01*
X013578Y010478D01*
X013572Y010439D01*
X013563Y010401D01*
X013550Y010364D01*
X013533Y010328D01*
X013513Y010295D01*
X013489Y010263D01*
X013463Y010234D01*
X013434Y010208D01*
X013402Y010184D01*
X013369Y010164D01*
X013333Y010147D01*
X013296Y010134D01*
X013258Y010125D01*
X013219Y010119D01*
X013180Y010117D01*
X013141Y010119D01*
X013102Y010125D01*
X013064Y010134D01*
X013027Y010147D01*
X012991Y010164D01*
X012958Y010184D01*
X012926Y010208D01*
X012897Y010234D01*
X012871Y010263D01*
X012847Y010295D01*
X012827Y010328D01*
X012810Y010364D01*
X012797Y010401D01*
X012788Y010439D01*
X012782Y010478D01*
X012780Y010517D01*
X015830Y008517D02*
X015830Y008017D01*
X015832Y007991D01*
X015837Y007965D01*
X015845Y007940D01*
X015857Y007917D01*
X015871Y007895D01*
X015889Y007876D01*
X015908Y007858D01*
X015930Y007844D01*
X015953Y007832D01*
X015978Y007824D01*
X016004Y007819D01*
X016030Y007817D01*
X017330Y007817D01*
X017356Y007819D01*
X017382Y007824D01*
X017407Y007832D01*
X017430Y007844D01*
X017452Y007858D01*
X017471Y007876D01*
X017489Y007895D01*
X017503Y007917D01*
X017515Y007940D01*
X017523Y007965D01*
X017528Y007991D01*
X017530Y008017D01*
X017530Y008517D01*
X017528Y008543D01*
X017523Y008569D01*
X017515Y008594D01*
X017503Y008617D01*
X017489Y008639D01*
X017471Y008658D01*
X017452Y008676D01*
X017430Y008690D01*
X017407Y008702D01*
X017382Y008710D01*
X017356Y008715D01*
X017330Y008717D01*
X016030Y008717D01*
X016004Y008715D01*
X015978Y008710D01*
X015953Y008702D01*
X015930Y008690D01*
X015908Y008676D01*
X015889Y008658D01*
X015871Y008639D01*
X015857Y008617D01*
X015845Y008594D01*
X015837Y008569D01*
X015832Y008543D01*
X015830Y008517D01*
X016080Y009767D02*
X016082Y009812D01*
X016087Y009858D01*
X016095Y009902D01*
X016107Y009946D01*
X016123Y009989D01*
X016141Y010031D01*
X016163Y010071D01*
X016187Y010109D01*
X016214Y010145D01*
X016244Y010180D01*
X016277Y010211D01*
X016312Y010241D01*
X017280Y009767D02*
X017278Y009720D01*
X017272Y009672D01*
X017263Y009626D01*
X017250Y009580D01*
X017234Y009536D01*
X017213Y009492D01*
X017190Y009451D01*
X017164Y009412D01*
X017134Y009375D01*
X017101Y009340D01*
X017066Y009308D01*
X017029Y009279D01*
X017280Y009767D02*
X017278Y009813D01*
X017273Y009859D01*
X017264Y009905D01*
X017252Y009950D01*
X017236Y009993D01*
X017217Y010035D01*
X017194Y010076D01*
X017169Y010115D01*
X017141Y010151D01*
X017110Y010186D01*
X017076Y010218D01*
X017040Y010247D01*
X016080Y009767D02*
X016082Y009722D01*
X016087Y009676D01*
X016095Y009632D01*
X016107Y009588D01*
X016123Y009545D01*
X016141Y009503D01*
X016163Y009463D01*
X016187Y009425D01*
X016214Y009389D01*
X016244Y009354D01*
X016277Y009323D01*
X016312Y009293D01*
X017030Y011067D02*
X018330Y011067D01*
X018356Y011069D01*
X018382Y011074D01*
X018407Y011082D01*
X018430Y011094D01*
X018452Y011108D01*
X018471Y011126D01*
X018489Y011145D01*
X018503Y011167D01*
X018515Y011190D01*
X018523Y011215D01*
X018528Y011241D01*
X018530Y011267D01*
X018530Y011767D01*
X018528Y011793D01*
X018523Y011819D01*
X018515Y011844D01*
X018503Y011867D01*
X018489Y011889D01*
X018471Y011908D01*
X018452Y011926D01*
X018430Y011940D01*
X018407Y011952D01*
X018382Y011960D01*
X018356Y011965D01*
X018330Y011967D01*
X017030Y011967D01*
X017004Y011965D01*
X016978Y011960D01*
X016953Y011952D01*
X016930Y011940D01*
X016908Y011926D01*
X016889Y011908D01*
X016871Y011889D01*
X016857Y011867D01*
X016845Y011844D01*
X016837Y011819D01*
X016832Y011793D01*
X016830Y011767D01*
X016830Y011267D01*
X016832Y011241D01*
X016837Y011215D01*
X016845Y011190D01*
X016857Y011167D01*
X016871Y011145D01*
X016889Y011126D01*
X016908Y011108D01*
X016930Y011094D01*
X016953Y011082D01*
X016978Y011074D01*
X017004Y011069D01*
X017030Y011067D01*
X016530Y012267D02*
X018830Y012267D01*
X018830Y019267D01*
X018080Y019267D01*
X018078Y019228D01*
X018072Y019189D01*
X018063Y019151D01*
X018050Y019114D01*
X018033Y019078D01*
X018013Y019045D01*
X017989Y019013D01*
X017963Y018984D01*
X017934Y018958D01*
X017902Y018934D01*
X017869Y018914D01*
X017833Y018897D01*
X017796Y018884D01*
X017758Y018875D01*
X017719Y018869D01*
X017680Y018867D01*
X017641Y018869D01*
X017602Y018875D01*
X017564Y018884D01*
X017527Y018897D01*
X017491Y018914D01*
X017458Y018934D01*
X017426Y018958D01*
X017397Y018984D01*
X017371Y019013D01*
X017347Y019045D01*
X017327Y019078D01*
X017310Y019114D01*
X017297Y019151D01*
X017288Y019189D01*
X017282Y019228D01*
X017280Y019267D01*
X016530Y019267D01*
X016530Y012267D01*
X018730Y010667D02*
X018730Y010517D01*
X018780Y010467D01*
X018780Y008567D01*
X018730Y008517D01*
X018730Y008367D01*
X018732Y008350D01*
X018736Y008333D01*
X018743Y008317D01*
X018753Y008303D01*
X018766Y008290D01*
X018780Y008280D01*
X018796Y008273D01*
X018813Y008269D01*
X018830Y008267D01*
X019530Y008267D01*
X019547Y008269D01*
X019564Y008273D01*
X019580Y008280D01*
X019594Y008290D01*
X019607Y008303D01*
X019617Y008317D01*
X019624Y008333D01*
X019628Y008350D01*
X019630Y008367D01*
X019630Y008517D01*
X019580Y008567D01*
X019580Y010467D01*
X019630Y010517D01*
X019630Y010667D01*
X019628Y010684D01*
X019624Y010701D01*
X019617Y010717D01*
X019607Y010731D01*
X019594Y010744D01*
X019580Y010754D01*
X019564Y010761D01*
X019547Y010765D01*
X019530Y010767D01*
X018830Y010767D01*
X018813Y010765D01*
X018796Y010761D01*
X018780Y010754D01*
X018766Y010744D01*
X018753Y010731D01*
X018743Y010717D01*
X018736Y010701D01*
X018732Y010684D01*
X018730Y010667D01*
X020934Y010460D02*
X023234Y010460D01*
X023234Y002460D01*
X022484Y002460D01*
X022580Y002217D02*
X021280Y002217D01*
X021254Y002215D01*
X021228Y002210D01*
X021203Y002202D01*
X021180Y002190D01*
X021158Y002176D01*
X021139Y002158D01*
X021121Y002139D01*
X021107Y002117D01*
X021095Y002094D01*
X021087Y002069D01*
X021082Y002043D01*
X021080Y002017D01*
X021080Y001517D01*
X021082Y001491D01*
X021087Y001465D01*
X021095Y001440D01*
X021107Y001417D01*
X021121Y001395D01*
X021139Y001376D01*
X021158Y001358D01*
X021180Y001344D01*
X021203Y001332D01*
X021228Y001324D01*
X021254Y001319D01*
X021280Y001317D01*
X022580Y001317D01*
X022606Y001319D01*
X022632Y001324D01*
X022657Y001332D01*
X022680Y001344D01*
X022702Y001358D01*
X022721Y001376D01*
X022739Y001395D01*
X022753Y001417D01*
X022765Y001440D01*
X022773Y001465D01*
X022778Y001491D01*
X022780Y001517D01*
X022780Y002017D01*
X022778Y002043D01*
X022773Y002069D01*
X022765Y002094D01*
X022753Y002117D01*
X022739Y002139D01*
X022721Y002158D01*
X022702Y002176D01*
X022680Y002190D01*
X022657Y002202D01*
X022632Y002210D01*
X022606Y002215D01*
X022580Y002217D01*
X022484Y002460D02*
X022482Y002499D01*
X022476Y002538D01*
X022467Y002576D01*
X022454Y002613D01*
X022437Y002649D01*
X022417Y002682D01*
X022393Y002714D01*
X022367Y002743D01*
X022338Y002769D01*
X022306Y002793D01*
X022273Y002813D01*
X022237Y002830D01*
X022200Y002843D01*
X022162Y002852D01*
X022123Y002858D01*
X022084Y002860D01*
X022045Y002858D01*
X022006Y002852D01*
X021968Y002843D01*
X021931Y002830D01*
X021895Y002813D01*
X021862Y002793D01*
X021830Y002769D01*
X021801Y002743D01*
X021775Y002714D01*
X021751Y002682D01*
X021731Y002649D01*
X021714Y002613D01*
X021701Y002576D01*
X021692Y002538D01*
X021686Y002499D01*
X021684Y002460D01*
X020934Y002460D01*
X020934Y010460D01*
X021280Y010817D02*
X022580Y010817D01*
X022606Y010819D01*
X022632Y010824D01*
X022657Y010832D01*
X022680Y010844D01*
X022702Y010858D01*
X022721Y010876D01*
X022739Y010895D01*
X022753Y010917D01*
X022765Y010940D01*
X022773Y010965D01*
X022778Y010991D01*
X022780Y011017D01*
X022780Y011517D01*
X022778Y011543D01*
X022773Y011569D01*
X022765Y011594D01*
X022753Y011617D01*
X022739Y011639D01*
X022721Y011658D01*
X022702Y011676D01*
X022680Y011690D01*
X022657Y011702D01*
X022632Y011710D01*
X022606Y011715D01*
X022580Y011717D01*
X021280Y011717D01*
X021254Y011715D01*
X021228Y011710D01*
X021203Y011702D01*
X021180Y011690D01*
X021158Y011676D01*
X021139Y011658D01*
X021121Y011639D01*
X021107Y011617D01*
X021095Y011594D01*
X021087Y011569D01*
X021082Y011543D01*
X021080Y011517D01*
X021080Y011017D01*
X021082Y010991D01*
X021087Y010965D01*
X021095Y010940D01*
X021107Y010917D01*
X021121Y010895D01*
X021139Y010876D01*
X021158Y010858D01*
X021180Y010844D01*
X021203Y010832D01*
X021228Y010824D01*
X021254Y010819D01*
X021280Y010817D01*
X021030Y012267D02*
X021780Y012267D01*
X021782Y012306D01*
X021788Y012345D01*
X021797Y012383D01*
X021810Y012420D01*
X021827Y012456D01*
X021847Y012489D01*
X021871Y012521D01*
X021897Y012550D01*
X021926Y012576D01*
X021958Y012600D01*
X021991Y012620D01*
X022027Y012637D01*
X022064Y012650D01*
X022102Y012659D01*
X022141Y012665D01*
X022180Y012667D01*
X022219Y012665D01*
X022258Y012659D01*
X022296Y012650D01*
X022333Y012637D01*
X022369Y012620D01*
X022402Y012600D01*
X022434Y012576D01*
X022463Y012550D01*
X022489Y012521D01*
X022513Y012489D01*
X022533Y012456D01*
X022550Y012420D01*
X022563Y012383D01*
X022572Y012345D01*
X022578Y012306D01*
X022580Y012267D01*
X023330Y012267D01*
X023330Y020267D01*
X021030Y020267D01*
X021030Y012267D01*
X024833Y012301D02*
X024833Y020901D01*
X024835Y020927D01*
X024840Y020953D01*
X024848Y020978D01*
X024860Y021001D01*
X024874Y021023D01*
X024892Y021042D01*
X024911Y021060D01*
X024933Y021074D01*
X024956Y021086D01*
X024981Y021094D01*
X025007Y021099D01*
X025033Y021101D01*
X025433Y021101D01*
X025459Y021099D01*
X025485Y021094D01*
X025510Y021086D01*
X025533Y021074D01*
X025555Y021060D01*
X025574Y021042D01*
X025592Y021023D01*
X025606Y021001D01*
X025618Y020978D01*
X025626Y020953D01*
X025631Y020927D01*
X025633Y020901D01*
X025633Y012301D01*
X025583Y012251D02*
X024883Y012251D01*
X024883Y012951D01*
X025583Y012951D01*
X025583Y012251D01*
X025633Y012301D02*
X025631Y012275D01*
X025626Y012249D01*
X025618Y012224D01*
X025606Y012201D01*
X025592Y012179D01*
X025574Y012160D01*
X025555Y012142D01*
X025533Y012128D01*
X025510Y012116D01*
X025485Y012108D01*
X025459Y012103D01*
X025433Y012101D01*
X025033Y012101D01*
X025007Y012103D01*
X024981Y012108D01*
X024956Y012116D01*
X024933Y012128D01*
X024911Y012142D01*
X024892Y012160D01*
X024874Y012179D01*
X024860Y012201D01*
X024848Y012224D01*
X024840Y012249D01*
X024835Y012275D01*
X024833Y012301D01*
X026064Y010802D02*
X026064Y010052D01*
X026103Y010050D01*
X026142Y010044D01*
X026180Y010035D01*
X026217Y010022D01*
X026253Y010005D01*
X026286Y009985D01*
X026318Y009961D01*
X026347Y009935D01*
X026373Y009906D01*
X026397Y009874D01*
X026417Y009841D01*
X026434Y009805D01*
X026447Y009768D01*
X026456Y009730D01*
X026462Y009691D01*
X026464Y009652D01*
X026462Y009613D01*
X026456Y009574D01*
X026447Y009536D01*
X026434Y009499D01*
X026417Y009463D01*
X026397Y009430D01*
X026373Y009398D01*
X026347Y009369D01*
X026318Y009343D01*
X026286Y009319D01*
X026253Y009299D01*
X026217Y009282D01*
X026180Y009269D01*
X026142Y009260D01*
X026103Y009254D01*
X026064Y009252D01*
X026064Y008502D01*
X033064Y008502D01*
X033064Y010802D01*
X026064Y010802D01*
X025633Y010260D02*
X025633Y001660D01*
X025583Y001610D02*
X024883Y001610D01*
X024883Y002310D01*
X025583Y002310D01*
X025583Y001610D01*
X025633Y001660D02*
X025631Y001634D01*
X025626Y001608D01*
X025618Y001583D01*
X025606Y001560D01*
X025592Y001538D01*
X025574Y001519D01*
X025555Y001501D01*
X025533Y001487D01*
X025510Y001475D01*
X025485Y001467D01*
X025459Y001462D01*
X025433Y001460D01*
X025033Y001460D01*
X025007Y001462D01*
X024981Y001467D01*
X024956Y001475D01*
X024933Y001487D01*
X024911Y001501D01*
X024892Y001519D01*
X024874Y001538D01*
X024860Y001560D01*
X024848Y001583D01*
X024840Y001608D01*
X024835Y001634D01*
X024833Y001660D01*
X024833Y010260D01*
X024835Y010286D01*
X024840Y010312D01*
X024848Y010337D01*
X024860Y010360D01*
X024874Y010382D01*
X024892Y010401D01*
X024911Y010419D01*
X024933Y010433D01*
X024956Y010445D01*
X024981Y010453D01*
X025007Y010458D01*
X025033Y010460D01*
X025433Y010460D01*
X025459Y010458D01*
X025485Y010453D01*
X025510Y010445D01*
X025533Y010433D01*
X025555Y010419D01*
X025574Y010401D01*
X025592Y010382D01*
X025606Y010360D01*
X025618Y010337D01*
X025626Y010312D01*
X025631Y010286D01*
X025633Y010260D01*
X026930Y011917D02*
X027430Y011917D01*
X027456Y011919D01*
X027482Y011924D01*
X027507Y011932D01*
X027530Y011944D01*
X027552Y011958D01*
X027571Y011976D01*
X027589Y011995D01*
X027603Y012017D01*
X027615Y012040D01*
X027623Y012065D01*
X027628Y012091D01*
X027630Y012117D01*
X027630Y013417D01*
X027628Y013443D01*
X027623Y013469D01*
X027615Y013494D01*
X027603Y013517D01*
X027589Y013539D01*
X027571Y013558D01*
X027552Y013576D01*
X027530Y013590D01*
X027507Y013602D01*
X027482Y013610D01*
X027456Y013615D01*
X027430Y013617D01*
X026930Y013617D01*
X026904Y013615D01*
X026878Y013610D01*
X026853Y013602D01*
X026830Y013590D01*
X026808Y013576D01*
X026789Y013558D01*
X026771Y013539D01*
X026757Y013517D01*
X026745Y013494D01*
X026737Y013469D01*
X026732Y013443D01*
X026730Y013417D01*
X026730Y012117D01*
X026732Y012091D01*
X026737Y012065D01*
X026745Y012040D01*
X026757Y012017D01*
X026771Y011995D01*
X026789Y011976D01*
X026808Y011958D01*
X026830Y011944D01*
X026853Y011932D01*
X026878Y011924D01*
X026904Y011919D01*
X026930Y011917D01*
X027980Y012117D02*
X027980Y013417D01*
X027982Y013443D01*
X027987Y013469D01*
X027995Y013494D01*
X028007Y013517D01*
X028021Y013539D01*
X028039Y013558D01*
X028058Y013576D01*
X028080Y013590D01*
X028103Y013602D01*
X028128Y013610D01*
X028154Y013615D01*
X028180Y013617D01*
X028680Y013617D01*
X028706Y013615D01*
X028732Y013610D01*
X028757Y013602D01*
X028780Y013590D01*
X028802Y013576D01*
X028821Y013558D01*
X028839Y013539D01*
X028853Y013517D01*
X028865Y013494D01*
X028873Y013469D01*
X028878Y013443D01*
X028880Y013417D01*
X028880Y012117D01*
X028878Y012091D01*
X028873Y012065D01*
X028865Y012040D01*
X028853Y012017D01*
X028839Y011995D01*
X028821Y011976D01*
X028802Y011958D01*
X028780Y011944D01*
X028757Y011932D01*
X028732Y011924D01*
X028706Y011919D01*
X028680Y011917D01*
X028180Y011917D01*
X028154Y011919D01*
X028128Y011924D01*
X028103Y011932D01*
X028080Y011944D01*
X028058Y011958D01*
X028039Y011976D01*
X028021Y011995D01*
X028007Y012017D01*
X027995Y012040D01*
X027987Y012065D01*
X027982Y012091D01*
X027980Y012117D01*
X029730Y012117D02*
X029730Y013417D01*
X029732Y013443D01*
X029737Y013469D01*
X029745Y013494D01*
X029757Y013517D01*
X029771Y013539D01*
X029789Y013558D01*
X029808Y013576D01*
X029830Y013590D01*
X029853Y013602D01*
X029878Y013610D01*
X029904Y013615D01*
X029930Y013617D01*
X030430Y013617D01*
X030456Y013615D01*
X030482Y013610D01*
X030507Y013602D01*
X030530Y013590D01*
X030552Y013576D01*
X030571Y013558D01*
X030589Y013539D01*
X030603Y013517D01*
X030615Y013494D01*
X030623Y013469D01*
X030628Y013443D01*
X030630Y013417D01*
X030630Y012117D01*
X030628Y012091D01*
X030623Y012065D01*
X030615Y012040D01*
X030603Y012017D01*
X030589Y011995D01*
X030571Y011976D01*
X030552Y011958D01*
X030530Y011944D01*
X030507Y011932D01*
X030482Y011924D01*
X030456Y011919D01*
X030430Y011917D01*
X029930Y011917D01*
X029904Y011919D01*
X029878Y011924D01*
X029853Y011932D01*
X029830Y011944D01*
X029808Y011958D01*
X029789Y011976D01*
X029771Y011995D01*
X029757Y012017D01*
X029745Y012040D01*
X029737Y012065D01*
X029732Y012091D01*
X029730Y012117D01*
X030980Y012117D02*
X030980Y013417D01*
X030982Y013443D01*
X030987Y013469D01*
X030995Y013494D01*
X031007Y013517D01*
X031021Y013539D01*
X031039Y013558D01*
X031058Y013576D01*
X031080Y013590D01*
X031103Y013602D01*
X031128Y013610D01*
X031154Y013615D01*
X031180Y013617D01*
X031680Y013617D01*
X031706Y013615D01*
X031732Y013610D01*
X031757Y013602D01*
X031780Y013590D01*
X031802Y013576D01*
X031821Y013558D01*
X031839Y013539D01*
X031853Y013517D01*
X031865Y013494D01*
X031873Y013469D01*
X031878Y013443D01*
X031880Y013417D01*
X031880Y012117D01*
X031878Y012091D01*
X031873Y012065D01*
X031865Y012040D01*
X031853Y012017D01*
X031839Y011995D01*
X031821Y011976D01*
X031802Y011958D01*
X031780Y011944D01*
X031757Y011932D01*
X031732Y011924D01*
X031706Y011919D01*
X031680Y011917D01*
X031180Y011917D01*
X031154Y011919D01*
X031128Y011924D01*
X031103Y011932D01*
X031080Y011944D01*
X031058Y011958D01*
X031039Y011976D01*
X031021Y011995D01*
X031007Y012017D01*
X030995Y012040D01*
X030987Y012065D01*
X030982Y012091D01*
X030980Y012117D01*
X033064Y014802D02*
X033064Y017102D01*
X026064Y017102D01*
X026064Y016352D01*
X026103Y016350D01*
X026142Y016344D01*
X026180Y016335D01*
X026217Y016322D01*
X026253Y016305D01*
X026286Y016285D01*
X026318Y016261D01*
X026347Y016235D01*
X026373Y016206D01*
X026397Y016174D01*
X026417Y016141D01*
X026434Y016105D01*
X026447Y016068D01*
X026456Y016030D01*
X026462Y015991D01*
X026464Y015952D01*
X026462Y015913D01*
X026456Y015874D01*
X026447Y015836D01*
X026434Y015799D01*
X026417Y015763D01*
X026397Y015730D01*
X026373Y015698D01*
X026347Y015669D01*
X026318Y015643D01*
X026286Y015619D01*
X026253Y015599D01*
X026217Y015582D01*
X026180Y015569D01*
X026142Y015560D01*
X026103Y015554D01*
X026064Y015552D01*
X026064Y014802D01*
X033064Y014802D01*
X033613Y014503D02*
X033613Y014003D01*
X033513Y014003D01*
X033513Y013503D01*
X033613Y013503D01*
X033613Y010753D01*
X033513Y010753D01*
X033513Y010253D01*
X033613Y010253D01*
X033613Y007503D01*
X033513Y007503D01*
X033513Y007003D01*
X033613Y007003D01*
X033613Y006503D01*
X037113Y006503D01*
X037113Y008253D01*
X037063Y008253D01*
X037063Y008753D01*
X037113Y008753D01*
X037113Y009703D01*
X036713Y009703D01*
X036613Y009703D01*
X036613Y007003D01*
X034113Y007003D01*
X034113Y014003D01*
X036613Y014003D01*
X036613Y012303D01*
X036613Y011703D01*
X036613Y011303D01*
X036713Y011303D01*
X037113Y011303D01*
X037113Y009703D01*
X036613Y009703D02*
X036313Y009703D01*
X036313Y011303D01*
X036613Y011303D01*
X036913Y011503D02*
X036913Y011703D01*
X036913Y012303D01*
X036713Y012303D01*
X036613Y012303D01*
X036913Y012303D02*
X036913Y012503D01*
X037113Y012653D01*
X037113Y014503D01*
X033613Y014503D01*
X034580Y015017D02*
X034580Y015517D01*
X034582Y015543D01*
X034587Y015569D01*
X034595Y015594D01*
X034607Y015617D01*
X034621Y015639D01*
X034639Y015658D01*
X034658Y015676D01*
X034680Y015690D01*
X034703Y015702D01*
X034728Y015710D01*
X034754Y015715D01*
X034780Y015717D01*
X036080Y015717D01*
X036106Y015715D01*
X036132Y015710D01*
X036157Y015702D01*
X036180Y015690D01*
X036202Y015676D01*
X036221Y015658D01*
X036239Y015639D01*
X036253Y015617D01*
X036265Y015594D01*
X036273Y015569D01*
X036278Y015543D01*
X036280Y015517D01*
X036280Y015017D01*
X036278Y014991D01*
X036273Y014965D01*
X036265Y014940D01*
X036253Y014917D01*
X036239Y014895D01*
X036221Y014876D01*
X036202Y014858D01*
X036180Y014844D01*
X036157Y014832D01*
X036132Y014824D01*
X036106Y014819D01*
X036080Y014817D01*
X034780Y014817D01*
X034754Y014819D01*
X034728Y014824D01*
X034703Y014832D01*
X034680Y014844D01*
X034658Y014858D01*
X034639Y014876D01*
X034621Y014895D01*
X034607Y014917D01*
X034595Y014940D01*
X034587Y014965D01*
X034582Y014991D01*
X034580Y015017D01*
X034780Y016567D02*
X036080Y016567D01*
X036106Y016569D01*
X036132Y016574D01*
X036157Y016582D01*
X036180Y016594D01*
X036202Y016608D01*
X036221Y016626D01*
X036239Y016645D01*
X036253Y016667D01*
X036265Y016690D01*
X036273Y016715D01*
X036278Y016741D01*
X036280Y016767D01*
X036280Y017267D01*
X036278Y017293D01*
X036273Y017319D01*
X036265Y017344D01*
X036253Y017367D01*
X036239Y017389D01*
X036221Y017408D01*
X036202Y017426D01*
X036180Y017440D01*
X036157Y017452D01*
X036132Y017460D01*
X036106Y017465D01*
X036080Y017467D01*
X034780Y017467D01*
X034754Y017465D01*
X034728Y017460D01*
X034703Y017452D01*
X034680Y017440D01*
X034658Y017426D01*
X034639Y017408D01*
X034621Y017389D01*
X034607Y017367D01*
X034595Y017344D01*
X034587Y017319D01*
X034582Y017293D01*
X034580Y017267D01*
X034580Y016767D01*
X034582Y016741D01*
X034587Y016715D01*
X034595Y016690D01*
X034607Y016667D01*
X034621Y016645D01*
X034639Y016626D01*
X034658Y016608D01*
X034680Y016594D01*
X034703Y016582D01*
X034728Y016574D01*
X034754Y016569D01*
X034780Y016567D01*
X033613Y017777D02*
X037113Y017777D01*
X037113Y019527D01*
X037063Y019527D01*
X037063Y020027D01*
X037113Y020027D01*
X037113Y020977D01*
X036713Y020977D01*
X036613Y020977D01*
X036613Y018277D01*
X034113Y018277D01*
X034113Y025277D01*
X036613Y025277D01*
X036613Y023577D01*
X036613Y022977D01*
X036613Y022577D01*
X036713Y022577D01*
X037113Y022577D01*
X037113Y020977D01*
X036613Y020977D02*
X036313Y020977D01*
X036313Y022577D01*
X036613Y022577D01*
X036913Y022777D02*
X036913Y022977D01*
X036913Y023577D01*
X036713Y023577D01*
X036613Y023577D01*
X036913Y023577D02*
X036913Y023777D01*
X037113Y023927D01*
X037113Y025777D01*
X033613Y025777D01*
X033613Y025277D01*
X033513Y025277D01*
X033513Y024777D01*
X033613Y024777D01*
X033613Y022027D01*
X033513Y022027D01*
X033513Y021527D01*
X033613Y021527D01*
X033613Y018777D01*
X033513Y018777D01*
X033513Y018277D01*
X033613Y018277D01*
X033613Y017777D01*
X032130Y018617D02*
X032130Y019917D01*
X032128Y019943D01*
X032123Y019969D01*
X032115Y019994D01*
X032103Y020017D01*
X032089Y020039D01*
X032071Y020058D01*
X032052Y020076D01*
X032030Y020090D01*
X032007Y020102D01*
X031982Y020110D01*
X031956Y020115D01*
X031930Y020117D01*
X031430Y020117D01*
X031404Y020115D01*
X031378Y020110D01*
X031353Y020102D01*
X031330Y020090D01*
X031308Y020076D01*
X031289Y020058D01*
X031271Y020039D01*
X031257Y020017D01*
X031245Y019994D01*
X031237Y019969D01*
X031232Y019943D01*
X031230Y019917D01*
X031230Y018617D01*
X031232Y018591D01*
X031237Y018565D01*
X031245Y018540D01*
X031257Y018517D01*
X031271Y018495D01*
X031289Y018476D01*
X031308Y018458D01*
X031330Y018444D01*
X031353Y018432D01*
X031378Y018424D01*
X031404Y018419D01*
X031430Y018417D01*
X031930Y018417D01*
X031956Y018419D01*
X031982Y018424D01*
X032007Y018432D01*
X032030Y018444D01*
X032052Y018458D01*
X032071Y018476D01*
X032089Y018495D01*
X032103Y018517D01*
X032115Y018540D01*
X032123Y018565D01*
X032128Y018591D01*
X032130Y018617D01*
X030880Y018617D02*
X030880Y019917D01*
X030878Y019943D01*
X030873Y019969D01*
X030865Y019994D01*
X030853Y020017D01*
X030839Y020039D01*
X030821Y020058D01*
X030802Y020076D01*
X030780Y020090D01*
X030757Y020102D01*
X030732Y020110D01*
X030706Y020115D01*
X030680Y020117D01*
X030180Y020117D01*
X030154Y020115D01*
X030128Y020110D01*
X030103Y020102D01*
X030080Y020090D01*
X030058Y020076D01*
X030039Y020058D01*
X030021Y020039D01*
X030007Y020017D01*
X029995Y019994D01*
X029987Y019969D01*
X029982Y019943D01*
X029980Y019917D01*
X029980Y018617D01*
X029982Y018591D01*
X029987Y018565D01*
X029995Y018540D01*
X030007Y018517D01*
X030021Y018495D01*
X030039Y018476D01*
X030058Y018458D01*
X030080Y018444D01*
X030103Y018432D01*
X030128Y018424D01*
X030154Y018419D01*
X030180Y018417D01*
X030680Y018417D01*
X030706Y018419D01*
X030732Y018424D01*
X030757Y018432D01*
X030780Y018444D01*
X030802Y018458D01*
X030821Y018476D01*
X030839Y018495D01*
X030853Y018517D01*
X030865Y018540D01*
X030873Y018565D01*
X030878Y018591D01*
X030880Y018617D01*
X029130Y018617D02*
X029130Y019917D01*
X029128Y019943D01*
X029123Y019969D01*
X029115Y019994D01*
X029103Y020017D01*
X029089Y020039D01*
X029071Y020058D01*
X029052Y020076D01*
X029030Y020090D01*
X029007Y020102D01*
X028982Y020110D01*
X028956Y020115D01*
X028930Y020117D01*
X028430Y020117D01*
X028404Y020115D01*
X028378Y020110D01*
X028353Y020102D01*
X028330Y020090D01*
X028308Y020076D01*
X028289Y020058D01*
X028271Y020039D01*
X028257Y020017D01*
X028245Y019994D01*
X028237Y019969D01*
X028232Y019943D01*
X028230Y019917D01*
X028230Y018617D01*
X028232Y018591D01*
X028237Y018565D01*
X028245Y018540D01*
X028257Y018517D01*
X028271Y018495D01*
X028289Y018476D01*
X028308Y018458D01*
X028330Y018444D01*
X028353Y018432D01*
X028378Y018424D01*
X028404Y018419D01*
X028430Y018417D01*
X028930Y018417D01*
X028956Y018419D01*
X028982Y018424D01*
X029007Y018432D01*
X029030Y018444D01*
X029052Y018458D01*
X029071Y018476D01*
X029089Y018495D01*
X029103Y018517D01*
X029115Y018540D01*
X029123Y018565D01*
X029128Y018591D01*
X029130Y018617D01*
X027880Y018617D02*
X027880Y019917D01*
X027878Y019943D01*
X027873Y019969D01*
X027865Y019994D01*
X027853Y020017D01*
X027839Y020039D01*
X027821Y020058D01*
X027802Y020076D01*
X027780Y020090D01*
X027757Y020102D01*
X027732Y020110D01*
X027706Y020115D01*
X027680Y020117D01*
X027180Y020117D01*
X027154Y020115D01*
X027128Y020110D01*
X027103Y020102D01*
X027080Y020090D01*
X027058Y020076D01*
X027039Y020058D01*
X027021Y020039D01*
X027007Y020017D01*
X026995Y019994D01*
X026987Y019969D01*
X026982Y019943D01*
X026980Y019917D01*
X026980Y018617D01*
X026982Y018591D01*
X026987Y018565D01*
X026995Y018540D01*
X027007Y018517D01*
X027021Y018495D01*
X027039Y018476D01*
X027058Y018458D01*
X027080Y018444D01*
X027103Y018432D01*
X027128Y018424D01*
X027154Y018419D01*
X027180Y018417D01*
X027680Y018417D01*
X027706Y018419D01*
X027732Y018424D01*
X027757Y018432D01*
X027780Y018444D01*
X027802Y018458D01*
X027821Y018476D01*
X027839Y018495D01*
X027853Y018517D01*
X027865Y018540D01*
X027873Y018565D01*
X027878Y018591D01*
X027880Y018617D01*
X030030Y024817D02*
X031330Y024817D01*
X031356Y024819D01*
X031382Y024824D01*
X031407Y024832D01*
X031430Y024844D01*
X031452Y024858D01*
X031471Y024876D01*
X031489Y024895D01*
X031503Y024917D01*
X031515Y024940D01*
X031523Y024965D01*
X031528Y024991D01*
X031530Y025017D01*
X031530Y025517D01*
X031528Y025543D01*
X031523Y025569D01*
X031515Y025594D01*
X031503Y025617D01*
X031489Y025639D01*
X031471Y025658D01*
X031452Y025676D01*
X031430Y025690D01*
X031407Y025702D01*
X031382Y025710D01*
X031356Y025715D01*
X031330Y025717D01*
X030030Y025717D01*
X030004Y025715D01*
X029978Y025710D01*
X029953Y025702D01*
X029930Y025690D01*
X029908Y025676D01*
X029889Y025658D01*
X029871Y025639D01*
X029857Y025617D01*
X029845Y025594D01*
X029837Y025569D01*
X029832Y025543D01*
X029830Y025517D01*
X029830Y025017D01*
X029832Y024991D01*
X029837Y024965D01*
X029845Y024940D01*
X029857Y024917D01*
X029871Y024895D01*
X029889Y024876D01*
X029908Y024858D01*
X029930Y024844D01*
X029953Y024832D01*
X029978Y024824D01*
X030004Y024819D01*
X030030Y024817D01*
X031730Y026367D02*
X031730Y027667D01*
X031732Y027693D01*
X031737Y027719D01*
X031745Y027744D01*
X031757Y027767D01*
X031771Y027789D01*
X031789Y027808D01*
X031808Y027826D01*
X031830Y027840D01*
X031853Y027852D01*
X031878Y027860D01*
X031904Y027865D01*
X031930Y027867D01*
X032430Y027867D01*
X032456Y027865D01*
X032482Y027860D01*
X032507Y027852D01*
X032530Y027840D01*
X032552Y027826D01*
X032571Y027808D01*
X032589Y027789D01*
X032603Y027767D01*
X032615Y027744D01*
X032623Y027719D01*
X032628Y027693D01*
X032630Y027667D01*
X032630Y026367D01*
X032628Y026341D01*
X032623Y026315D01*
X032615Y026290D01*
X032603Y026267D01*
X032589Y026245D01*
X032571Y026226D01*
X032552Y026208D01*
X032530Y026194D01*
X032507Y026182D01*
X032482Y026174D01*
X032456Y026169D01*
X032430Y026167D01*
X031930Y026167D01*
X031904Y026169D01*
X031878Y026174D01*
X031853Y026182D01*
X031830Y026194D01*
X031808Y026208D01*
X031789Y026226D01*
X031771Y026245D01*
X031757Y026267D01*
X031745Y026290D01*
X031737Y026315D01*
X031732Y026341D01*
X031730Y026367D01*
X031980Y028267D02*
X032380Y028267D01*
X032406Y028269D01*
X032432Y028274D01*
X032457Y028282D01*
X032480Y028294D01*
X032502Y028308D01*
X032521Y028326D01*
X032539Y028345D01*
X032553Y028367D01*
X032565Y028390D01*
X032573Y028415D01*
X032578Y028441D01*
X032580Y028467D01*
X032580Y033067D01*
X032578Y033093D01*
X032573Y033119D01*
X032565Y033144D01*
X032553Y033167D01*
X032539Y033189D01*
X032521Y033208D01*
X032502Y033226D01*
X032480Y033240D01*
X032457Y033252D01*
X032432Y033260D01*
X032406Y033265D01*
X032380Y033267D01*
X031980Y033267D01*
X031954Y033265D01*
X031928Y033260D01*
X031903Y033252D01*
X031880Y033240D01*
X031858Y033226D01*
X031839Y033208D01*
X031821Y033189D01*
X031807Y033167D01*
X031795Y033144D01*
X031787Y033119D01*
X031782Y033093D01*
X031780Y033067D01*
X031780Y028467D01*
X031830Y028417D02*
X032530Y028417D01*
X032530Y029117D01*
X031830Y029117D01*
X031830Y028417D01*
X031780Y028467D02*
X031782Y028441D01*
X031787Y028415D01*
X031795Y028390D01*
X031807Y028367D01*
X031821Y028345D01*
X031839Y028326D01*
X031858Y028308D01*
X031880Y028294D01*
X031903Y028282D01*
X031928Y028274D01*
X031954Y028269D01*
X031980Y028267D01*
X034030Y027767D02*
X036330Y027767D01*
X036330Y034767D01*
X035580Y034767D01*
X035330Y035067D02*
X034030Y035067D01*
X034004Y035069D01*
X033978Y035074D01*
X033953Y035082D01*
X033930Y035094D01*
X033908Y035108D01*
X033889Y035126D01*
X033871Y035145D01*
X033857Y035167D01*
X033845Y035190D01*
X033837Y035215D01*
X033832Y035241D01*
X033830Y035267D01*
X033830Y035767D01*
X033832Y035793D01*
X033837Y035819D01*
X033845Y035844D01*
X033857Y035867D01*
X033871Y035889D01*
X033889Y035908D01*
X033908Y035926D01*
X033930Y035940D01*
X033953Y035952D01*
X033978Y035960D01*
X034004Y035965D01*
X034030Y035967D01*
X035330Y035967D01*
X035356Y035965D01*
X035382Y035960D01*
X035407Y035952D01*
X035430Y035940D01*
X035452Y035926D01*
X035471Y035908D01*
X035489Y035889D01*
X035503Y035867D01*
X035515Y035844D01*
X035523Y035819D01*
X035528Y035793D01*
X035530Y035767D01*
X035530Y035267D01*
X035528Y035241D01*
X035523Y035215D01*
X035515Y035190D01*
X035503Y035167D01*
X035489Y035145D01*
X035471Y035126D01*
X035452Y035108D01*
X035430Y035094D01*
X035407Y035082D01*
X035382Y035074D01*
X035356Y035069D01*
X035330Y035067D01*
X035580Y034767D02*
X035578Y034728D01*
X035572Y034689D01*
X035563Y034651D01*
X035550Y034614D01*
X035533Y034578D01*
X035513Y034545D01*
X035489Y034513D01*
X035463Y034484D01*
X035434Y034458D01*
X035402Y034434D01*
X035369Y034414D01*
X035333Y034397D01*
X035296Y034384D01*
X035258Y034375D01*
X035219Y034369D01*
X035180Y034367D01*
X035141Y034369D01*
X035102Y034375D01*
X035064Y034384D01*
X035027Y034397D01*
X034991Y034414D01*
X034958Y034434D01*
X034926Y034458D01*
X034897Y034484D01*
X034871Y034513D01*
X034847Y034545D01*
X034827Y034578D01*
X034810Y034614D01*
X034797Y034651D01*
X034788Y034689D01*
X034782Y034728D01*
X034780Y034767D01*
X034030Y034767D01*
X034030Y027767D01*
X034530Y027217D02*
X035830Y027217D01*
X035856Y027215D01*
X035882Y027210D01*
X035907Y027202D01*
X035930Y027190D01*
X035952Y027176D01*
X035971Y027158D01*
X035989Y027139D01*
X036003Y027117D01*
X036015Y027094D01*
X036023Y027069D01*
X036028Y027043D01*
X036030Y027017D01*
X036030Y026517D01*
X036028Y026491D01*
X036023Y026465D01*
X036015Y026440D01*
X036003Y026417D01*
X035989Y026395D01*
X035971Y026376D01*
X035952Y026358D01*
X035930Y026344D01*
X035907Y026332D01*
X035882Y026324D01*
X035856Y026319D01*
X035830Y026317D01*
X034530Y026317D01*
X034504Y026319D01*
X034478Y026324D01*
X034453Y026332D01*
X034430Y026344D01*
X034408Y026358D01*
X034389Y026376D01*
X034371Y026395D01*
X034357Y026417D01*
X034345Y026440D01*
X034337Y026465D01*
X034332Y026491D01*
X034330Y026517D01*
X034330Y027017D01*
X034332Y027043D01*
X034337Y027069D01*
X034345Y027094D01*
X034357Y027117D01*
X034371Y027139D01*
X034389Y027158D01*
X034408Y027176D01*
X034430Y027190D01*
X034453Y027202D01*
X034478Y027210D01*
X034504Y027215D01*
X034530Y027217D01*
X037936Y027034D02*
X037936Y017019D01*
X037936Y016011D02*
X037936Y005995D01*
X035530Y006017D02*
X035530Y005517D01*
X035528Y005491D01*
X035523Y005465D01*
X035515Y005440D01*
X035503Y005417D01*
X035489Y005395D01*
X035471Y005376D01*
X035452Y005358D01*
X035430Y005344D01*
X035407Y005332D01*
X035382Y005324D01*
X035356Y005319D01*
X035330Y005317D01*
X034030Y005317D01*
X034004Y005319D01*
X033978Y005324D01*
X033953Y005332D01*
X033930Y005344D01*
X033908Y005358D01*
X033889Y005376D01*
X033871Y005395D01*
X033857Y005417D01*
X033845Y005440D01*
X033837Y005465D01*
X033832Y005491D01*
X033830Y005517D01*
X033830Y006017D01*
X033832Y006043D01*
X033837Y006069D01*
X033845Y006094D01*
X033857Y006117D01*
X033871Y006139D01*
X033889Y006158D01*
X033908Y006176D01*
X033930Y006190D01*
X033953Y006202D01*
X033978Y006210D01*
X034004Y006215D01*
X034030Y006217D01*
X035330Y006217D01*
X035356Y006215D01*
X035382Y006210D01*
X035407Y006202D01*
X035430Y006190D01*
X035452Y006176D01*
X035471Y006158D01*
X035489Y006139D01*
X035503Y006117D01*
X035515Y006094D01*
X035523Y006069D01*
X035528Y006043D01*
X035530Y006017D01*
X034180Y004117D02*
X033680Y004117D01*
X033654Y004115D01*
X033628Y004110D01*
X033603Y004102D01*
X033580Y004090D01*
X033558Y004076D01*
X033539Y004058D01*
X033521Y004039D01*
X033507Y004017D01*
X033495Y003994D01*
X033487Y003969D01*
X033482Y003943D01*
X033480Y003917D01*
X033480Y002617D01*
X033482Y002591D01*
X033487Y002565D01*
X033495Y002540D01*
X033507Y002517D01*
X033521Y002495D01*
X033539Y002476D01*
X033558Y002458D01*
X033580Y002444D01*
X033603Y002432D01*
X033628Y002424D01*
X033654Y002419D01*
X033680Y002417D01*
X034180Y002417D01*
X034206Y002419D01*
X034232Y002424D01*
X034257Y002432D01*
X034280Y002444D01*
X034302Y002458D01*
X034321Y002476D01*
X034339Y002495D01*
X034353Y002517D01*
X034365Y002540D01*
X034373Y002565D01*
X034378Y002591D01*
X034380Y002617D01*
X034380Y003917D01*
X034378Y003943D01*
X034373Y003969D01*
X034365Y003994D01*
X034353Y004017D01*
X034339Y004039D01*
X034321Y004058D01*
X034302Y004076D01*
X034280Y004090D01*
X034257Y004102D01*
X034232Y004110D01*
X034206Y004115D01*
X034180Y004117D01*
X033064Y004503D02*
X033064Y002203D01*
X026064Y002203D01*
X026064Y002953D01*
X026103Y002955D01*
X026142Y002961D01*
X026180Y002970D01*
X026217Y002983D01*
X026253Y003000D01*
X026286Y003020D01*
X026318Y003044D01*
X026347Y003070D01*
X026373Y003099D01*
X026397Y003131D01*
X026417Y003164D01*
X026434Y003200D01*
X026447Y003237D01*
X026456Y003275D01*
X026462Y003314D01*
X026464Y003353D01*
X026462Y003392D01*
X026456Y003431D01*
X026447Y003469D01*
X026434Y003506D01*
X026417Y003542D01*
X026397Y003575D01*
X026373Y003607D01*
X026347Y003636D01*
X026318Y003662D01*
X026286Y003686D01*
X026253Y003706D01*
X026217Y003723D01*
X026180Y003736D01*
X026142Y003745D01*
X026103Y003751D01*
X026064Y003753D01*
X026064Y004503D01*
X033064Y004503D01*
X031880Y005867D02*
X031880Y007167D01*
X031878Y007193D01*
X031873Y007219D01*
X031865Y007244D01*
X031853Y007267D01*
X031839Y007289D01*
X031821Y007308D01*
X031802Y007326D01*
X031780Y007340D01*
X031757Y007352D01*
X031732Y007360D01*
X031706Y007365D01*
X031680Y007367D01*
X031180Y007367D01*
X031154Y007365D01*
X031128Y007360D01*
X031103Y007352D01*
X031080Y007340D01*
X031058Y007326D01*
X031039Y007308D01*
X031021Y007289D01*
X031007Y007267D01*
X030995Y007244D01*
X030987Y007219D01*
X030982Y007193D01*
X030980Y007167D01*
X030980Y005867D01*
X030982Y005841D01*
X030987Y005815D01*
X030995Y005790D01*
X031007Y005767D01*
X031021Y005745D01*
X031039Y005726D01*
X031058Y005708D01*
X031080Y005694D01*
X031103Y005682D01*
X031128Y005674D01*
X031154Y005669D01*
X031180Y005667D01*
X031680Y005667D01*
X031706Y005669D01*
X031732Y005674D01*
X031757Y005682D01*
X031780Y005694D01*
X031802Y005708D01*
X031821Y005726D01*
X031839Y005745D01*
X031853Y005767D01*
X031865Y005790D01*
X031873Y005815D01*
X031878Y005841D01*
X031880Y005867D01*
X030630Y005867D02*
X030630Y007167D01*
X030628Y007193D01*
X030623Y007219D01*
X030615Y007244D01*
X030603Y007267D01*
X030589Y007289D01*
X030571Y007308D01*
X030552Y007326D01*
X030530Y007340D01*
X030507Y007352D01*
X030482Y007360D01*
X030456Y007365D01*
X030430Y007367D01*
X029930Y007367D01*
X029904Y007365D01*
X029878Y007360D01*
X029853Y007352D01*
X029830Y007340D01*
X029808Y007326D01*
X029789Y007308D01*
X029771Y007289D01*
X029757Y007267D01*
X029745Y007244D01*
X029737Y007219D01*
X029732Y007193D01*
X029730Y007167D01*
X029730Y005867D01*
X029732Y005841D01*
X029737Y005815D01*
X029745Y005790D01*
X029757Y005767D01*
X029771Y005745D01*
X029789Y005726D01*
X029808Y005708D01*
X029830Y005694D01*
X029853Y005682D01*
X029878Y005674D01*
X029904Y005669D01*
X029930Y005667D01*
X030430Y005667D01*
X030456Y005669D01*
X030482Y005674D01*
X030507Y005682D01*
X030530Y005694D01*
X030552Y005708D01*
X030571Y005726D01*
X030589Y005745D01*
X030603Y005767D01*
X030615Y005790D01*
X030623Y005815D01*
X030628Y005841D01*
X030630Y005867D01*
X028880Y005867D02*
X028880Y007167D01*
X028878Y007193D01*
X028873Y007219D01*
X028865Y007244D01*
X028853Y007267D01*
X028839Y007289D01*
X028821Y007308D01*
X028802Y007326D01*
X028780Y007340D01*
X028757Y007352D01*
X028732Y007360D01*
X028706Y007365D01*
X028680Y007367D01*
X028180Y007367D01*
X028154Y007365D01*
X028128Y007360D01*
X028103Y007352D01*
X028080Y007340D01*
X028058Y007326D01*
X028039Y007308D01*
X028021Y007289D01*
X028007Y007267D01*
X027995Y007244D01*
X027987Y007219D01*
X027982Y007193D01*
X027980Y007167D01*
X027980Y005867D01*
X027982Y005841D01*
X027987Y005815D01*
X027995Y005790D01*
X028007Y005767D01*
X028021Y005745D01*
X028039Y005726D01*
X028058Y005708D01*
X028080Y005694D01*
X028103Y005682D01*
X028128Y005674D01*
X028154Y005669D01*
X028180Y005667D01*
X028680Y005667D01*
X028706Y005669D01*
X028732Y005674D01*
X028757Y005682D01*
X028780Y005694D01*
X028802Y005708D01*
X028821Y005726D01*
X028839Y005745D01*
X028853Y005767D01*
X028865Y005790D01*
X028873Y005815D01*
X028878Y005841D01*
X028880Y005867D01*
X027630Y005867D02*
X027630Y007167D01*
X027628Y007193D01*
X027623Y007219D01*
X027615Y007244D01*
X027603Y007267D01*
X027589Y007289D01*
X027571Y007308D01*
X027552Y007326D01*
X027530Y007340D01*
X027507Y007352D01*
X027482Y007360D01*
X027456Y007365D01*
X027430Y007367D01*
X026930Y007367D01*
X026904Y007365D01*
X026878Y007360D01*
X026853Y007352D01*
X026830Y007340D01*
X026808Y007326D01*
X026789Y007308D01*
X026771Y007289D01*
X026757Y007267D01*
X026745Y007244D01*
X026737Y007219D01*
X026732Y007193D01*
X026730Y007167D01*
X026730Y005867D01*
X026732Y005841D01*
X026737Y005815D01*
X026745Y005790D01*
X026757Y005767D01*
X026771Y005745D01*
X026789Y005726D01*
X026808Y005708D01*
X026830Y005694D01*
X026853Y005682D01*
X026878Y005674D01*
X026904Y005669D01*
X026930Y005667D01*
X027430Y005667D01*
X027456Y005669D01*
X027482Y005674D01*
X027507Y005682D01*
X027530Y005694D01*
X027552Y005708D01*
X027571Y005726D01*
X027589Y005745D01*
X027603Y005767D01*
X027615Y005790D01*
X027623Y005815D01*
X027628Y005841D01*
X027630Y005867D01*
X020677Y001647D02*
X020210Y001647D01*
X016080Y006017D02*
X016082Y006097D01*
X016088Y006176D01*
X016098Y006255D01*
X016112Y006334D01*
X016129Y006412D01*
X016151Y006489D01*
X016176Y006564D01*
X016206Y006638D01*
X016238Y006711D01*
X016275Y006782D01*
X016315Y006851D01*
X016358Y006918D01*
X016405Y006983D01*
X016454Y007045D01*
X016507Y007105D01*
X016563Y007162D01*
X016621Y007217D01*
X016682Y007268D01*
X016746Y007316D01*
X016812Y007361D01*
X016880Y007403D01*
X016950Y007441D01*
X017022Y007475D01*
X017095Y007506D01*
X017170Y007534D01*
X017247Y007557D01*
X017324Y007577D01*
X017402Y007593D01*
X017481Y007605D01*
X017560Y007613D01*
X017640Y007617D01*
X017720Y007617D01*
X017800Y007613D01*
X017879Y007605D01*
X017958Y007593D01*
X018036Y007577D01*
X018113Y007557D01*
X018190Y007534D01*
X018265Y007506D01*
X018338Y007475D01*
X018410Y007441D01*
X018480Y007403D01*
X018548Y007361D01*
X018614Y007316D01*
X018678Y007268D01*
X018739Y007217D01*
X018797Y007162D01*
X018853Y007105D01*
X018906Y007045D01*
X018955Y006983D01*
X019002Y006918D01*
X019045Y006851D01*
X019085Y006782D01*
X019122Y006711D01*
X019154Y006638D01*
X019184Y006564D01*
X019209Y006489D01*
X019231Y006412D01*
X019248Y006334D01*
X019262Y006255D01*
X019272Y006176D01*
X019278Y006097D01*
X019280Y006017D01*
X019278Y005937D01*
X019272Y005858D01*
X019262Y005779D01*
X019248Y005700D01*
X019231Y005622D01*
X019209Y005545D01*
X019184Y005470D01*
X019154Y005396D01*
X019122Y005323D01*
X019085Y005252D01*
X019045Y005183D01*
X019002Y005116D01*
X018955Y005051D01*
X018906Y004989D01*
X018853Y004929D01*
X018797Y004872D01*
X018739Y004817D01*
X018678Y004766D01*
X018614Y004718D01*
X018548Y004673D01*
X018480Y004631D01*
X018410Y004593D01*
X018338Y004559D01*
X018265Y004528D01*
X018190Y004500D01*
X018113Y004477D01*
X018036Y004457D01*
X017958Y004441D01*
X017879Y004429D01*
X017800Y004421D01*
X017720Y004417D01*
X017640Y004417D01*
X017560Y004421D01*
X017481Y004429D01*
X017402Y004441D01*
X017324Y004457D01*
X017247Y004477D01*
X017170Y004500D01*
X017095Y004528D01*
X017022Y004559D01*
X016950Y004593D01*
X016880Y004631D01*
X016812Y004673D01*
X016746Y004718D01*
X016682Y004766D01*
X016621Y004817D01*
X016563Y004872D01*
X016507Y004929D01*
X016454Y004989D01*
X016405Y005051D01*
X016358Y005116D01*
X016315Y005183D01*
X016275Y005252D01*
X016238Y005323D01*
X016206Y005396D01*
X016176Y005470D01*
X016151Y005545D01*
X016129Y005622D01*
X016112Y005700D01*
X016098Y005779D01*
X016088Y005858D01*
X016082Y005937D01*
X016080Y006017D01*
X016480Y006317D02*
X016480Y006617D01*
X016330Y006467D02*
X016630Y006467D01*
X013830Y002217D02*
X012530Y002217D01*
X012504Y002215D01*
X012478Y002210D01*
X012453Y002202D01*
X012430Y002190D01*
X012408Y002176D01*
X012389Y002158D01*
X012371Y002139D01*
X012357Y002117D01*
X012345Y002094D01*
X012337Y002069D01*
X012332Y002043D01*
X012330Y002017D01*
X012330Y001517D01*
X012332Y001491D01*
X012337Y001465D01*
X012345Y001440D01*
X012357Y001417D01*
X012371Y001395D01*
X012389Y001376D01*
X012408Y001358D01*
X012430Y001344D01*
X012453Y001332D01*
X012478Y001324D01*
X012504Y001319D01*
X012530Y001317D01*
X013830Y001317D01*
X013856Y001319D01*
X013882Y001324D01*
X013907Y001332D01*
X013930Y001344D01*
X013952Y001358D01*
X013971Y001376D01*
X013989Y001395D01*
X014003Y001417D01*
X014015Y001440D01*
X014023Y001465D01*
X014028Y001491D01*
X014030Y001517D01*
X014030Y002017D01*
X014028Y002043D01*
X014023Y002069D01*
X014015Y002094D01*
X014003Y002117D01*
X013989Y002139D01*
X013971Y002158D01*
X013952Y002176D01*
X013930Y002190D01*
X013907Y002202D01*
X013882Y002210D01*
X013856Y002215D01*
X013830Y002217D01*
X014210Y001647D02*
X014677Y001647D01*
X014910Y001647D02*
X015143Y001764D01*
X015260Y001764D01*
X015377Y001647D01*
X015377Y001413D01*
X015260Y001297D01*
X015027Y001297D01*
X014910Y001413D01*
X014910Y001647D02*
X014910Y001997D01*
X015377Y001997D01*
X014444Y001880D02*
X014444Y001413D01*
X016030Y019817D02*
X017330Y019817D01*
X017356Y019819D01*
X017382Y019824D01*
X017407Y019832D01*
X017430Y019844D01*
X017452Y019858D01*
X017471Y019876D01*
X017489Y019895D01*
X017503Y019917D01*
X017515Y019940D01*
X017523Y019965D01*
X017528Y019991D01*
X017530Y020017D01*
X017530Y020517D01*
X017528Y020543D01*
X017523Y020569D01*
X017515Y020594D01*
X017503Y020617D01*
X017489Y020639D01*
X017471Y020658D01*
X017452Y020676D01*
X017430Y020690D01*
X017407Y020702D01*
X017382Y020710D01*
X017356Y020715D01*
X017330Y020717D01*
X016030Y020717D01*
X016004Y020715D01*
X015978Y020710D01*
X015953Y020702D01*
X015930Y020690D01*
X015908Y020676D01*
X015889Y020658D01*
X015871Y020639D01*
X015857Y020617D01*
X015845Y020594D01*
X015837Y020569D01*
X015832Y020543D01*
X015830Y020517D01*
X015830Y020017D01*
X015832Y019991D01*
X015837Y019965D01*
X015845Y019940D01*
X015857Y019917D01*
X015871Y019895D01*
X015889Y019876D01*
X015908Y019858D01*
X015930Y019844D01*
X015953Y019832D01*
X015978Y019824D01*
X016004Y019819D01*
X016030Y019817D01*
X018080Y020017D02*
X018080Y020517D01*
X018082Y020543D01*
X018087Y020569D01*
X018095Y020594D01*
X018107Y020617D01*
X018121Y020639D01*
X018139Y020658D01*
X018158Y020676D01*
X018180Y020690D01*
X018203Y020702D01*
X018228Y020710D01*
X018254Y020715D01*
X018280Y020717D01*
X019580Y020717D01*
X019606Y020715D01*
X019632Y020710D01*
X019657Y020702D01*
X019680Y020690D01*
X019702Y020676D01*
X019721Y020658D01*
X019739Y020639D01*
X019753Y020617D01*
X019765Y020594D01*
X019773Y020569D01*
X019778Y020543D01*
X019780Y020517D01*
X019780Y020017D01*
X019778Y019991D01*
X019773Y019965D01*
X019765Y019940D01*
X019753Y019917D01*
X019739Y019895D01*
X019721Y019876D01*
X019702Y019858D01*
X019680Y019844D01*
X019657Y019832D01*
X019632Y019824D01*
X019606Y019819D01*
X019580Y019817D01*
X018280Y019817D01*
X018254Y019819D01*
X018228Y019824D01*
X018203Y019832D01*
X018180Y019844D01*
X018158Y019858D01*
X018139Y019876D01*
X018121Y019895D01*
X018107Y019917D01*
X018095Y019940D01*
X018087Y019965D01*
X018082Y019991D01*
X018080Y020017D01*
X023330Y032017D02*
X024030Y032017D01*
X024047Y032019D01*
X024064Y032023D01*
X024080Y032030D01*
X024094Y032040D01*
X024107Y032053D01*
X024117Y032067D01*
X024124Y032083D01*
X024128Y032100D01*
X024130Y032117D01*
X024130Y032267D01*
X024080Y032317D01*
X024080Y034217D01*
X024130Y034267D01*
X024130Y034417D01*
X024128Y034434D01*
X024124Y034451D01*
X024117Y034467D01*
X024107Y034481D01*
X024094Y034494D01*
X024080Y034504D01*
X024064Y034511D01*
X024047Y034515D01*
X024030Y034517D01*
X023330Y034517D01*
X023313Y034515D01*
X023296Y034511D01*
X023280Y034504D01*
X023266Y034494D01*
X023253Y034481D01*
X023243Y034467D01*
X023236Y034451D01*
X023232Y034434D01*
X023230Y034417D01*
X023230Y034267D01*
X023280Y034217D01*
X023280Y032317D01*
X023230Y032267D01*
X023230Y032117D01*
X023232Y032100D01*
X023236Y032083D01*
X023243Y032067D01*
X023253Y032053D01*
X023266Y032040D01*
X023280Y032030D01*
X023296Y032023D01*
X023313Y032019D01*
X023330Y032017D01*
X025230Y034117D02*
X025230Y035417D01*
X025232Y035443D01*
X025237Y035469D01*
X025245Y035494D01*
X025257Y035517D01*
X025271Y035539D01*
X025289Y035558D01*
X025308Y035576D01*
X025330Y035590D01*
X025353Y035602D01*
X025378Y035610D01*
X025404Y035615D01*
X025430Y035617D01*
X025930Y035617D01*
X025956Y035615D01*
X025982Y035610D01*
X026007Y035602D01*
X026030Y035590D01*
X026052Y035576D01*
X026071Y035558D01*
X026089Y035539D01*
X026103Y035517D01*
X026115Y035494D01*
X026123Y035469D01*
X026128Y035443D01*
X026130Y035417D01*
X026130Y034117D01*
X026128Y034091D01*
X026123Y034065D01*
X026115Y034040D01*
X026103Y034017D01*
X026089Y033995D01*
X026071Y033976D01*
X026052Y033958D01*
X026030Y033944D01*
X026007Y033932D01*
X025982Y033924D01*
X025956Y033919D01*
X025930Y033917D01*
X025430Y033917D01*
X025404Y033919D01*
X025378Y033924D01*
X025353Y033932D01*
X025330Y033944D01*
X025308Y033958D01*
X025289Y033976D01*
X025271Y033995D01*
X025257Y034017D01*
X025245Y034040D01*
X025237Y034065D01*
X025232Y034091D01*
X025230Y034117D01*
X028030Y035967D02*
X028230Y035767D01*
X030180Y035767D01*
X030380Y035967D01*
X030380Y039967D01*
X028380Y039967D01*
X028380Y040017D01*
X030380Y040017D01*
X030380Y039967D01*
X028380Y040017D02*
X028030Y040017D01*
X028030Y035967D01*
X028540Y037017D02*
X028542Y037067D01*
X028548Y037117D01*
X028558Y037167D01*
X028571Y037215D01*
X028588Y037263D01*
X028609Y037309D01*
X028633Y037353D01*
X028661Y037395D01*
X028692Y037435D01*
X028726Y037472D01*
X028763Y037507D01*
X028802Y037538D01*
X028843Y037567D01*
X028887Y037592D01*
X028933Y037614D01*
X028980Y037632D01*
X029028Y037646D01*
X029077Y037657D01*
X029127Y037664D01*
X029177Y037667D01*
X029228Y037666D01*
X029278Y037661D01*
X029328Y037652D01*
X029376Y037640D01*
X029424Y037623D01*
X029470Y037603D01*
X029515Y037580D01*
X029558Y037553D01*
X029598Y037523D01*
X029636Y037490D01*
X029671Y037454D01*
X029704Y037415D01*
X029733Y037374D01*
X029759Y037331D01*
X029782Y037286D01*
X029801Y037239D01*
X029816Y037191D01*
X029828Y037142D01*
X029836Y037092D01*
X029840Y037042D01*
X029840Y036992D01*
X029836Y036942D01*
X029828Y036892D01*
X029816Y036843D01*
X029801Y036795D01*
X029782Y036748D01*
X029759Y036703D01*
X029733Y036660D01*
X029704Y036619D01*
X029671Y036580D01*
X029636Y036544D01*
X029598Y036511D01*
X029558Y036481D01*
X029515Y036454D01*
X029470Y036431D01*
X029424Y036411D01*
X029376Y036394D01*
X029328Y036382D01*
X029278Y036373D01*
X029228Y036368D01*
X029177Y036367D01*
X029127Y036370D01*
X029077Y036377D01*
X029028Y036388D01*
X028980Y036402D01*
X028933Y036420D01*
X028887Y036442D01*
X028843Y036467D01*
X028802Y036496D01*
X028763Y036527D01*
X028726Y036562D01*
X028692Y036599D01*
X028661Y036639D01*
X028633Y036681D01*
X028609Y036725D01*
X028588Y036771D01*
X028571Y036819D01*
X028558Y036867D01*
X028548Y036917D01*
X028542Y036967D01*
X028540Y037017D01*
X027930Y039717D02*
X027930Y040017D01*
X028030Y040017D01*
X027930Y040017D02*
X011930Y040017D01*
X011930Y039717D01*
X027930Y039717D01*
X032180Y037767D02*
X032180Y037267D01*
X032430Y037017D01*
X032930Y037017D01*
X033180Y037267D01*
X033180Y037767D01*
X032930Y038017D01*
X032430Y038017D01*
X032180Y037767D01*
X031930Y035367D02*
X032430Y035367D01*
X032456Y035365D01*
X032482Y035360D01*
X032507Y035352D01*
X032530Y035340D01*
X032552Y035326D01*
X032571Y035308D01*
X032589Y035289D01*
X032603Y035267D01*
X032615Y035244D01*
X032623Y035219D01*
X032628Y035193D01*
X032630Y035167D01*
X032630Y033867D01*
X032628Y033841D01*
X032623Y033815D01*
X032615Y033790D01*
X032603Y033767D01*
X032589Y033745D01*
X032571Y033726D01*
X032552Y033708D01*
X032530Y033694D01*
X032507Y033682D01*
X032482Y033674D01*
X032456Y033669D01*
X032430Y033667D01*
X031930Y033667D01*
X031904Y033669D01*
X031878Y033674D01*
X031853Y033682D01*
X031830Y033694D01*
X031808Y033708D01*
X031789Y033726D01*
X031771Y033745D01*
X031757Y033767D01*
X031745Y033790D01*
X031737Y033815D01*
X031732Y033841D01*
X031730Y033867D01*
X031730Y035167D01*
X031732Y035193D01*
X031737Y035219D01*
X031745Y035244D01*
X031757Y035267D01*
X031771Y035289D01*
X031789Y035308D01*
X031808Y035326D01*
X031830Y035340D01*
X031853Y035352D01*
X031878Y035360D01*
X031904Y035365D01*
X031930Y035367D01*
X035444Y037381D02*
X035446Y037454D01*
X035452Y037527D01*
X035462Y037599D01*
X035476Y037671D01*
X035493Y037742D01*
X035515Y037812D01*
X035540Y037881D01*
X035569Y037948D01*
X035601Y038013D01*
X035637Y038077D01*
X035677Y038139D01*
X035719Y038198D01*
X035765Y038255D01*
X035814Y038309D01*
X035866Y038361D01*
X035920Y038410D01*
X035977Y038456D01*
X036036Y038498D01*
X036098Y038538D01*
X036162Y038574D01*
X036227Y038606D01*
X036294Y038635D01*
X036363Y038660D01*
X036433Y038682D01*
X036504Y038699D01*
X036576Y038713D01*
X036648Y038723D01*
X036721Y038729D01*
X036794Y038731D01*
X036867Y038729D01*
X036940Y038723D01*
X037012Y038713D01*
X037084Y038699D01*
X037155Y038682D01*
X037225Y038660D01*
X037294Y038635D01*
X037361Y038606D01*
X037426Y038574D01*
X037490Y038538D01*
X037552Y038498D01*
X037611Y038456D01*
X037668Y038410D01*
X037722Y038361D01*
X037774Y038309D01*
X037823Y038255D01*
X037869Y038198D01*
X037911Y038139D01*
X037951Y038077D01*
X037987Y038013D01*
X038019Y037948D01*
X038048Y037881D01*
X038073Y037812D01*
X038095Y037742D01*
X038112Y037671D01*
X038126Y037599D01*
X038136Y037527D01*
X038142Y037454D01*
X038144Y037381D01*
X038142Y037308D01*
X038136Y037235D01*
X038126Y037163D01*
X038112Y037091D01*
X038095Y037020D01*
X038073Y036950D01*
X038048Y036881D01*
X038019Y036814D01*
X037987Y036749D01*
X037951Y036685D01*
X037911Y036623D01*
X037869Y036564D01*
X037823Y036507D01*
X037774Y036453D01*
X037722Y036401D01*
X037668Y036352D01*
X037611Y036306D01*
X037552Y036264D01*
X037490Y036224D01*
X037426Y036188D01*
X037361Y036156D01*
X037294Y036127D01*
X037225Y036102D01*
X037155Y036080D01*
X037084Y036063D01*
X037012Y036049D01*
X036940Y036039D01*
X036867Y036033D01*
X036794Y036031D01*
X036721Y036033D01*
X036648Y036039D01*
X036576Y036049D01*
X036504Y036063D01*
X036433Y036080D01*
X036363Y036102D01*
X036294Y036127D01*
X036227Y036156D01*
X036162Y036188D01*
X036098Y036224D01*
X036036Y036264D01*
X035977Y036306D01*
X035920Y036352D01*
X035866Y036401D01*
X035814Y036453D01*
X035765Y036507D01*
X035719Y036564D01*
X035677Y036623D01*
X035637Y036685D01*
X035601Y036749D01*
X035569Y036814D01*
X035540Y036881D01*
X035515Y036950D01*
X035493Y037020D01*
X035476Y037091D01*
X035462Y037163D01*
X035452Y037235D01*
X035446Y037308D01*
X035444Y037381D01*
X037997Y034775D02*
X037997Y028759D01*
X036913Y022977D02*
X036713Y022977D01*
X036613Y022977D01*
X036913Y022777D02*
X037113Y022627D01*
X037113Y022577D01*
X036913Y011703D02*
X036713Y011703D01*
X036613Y011703D01*
X036913Y011503D02*
X037113Y011353D01*
X037113Y011303D01*
X035444Y003523D02*
X035446Y003596D01*
X035452Y003669D01*
X035462Y003741D01*
X035476Y003813D01*
X035493Y003884D01*
X035515Y003954D01*
X035540Y004023D01*
X035569Y004090D01*
X035601Y004155D01*
X035637Y004219D01*
X035677Y004281D01*
X035719Y004340D01*
X035765Y004397D01*
X035814Y004451D01*
X035866Y004503D01*
X035920Y004552D01*
X035977Y004598D01*
X036036Y004640D01*
X036098Y004680D01*
X036162Y004716D01*
X036227Y004748D01*
X036294Y004777D01*
X036363Y004802D01*
X036433Y004824D01*
X036504Y004841D01*
X036576Y004855D01*
X036648Y004865D01*
X036721Y004871D01*
X036794Y004873D01*
X036867Y004871D01*
X036940Y004865D01*
X037012Y004855D01*
X037084Y004841D01*
X037155Y004824D01*
X037225Y004802D01*
X037294Y004777D01*
X037361Y004748D01*
X037426Y004716D01*
X037490Y004680D01*
X037552Y004640D01*
X037611Y004598D01*
X037668Y004552D01*
X037722Y004503D01*
X037774Y004451D01*
X037823Y004397D01*
X037869Y004340D01*
X037911Y004281D01*
X037951Y004219D01*
X037987Y004155D01*
X038019Y004090D01*
X038048Y004023D01*
X038073Y003954D01*
X038095Y003884D01*
X038112Y003813D01*
X038126Y003741D01*
X038136Y003669D01*
X038142Y003596D01*
X038144Y003523D01*
X038142Y003450D01*
X038136Y003377D01*
X038126Y003305D01*
X038112Y003233D01*
X038095Y003162D01*
X038073Y003092D01*
X038048Y003023D01*
X038019Y002956D01*
X037987Y002891D01*
X037951Y002827D01*
X037911Y002765D01*
X037869Y002706D01*
X037823Y002649D01*
X037774Y002595D01*
X037722Y002543D01*
X037668Y002494D01*
X037611Y002448D01*
X037552Y002406D01*
X037490Y002366D01*
X037426Y002330D01*
X037361Y002298D01*
X037294Y002269D01*
X037225Y002244D01*
X037155Y002222D01*
X037084Y002205D01*
X037012Y002191D01*
X036940Y002181D01*
X036867Y002175D01*
X036794Y002173D01*
X036721Y002175D01*
X036648Y002181D01*
X036576Y002191D01*
X036504Y002205D01*
X036433Y002222D01*
X036363Y002244D01*
X036294Y002269D01*
X036227Y002298D01*
X036162Y002330D01*
X036098Y002366D01*
X036036Y002406D01*
X035977Y002448D01*
X035920Y002494D01*
X035866Y002543D01*
X035814Y002595D01*
X035765Y002649D01*
X035719Y002706D01*
X035677Y002765D01*
X035637Y002827D01*
X035601Y002891D01*
X035569Y002956D01*
X035540Y003023D01*
X035515Y003092D01*
X035493Y003162D01*
X035476Y003233D01*
X035462Y003305D01*
X035452Y003377D01*
X035446Y003450D01*
X035444Y003523D01*
X003280Y028267D02*
X003280Y028767D01*
X003278Y028793D01*
X003273Y028819D01*
X003265Y028844D01*
X003253Y028867D01*
X003239Y028889D01*
X003221Y028908D01*
X003202Y028926D01*
X003180Y028940D01*
X003157Y028952D01*
X003132Y028960D01*
X003106Y028965D01*
X003080Y028967D01*
X001780Y028967D01*
X001754Y028965D01*
X001728Y028960D01*
X001703Y028952D01*
X001680Y028940D01*
X001658Y028926D01*
X001639Y028908D01*
X001621Y028889D01*
X001607Y028867D01*
X001595Y028844D01*
X001587Y028819D01*
X001582Y028793D01*
X001580Y028767D01*
X001580Y028267D01*
X001582Y028241D01*
X001587Y028215D01*
X001595Y028190D01*
X001607Y028167D01*
X001621Y028145D01*
X001639Y028126D01*
X001658Y028108D01*
X001680Y028094D01*
X001703Y028082D01*
X001728Y028074D01*
X001754Y028069D01*
X001780Y028067D01*
X003080Y028067D01*
X003106Y028069D01*
X003132Y028074D01*
X003157Y028082D01*
X003180Y028094D01*
X003202Y028108D01*
X003221Y028126D01*
X003239Y028145D01*
X003253Y028167D01*
X003265Y028190D01*
X003273Y028215D01*
X003278Y028241D01*
X003280Y028267D01*
X009480Y039967D02*
X010430Y039967D01*
X011830Y040017D02*
X011930Y040017D01*
D14*
X003383Y033780D02*
X001493Y033780D01*
X001493Y029253D01*
X003383Y029253D01*
X003383Y033780D01*
X002267Y037381D02*
X002269Y037432D01*
X002275Y037483D01*
X002285Y037533D01*
X002298Y037583D01*
X002316Y037631D01*
X002336Y037678D01*
X002361Y037723D01*
X002389Y037766D01*
X002420Y037807D01*
X002454Y037845D01*
X002491Y037880D01*
X002530Y037913D01*
X002572Y037943D01*
X002616Y037969D01*
X002662Y037991D01*
X002710Y038011D01*
X002759Y038026D01*
X002809Y038038D01*
X002859Y038046D01*
X002910Y038050D01*
X002962Y038050D01*
X003013Y038046D01*
X003063Y038038D01*
X003113Y038026D01*
X003162Y038011D01*
X003210Y037991D01*
X003256Y037969D01*
X003300Y037943D01*
X003342Y037913D01*
X003381Y037880D01*
X003418Y037845D01*
X003452Y037807D01*
X003483Y037766D01*
X003511Y037723D01*
X003536Y037678D01*
X003556Y037631D01*
X003574Y037583D01*
X003587Y037533D01*
X003597Y037483D01*
X003603Y037432D01*
X003605Y037381D01*
X003603Y037330D01*
X003597Y037279D01*
X003587Y037229D01*
X003574Y037179D01*
X003556Y037131D01*
X003536Y037084D01*
X003511Y037039D01*
X003483Y036996D01*
X003452Y036955D01*
X003418Y036917D01*
X003381Y036882D01*
X003342Y036849D01*
X003300Y036819D01*
X003256Y036793D01*
X003210Y036771D01*
X003162Y036751D01*
X003113Y036736D01*
X003063Y036724D01*
X003013Y036716D01*
X002962Y036712D01*
X002910Y036712D01*
X002859Y036716D01*
X002809Y036724D01*
X002759Y036736D01*
X002710Y036751D01*
X002662Y036771D01*
X002616Y036793D01*
X002572Y036819D01*
X002530Y036849D01*
X002491Y036882D01*
X002454Y036917D01*
X002420Y036955D01*
X002389Y036996D01*
X002361Y037039D01*
X002336Y037084D01*
X002316Y037131D01*
X002298Y037179D01*
X002285Y037229D01*
X002275Y037279D01*
X002269Y037330D01*
X002267Y037381D01*
X015688Y004111D02*
X015688Y003993D01*
X019688Y003993D01*
X019688Y004111D01*
X015688Y004111D01*
X015688Y003993D02*
X015688Y003748D01*
X015688Y003480D01*
X015688Y003287D01*
X015688Y001713D01*
X015688Y001523D01*
X015688Y000922D01*
X019688Y000922D01*
X019688Y001523D01*
X019688Y001713D01*
X019688Y003287D01*
X019688Y003480D01*
X015688Y003480D01*
X015688Y003748D02*
X019688Y003748D01*
X019688Y003827D01*
X019688Y003993D01*
X019809Y003886D02*
X019739Y003827D01*
X019688Y003827D01*
X019688Y003748D02*
X019688Y003664D01*
X019688Y003480D01*
X019809Y003604D02*
X019739Y003664D01*
X019688Y003664D01*
X019809Y003604D02*
X019913Y003604D01*
X019913Y003886D01*
X019809Y003886D01*
X017934Y002507D02*
X017936Y002561D01*
X017942Y002616D01*
X017952Y002669D01*
X017965Y002722D01*
X017983Y002773D01*
X018004Y002824D01*
X018028Y002872D01*
X018056Y002919D01*
X018088Y002963D01*
X018122Y003005D01*
X018160Y003045D01*
X018200Y003082D01*
X018243Y003115D01*
X018288Y003146D01*
X018335Y003173D01*
X018384Y003197D01*
X018434Y003217D01*
X018486Y003234D01*
X018539Y003246D01*
X018593Y003255D01*
X018647Y003260D01*
X018702Y003261D01*
X018756Y003258D01*
X018810Y003251D01*
X018863Y003240D01*
X018916Y003226D01*
X018967Y003207D01*
X019017Y003185D01*
X019065Y003160D01*
X019111Y003131D01*
X019155Y003099D01*
X019197Y003064D01*
X019235Y003026D01*
X019271Y002985D01*
X019304Y002941D01*
X019334Y002896D01*
X019360Y002848D01*
X019383Y002799D01*
X019403Y002748D01*
X019418Y002696D01*
X019430Y002642D01*
X019438Y002589D01*
X019442Y002534D01*
X019442Y002480D01*
X019438Y002425D01*
X019430Y002372D01*
X019418Y002318D01*
X019403Y002266D01*
X019383Y002215D01*
X019360Y002166D01*
X019334Y002118D01*
X019304Y002073D01*
X019271Y002029D01*
X019235Y001988D01*
X019197Y001950D01*
X019155Y001915D01*
X019111Y001883D01*
X019065Y001854D01*
X019017Y001829D01*
X018967Y001807D01*
X018916Y001788D01*
X018863Y001774D01*
X018810Y001763D01*
X018756Y001756D01*
X018702Y001753D01*
X018647Y001754D01*
X018593Y001759D01*
X018539Y001768D01*
X018486Y001780D01*
X018434Y001797D01*
X018384Y001817D01*
X018335Y001841D01*
X018288Y001868D01*
X018243Y001899D01*
X018200Y001932D01*
X018160Y001969D01*
X018122Y002009D01*
X018088Y002051D01*
X018056Y002095D01*
X018028Y002142D01*
X018004Y002190D01*
X017983Y002241D01*
X017965Y002292D01*
X017952Y002345D01*
X017942Y002398D01*
X017936Y002453D01*
X017934Y002507D01*
X015934Y002507D02*
X015936Y002561D01*
X015942Y002616D01*
X015952Y002669D01*
X015965Y002722D01*
X015983Y002773D01*
X016004Y002824D01*
X016028Y002872D01*
X016056Y002919D01*
X016088Y002963D01*
X016122Y003005D01*
X016160Y003045D01*
X016200Y003082D01*
X016243Y003115D01*
X016288Y003146D01*
X016335Y003173D01*
X016384Y003197D01*
X016434Y003217D01*
X016486Y003234D01*
X016539Y003246D01*
X016593Y003255D01*
X016647Y003260D01*
X016702Y003261D01*
X016756Y003258D01*
X016810Y003251D01*
X016863Y003240D01*
X016916Y003226D01*
X016967Y003207D01*
X017017Y003185D01*
X017065Y003160D01*
X017111Y003131D01*
X017155Y003099D01*
X017197Y003064D01*
X017235Y003026D01*
X017271Y002985D01*
X017304Y002941D01*
X017334Y002896D01*
X017360Y002848D01*
X017383Y002799D01*
X017403Y002748D01*
X017418Y002696D01*
X017430Y002642D01*
X017438Y002589D01*
X017442Y002534D01*
X017442Y002480D01*
X017438Y002425D01*
X017430Y002372D01*
X017418Y002318D01*
X017403Y002266D01*
X017383Y002215D01*
X017360Y002166D01*
X017334Y002118D01*
X017304Y002073D01*
X017271Y002029D01*
X017235Y001988D01*
X017197Y001950D01*
X017155Y001915D01*
X017111Y001883D01*
X017065Y001854D01*
X017017Y001829D01*
X016967Y001807D01*
X016916Y001788D01*
X016863Y001774D01*
X016810Y001763D01*
X016756Y001756D01*
X016702Y001753D01*
X016647Y001754D01*
X016593Y001759D01*
X016539Y001768D01*
X016486Y001780D01*
X016434Y001797D01*
X016384Y001817D01*
X016335Y001841D01*
X016288Y001868D01*
X016243Y001899D01*
X016200Y001932D01*
X016160Y001969D01*
X016122Y002009D01*
X016088Y002051D01*
X016056Y002095D01*
X016028Y002142D01*
X016004Y002190D01*
X015983Y002241D01*
X015965Y002292D01*
X015952Y002345D01*
X015942Y002398D01*
X015936Y002453D01*
X015934Y002507D01*
X015688Y001523D02*
X019688Y001523D01*
X002267Y003523D02*
X002269Y003574D01*
X002275Y003625D01*
X002285Y003675D01*
X002298Y003725D01*
X002316Y003773D01*
X002336Y003820D01*
X002361Y003865D01*
X002389Y003908D01*
X002420Y003949D01*
X002454Y003987D01*
X002491Y004022D01*
X002530Y004055D01*
X002572Y004085D01*
X002616Y004111D01*
X002662Y004133D01*
X002710Y004153D01*
X002759Y004168D01*
X002809Y004180D01*
X002859Y004188D01*
X002910Y004192D01*
X002962Y004192D01*
X003013Y004188D01*
X003063Y004180D01*
X003113Y004168D01*
X003162Y004153D01*
X003210Y004133D01*
X003256Y004111D01*
X003300Y004085D01*
X003342Y004055D01*
X003381Y004022D01*
X003418Y003987D01*
X003452Y003949D01*
X003483Y003908D01*
X003511Y003865D01*
X003536Y003820D01*
X003556Y003773D01*
X003574Y003725D01*
X003587Y003675D01*
X003597Y003625D01*
X003603Y003574D01*
X003605Y003523D01*
X003603Y003472D01*
X003597Y003421D01*
X003587Y003371D01*
X003574Y003321D01*
X003556Y003273D01*
X003536Y003226D01*
X003511Y003181D01*
X003483Y003138D01*
X003452Y003097D01*
X003418Y003059D01*
X003381Y003024D01*
X003342Y002991D01*
X003300Y002961D01*
X003256Y002935D01*
X003210Y002913D01*
X003162Y002893D01*
X003113Y002878D01*
X003063Y002866D01*
X003013Y002858D01*
X002962Y002854D01*
X002910Y002854D01*
X002859Y002858D01*
X002809Y002866D01*
X002759Y002878D01*
X002710Y002893D01*
X002662Y002913D01*
X002616Y002935D01*
X002572Y002961D01*
X002530Y002991D01*
X002491Y003024D01*
X002454Y003059D01*
X002420Y003097D01*
X002389Y003138D01*
X002361Y003181D01*
X002336Y003226D01*
X002316Y003273D01*
X002298Y003321D01*
X002285Y003371D01*
X002275Y003421D01*
X002269Y003472D01*
X002267Y003523D01*
X036125Y003523D02*
X036127Y003574D01*
X036133Y003625D01*
X036143Y003675D01*
X036156Y003725D01*
X036174Y003773D01*
X036194Y003820D01*
X036219Y003865D01*
X036247Y003908D01*
X036278Y003949D01*
X036312Y003987D01*
X036349Y004022D01*
X036388Y004055D01*
X036430Y004085D01*
X036474Y004111D01*
X036520Y004133D01*
X036568Y004153D01*
X036617Y004168D01*
X036667Y004180D01*
X036717Y004188D01*
X036768Y004192D01*
X036820Y004192D01*
X036871Y004188D01*
X036921Y004180D01*
X036971Y004168D01*
X037020Y004153D01*
X037068Y004133D01*
X037114Y004111D01*
X037158Y004085D01*
X037200Y004055D01*
X037239Y004022D01*
X037276Y003987D01*
X037310Y003949D01*
X037341Y003908D01*
X037369Y003865D01*
X037394Y003820D01*
X037414Y003773D01*
X037432Y003725D01*
X037445Y003675D01*
X037455Y003625D01*
X037461Y003574D01*
X037463Y003523D01*
X037461Y003472D01*
X037455Y003421D01*
X037445Y003371D01*
X037432Y003321D01*
X037414Y003273D01*
X037394Y003226D01*
X037369Y003181D01*
X037341Y003138D01*
X037310Y003097D01*
X037276Y003059D01*
X037239Y003024D01*
X037200Y002991D01*
X037158Y002961D01*
X037114Y002935D01*
X037068Y002913D01*
X037020Y002893D01*
X036971Y002878D01*
X036921Y002866D01*
X036871Y002858D01*
X036820Y002854D01*
X036768Y002854D01*
X036717Y002858D01*
X036667Y002866D01*
X036617Y002878D01*
X036568Y002893D01*
X036520Y002913D01*
X036474Y002935D01*
X036430Y002961D01*
X036388Y002991D01*
X036349Y003024D01*
X036312Y003059D01*
X036278Y003097D01*
X036247Y003138D01*
X036219Y003181D01*
X036194Y003226D01*
X036174Y003273D01*
X036156Y003321D01*
X036143Y003371D01*
X036133Y003421D01*
X036127Y003472D01*
X036125Y003523D01*
X036125Y037381D02*
X036127Y037432D01*
X036133Y037483D01*
X036143Y037533D01*
X036156Y037583D01*
X036174Y037631D01*
X036194Y037678D01*
X036219Y037723D01*
X036247Y037766D01*
X036278Y037807D01*
X036312Y037845D01*
X036349Y037880D01*
X036388Y037913D01*
X036430Y037943D01*
X036474Y037969D01*
X036520Y037991D01*
X036568Y038011D01*
X036617Y038026D01*
X036667Y038038D01*
X036717Y038046D01*
X036768Y038050D01*
X036820Y038050D01*
X036871Y038046D01*
X036921Y038038D01*
X036971Y038026D01*
X037020Y038011D01*
X037068Y037991D01*
X037114Y037969D01*
X037158Y037943D01*
X037200Y037913D01*
X037239Y037880D01*
X037276Y037845D01*
X037310Y037807D01*
X037341Y037766D01*
X037369Y037723D01*
X037394Y037678D01*
X037414Y037631D01*
X037432Y037583D01*
X037445Y037533D01*
X037455Y037483D01*
X037461Y037432D01*
X037463Y037381D01*
X037461Y037330D01*
X037455Y037279D01*
X037445Y037229D01*
X037432Y037179D01*
X037414Y037131D01*
X037394Y037084D01*
X037369Y037039D01*
X037341Y036996D01*
X037310Y036955D01*
X037276Y036917D01*
X037239Y036882D01*
X037200Y036849D01*
X037158Y036819D01*
X037114Y036793D01*
X037068Y036771D01*
X037020Y036751D01*
X036971Y036736D01*
X036921Y036724D01*
X036871Y036716D01*
X036820Y036712D01*
X036768Y036712D01*
X036717Y036716D01*
X036667Y036724D01*
X036617Y036736D01*
X036568Y036751D01*
X036520Y036771D01*
X036474Y036793D01*
X036430Y036819D01*
X036388Y036849D01*
X036349Y036882D01*
X036312Y036917D01*
X036278Y036955D01*
X036247Y036996D01*
X036219Y037039D01*
X036194Y037084D01*
X036174Y037131D01*
X036156Y037179D01*
X036143Y037229D01*
X036133Y037279D01*
X036127Y037330D01*
X036125Y037381D01*
D15*
X036164Y037381D02*
X036166Y037431D01*
X036172Y037481D01*
X036182Y037530D01*
X036196Y037578D01*
X036213Y037625D01*
X036234Y037670D01*
X036259Y037714D01*
X036287Y037755D01*
X036319Y037794D01*
X036353Y037831D01*
X036390Y037865D01*
X036430Y037895D01*
X036472Y037922D01*
X036516Y037946D01*
X036562Y037967D01*
X036609Y037983D01*
X036657Y037996D01*
X036707Y038005D01*
X036756Y038010D01*
X036807Y038011D01*
X036857Y038008D01*
X036906Y038001D01*
X036955Y037990D01*
X037003Y037975D01*
X037049Y037957D01*
X037094Y037935D01*
X037137Y037909D01*
X037178Y037880D01*
X037217Y037848D01*
X037253Y037813D01*
X037285Y037775D01*
X037315Y037735D01*
X037342Y037692D01*
X037365Y037648D01*
X037384Y037602D01*
X037400Y037554D01*
X037412Y037505D01*
X037420Y037456D01*
X037424Y037406D01*
X037424Y037356D01*
X037420Y037306D01*
X037412Y037257D01*
X037400Y037208D01*
X037384Y037160D01*
X037365Y037114D01*
X037342Y037070D01*
X037315Y037027D01*
X037285Y036987D01*
X037253Y036949D01*
X037217Y036914D01*
X037178Y036882D01*
X037137Y036853D01*
X037094Y036827D01*
X037049Y036805D01*
X037003Y036787D01*
X036955Y036772D01*
X036906Y036761D01*
X036857Y036754D01*
X036807Y036751D01*
X036756Y036752D01*
X036707Y036757D01*
X036657Y036766D01*
X036609Y036779D01*
X036562Y036795D01*
X036516Y036816D01*
X036472Y036840D01*
X036430Y036867D01*
X036390Y036897D01*
X036353Y036931D01*
X036319Y036968D01*
X036287Y037007D01*
X036259Y037048D01*
X036234Y037092D01*
X036213Y037137D01*
X036196Y037184D01*
X036182Y037232D01*
X036172Y037281D01*
X036166Y037331D01*
X036164Y037381D01*
X002306Y037381D02*
X002308Y037431D01*
X002314Y037481D01*
X002324Y037530D01*
X002338Y037578D01*
X002355Y037625D01*
X002376Y037670D01*
X002401Y037714D01*
X002429Y037755D01*
X002461Y037794D01*
X002495Y037831D01*
X002532Y037865D01*
X002572Y037895D01*
X002614Y037922D01*
X002658Y037946D01*
X002704Y037967D01*
X002751Y037983D01*
X002799Y037996D01*
X002849Y038005D01*
X002898Y038010D01*
X002949Y038011D01*
X002999Y038008D01*
X003048Y038001D01*
X003097Y037990D01*
X003145Y037975D01*
X003191Y037957D01*
X003236Y037935D01*
X003279Y037909D01*
X003320Y037880D01*
X003359Y037848D01*
X003395Y037813D01*
X003427Y037775D01*
X003457Y037735D01*
X003484Y037692D01*
X003507Y037648D01*
X003526Y037602D01*
X003542Y037554D01*
X003554Y037505D01*
X003562Y037456D01*
X003566Y037406D01*
X003566Y037356D01*
X003562Y037306D01*
X003554Y037257D01*
X003542Y037208D01*
X003526Y037160D01*
X003507Y037114D01*
X003484Y037070D01*
X003457Y037027D01*
X003427Y036987D01*
X003395Y036949D01*
X003359Y036914D01*
X003320Y036882D01*
X003279Y036853D01*
X003236Y036827D01*
X003191Y036805D01*
X003145Y036787D01*
X003097Y036772D01*
X003048Y036761D01*
X002999Y036754D01*
X002949Y036751D01*
X002898Y036752D01*
X002849Y036757D01*
X002799Y036766D01*
X002751Y036779D01*
X002704Y036795D01*
X002658Y036816D01*
X002614Y036840D01*
X002572Y036867D01*
X002532Y036897D01*
X002495Y036931D01*
X002461Y036968D01*
X002429Y037007D01*
X002401Y037048D01*
X002376Y037092D01*
X002355Y037137D01*
X002338Y037184D01*
X002324Y037232D01*
X002314Y037281D01*
X002308Y037331D01*
X002306Y037381D01*
X002306Y003523D02*
X002308Y003573D01*
X002314Y003623D01*
X002324Y003672D01*
X002338Y003720D01*
X002355Y003767D01*
X002376Y003812D01*
X002401Y003856D01*
X002429Y003897D01*
X002461Y003936D01*
X002495Y003973D01*
X002532Y004007D01*
X002572Y004037D01*
X002614Y004064D01*
X002658Y004088D01*
X002704Y004109D01*
X002751Y004125D01*
X002799Y004138D01*
X002849Y004147D01*
X002898Y004152D01*
X002949Y004153D01*
X002999Y004150D01*
X003048Y004143D01*
X003097Y004132D01*
X003145Y004117D01*
X003191Y004099D01*
X003236Y004077D01*
X003279Y004051D01*
X003320Y004022D01*
X003359Y003990D01*
X003395Y003955D01*
X003427Y003917D01*
X003457Y003877D01*
X003484Y003834D01*
X003507Y003790D01*
X003526Y003744D01*
X003542Y003696D01*
X003554Y003647D01*
X003562Y003598D01*
X003566Y003548D01*
X003566Y003498D01*
X003562Y003448D01*
X003554Y003399D01*
X003542Y003350D01*
X003526Y003302D01*
X003507Y003256D01*
X003484Y003212D01*
X003457Y003169D01*
X003427Y003129D01*
X003395Y003091D01*
X003359Y003056D01*
X003320Y003024D01*
X003279Y002995D01*
X003236Y002969D01*
X003191Y002947D01*
X003145Y002929D01*
X003097Y002914D01*
X003048Y002903D01*
X002999Y002896D01*
X002949Y002893D01*
X002898Y002894D01*
X002849Y002899D01*
X002799Y002908D01*
X002751Y002921D01*
X002704Y002937D01*
X002658Y002958D01*
X002614Y002982D01*
X002572Y003009D01*
X002532Y003039D01*
X002495Y003073D01*
X002461Y003110D01*
X002429Y003149D01*
X002401Y003190D01*
X002376Y003234D01*
X002355Y003279D01*
X002338Y003326D01*
X002324Y003374D01*
X002314Y003423D01*
X002308Y003473D01*
X002306Y003523D01*
X036164Y003523D02*
X036166Y003573D01*
X036172Y003623D01*
X036182Y003672D01*
X036196Y003720D01*
X036213Y003767D01*
X036234Y003812D01*
X036259Y003856D01*
X036287Y003897D01*
X036319Y003936D01*
X036353Y003973D01*
X036390Y004007D01*
X036430Y004037D01*
X036472Y004064D01*
X036516Y004088D01*
X036562Y004109D01*
X036609Y004125D01*
X036657Y004138D01*
X036707Y004147D01*
X036756Y004152D01*
X036807Y004153D01*
X036857Y004150D01*
X036906Y004143D01*
X036955Y004132D01*
X037003Y004117D01*
X037049Y004099D01*
X037094Y004077D01*
X037137Y004051D01*
X037178Y004022D01*
X037217Y003990D01*
X037253Y003955D01*
X037285Y003917D01*
X037315Y003877D01*
X037342Y003834D01*
X037365Y003790D01*
X037384Y003744D01*
X037400Y003696D01*
X037412Y003647D01*
X037420Y003598D01*
X037424Y003548D01*
X037424Y003498D01*
X037420Y003448D01*
X037412Y003399D01*
X037400Y003350D01*
X037384Y003302D01*
X037365Y003256D01*
X037342Y003212D01*
X037315Y003169D01*
X037285Y003129D01*
X037253Y003091D01*
X037217Y003056D01*
X037178Y003024D01*
X037137Y002995D01*
X037094Y002969D01*
X037049Y002947D01*
X037003Y002929D01*
X036955Y002914D01*
X036906Y002903D01*
X036857Y002896D01*
X036807Y002893D01*
X036756Y002894D01*
X036707Y002899D01*
X036657Y002908D01*
X036609Y002921D01*
X036562Y002937D01*
X036516Y002958D01*
X036472Y002982D01*
X036430Y003009D01*
X036390Y003039D01*
X036353Y003073D01*
X036319Y003110D01*
X036287Y003149D01*
X036259Y003190D01*
X036234Y003234D01*
X036213Y003279D01*
X036196Y003326D01*
X036182Y003374D01*
X036172Y003423D01*
X036166Y003473D01*
X036164Y003523D01*
D16*
X036088Y007528D02*
X036088Y007828D01*
X036088Y007678D02*
X035638Y007678D01*
X035788Y007528D01*
X035088Y007528D02*
X034788Y007828D01*
X034713Y007828D01*
X034638Y007753D01*
X034638Y007603D01*
X034713Y007528D01*
X035088Y007528D02*
X035088Y007828D01*
X036638Y010128D02*
X036488Y010278D01*
X036938Y010278D01*
X036938Y010128D02*
X036938Y010428D01*
X036863Y010588D02*
X036563Y010889D01*
X036863Y010889D01*
X036938Y010813D01*
X036938Y010663D01*
X036863Y010588D01*
X036563Y010588D01*
X036488Y010663D01*
X036488Y010813D01*
X036563Y010889D01*
X030769Y009803D02*
X030769Y009653D01*
X030694Y009578D01*
X030469Y009578D01*
X030469Y009427D02*
X030469Y009878D01*
X030694Y009878D01*
X030769Y009803D01*
X030312Y009878D02*
X030162Y009878D01*
X030237Y009878D02*
X030237Y009427D01*
X030162Y009427D02*
X030312Y009427D01*
X030001Y009503D02*
X030001Y009803D01*
X029926Y009878D01*
X029701Y009878D01*
X029701Y009427D01*
X029926Y009427D01*
X030001Y009503D01*
X029541Y009503D02*
X029541Y009803D01*
X029466Y009878D01*
X029316Y009878D01*
X029241Y009803D01*
X029241Y009728D01*
X029316Y009653D01*
X029541Y009653D01*
X029541Y009503D02*
X029466Y009427D01*
X029316Y009427D01*
X029241Y009503D01*
X029081Y009503D02*
X029006Y009427D01*
X028855Y009427D01*
X028780Y009503D01*
X028780Y009578D01*
X028855Y009653D01*
X029006Y009653D01*
X029081Y009578D01*
X029081Y009503D01*
X029006Y009653D02*
X029081Y009728D01*
X029081Y009803D01*
X029006Y009878D01*
X028855Y009878D01*
X028780Y009803D01*
X028780Y009728D01*
X028855Y009653D01*
X028620Y009653D02*
X028320Y009653D01*
X028545Y009878D01*
X028545Y009427D01*
X028160Y009427D02*
X027860Y009427D01*
X028010Y009427D02*
X028010Y009878D01*
X027860Y009728D01*
X027700Y009803D02*
X027624Y009878D01*
X027474Y009878D01*
X027399Y009803D01*
X027399Y009503D01*
X027474Y009427D01*
X027624Y009427D01*
X027700Y009503D01*
X027239Y009427D02*
X027239Y009878D01*
X027089Y009728D01*
X026939Y009878D01*
X026939Y009427D01*
X025408Y011726D02*
X025408Y011953D01*
X025408Y011840D02*
X025068Y011840D01*
X025181Y011726D01*
X022405Y013342D02*
X022330Y013342D01*
X022030Y013642D01*
X021955Y013642D01*
X021955Y013342D01*
X022180Y013802D02*
X022180Y014102D01*
X022180Y014262D02*
X022180Y014563D01*
X022030Y014723D02*
X022330Y014723D01*
X022405Y014798D01*
X022405Y014948D01*
X022330Y015023D01*
X022330Y015183D02*
X022405Y015258D01*
X022405Y015408D01*
X022330Y015483D01*
X022180Y015483D01*
X022105Y015408D01*
X022105Y015333D01*
X022180Y015183D01*
X021955Y015183D01*
X021955Y015483D01*
X022030Y015644D02*
X022105Y015644D01*
X022180Y015719D01*
X022180Y015944D01*
X022330Y015944D02*
X022030Y015944D01*
X021955Y015869D01*
X021955Y015719D01*
X022030Y015644D01*
X022330Y015644D02*
X022405Y015719D01*
X022405Y015869D01*
X022330Y015944D01*
X022330Y016104D02*
X022405Y016104D01*
X022330Y016104D02*
X022030Y016404D01*
X021955Y016404D01*
X021955Y016104D01*
X021955Y016564D02*
X022405Y016865D01*
X021955Y016865D01*
X021955Y016564D02*
X022405Y016564D01*
X022030Y015023D02*
X021955Y014948D01*
X021955Y014798D01*
X022030Y014723D01*
X021955Y014563D02*
X022405Y014563D01*
X022405Y014262D02*
X021955Y014262D01*
X021955Y014027D02*
X022180Y013802D01*
X022405Y014027D02*
X021955Y014027D01*
X024258Y015201D02*
X024333Y015126D01*
X024258Y015201D02*
X024258Y015352D01*
X024333Y015427D01*
X024408Y015427D01*
X024708Y015126D01*
X024708Y015427D01*
X024708Y015587D02*
X024258Y015587D01*
X024483Y015662D02*
X024708Y015887D01*
X024708Y016047D02*
X024633Y016047D01*
X024333Y016347D01*
X024258Y016347D01*
X024258Y016047D01*
X024258Y015887D02*
X024558Y015587D01*
X026939Y015727D02*
X026939Y016177D01*
X027089Y016027D01*
X027239Y016177D01*
X027239Y015727D01*
X027399Y015802D02*
X027474Y015727D01*
X027624Y015727D01*
X027700Y015802D01*
X027860Y015727D02*
X028160Y015727D01*
X028010Y015727D02*
X028010Y016177D01*
X027860Y016027D01*
X027700Y016102D02*
X027624Y016177D01*
X027474Y016177D01*
X027399Y016102D01*
X027399Y015802D01*
X028320Y015952D02*
X028620Y015952D01*
X028780Y016027D02*
X028780Y016102D01*
X028855Y016177D01*
X029006Y016177D01*
X029081Y016102D01*
X029081Y016027D01*
X029006Y015952D01*
X028855Y015952D01*
X028780Y016027D01*
X028855Y015952D02*
X028780Y015877D01*
X028780Y015802D01*
X028855Y015727D01*
X029006Y015727D01*
X029081Y015802D01*
X029081Y015877D01*
X029006Y015952D01*
X029241Y016027D02*
X029316Y015952D01*
X029541Y015952D01*
X029541Y016102D02*
X029466Y016177D01*
X029316Y016177D01*
X029241Y016102D01*
X029241Y016027D01*
X029241Y015802D02*
X029316Y015727D01*
X029466Y015727D01*
X029541Y015802D01*
X029541Y016102D01*
X029701Y016177D02*
X029701Y015727D01*
X029926Y015727D01*
X030001Y015802D01*
X030001Y016102D01*
X029926Y016177D01*
X029701Y016177D01*
X030162Y016177D02*
X030312Y016177D01*
X030237Y016177D02*
X030237Y015727D01*
X030162Y015727D02*
X030312Y015727D01*
X030469Y015727D02*
X030469Y016177D01*
X030694Y016177D01*
X030769Y016102D01*
X030769Y015952D01*
X030694Y015877D01*
X030469Y015877D01*
X028545Y015727D02*
X028545Y016177D01*
X028320Y015952D01*
X028160Y022276D02*
X027860Y022276D01*
X028010Y022276D02*
X028010Y022726D01*
X027860Y022576D01*
X027700Y022651D02*
X027624Y022726D01*
X027474Y022726D01*
X027399Y022651D01*
X027399Y022351D01*
X027474Y022276D01*
X027624Y022276D01*
X027700Y022351D01*
X027239Y022276D02*
X027239Y022726D01*
X027089Y022576D01*
X026939Y022726D01*
X026939Y022276D01*
X028320Y022501D02*
X028620Y022501D01*
X028780Y022426D02*
X028855Y022501D01*
X029006Y022501D01*
X029081Y022426D01*
X029081Y022351D01*
X029006Y022276D01*
X028855Y022276D01*
X028780Y022351D01*
X028780Y022426D01*
X028855Y022501D02*
X028780Y022576D01*
X028780Y022651D01*
X028855Y022726D01*
X029006Y022726D01*
X029081Y022651D01*
X029081Y022576D01*
X029006Y022501D01*
X029241Y022576D02*
X029316Y022501D01*
X029541Y022501D01*
X029541Y022351D02*
X029541Y022651D01*
X029466Y022726D01*
X029316Y022726D01*
X029241Y022651D01*
X029241Y022576D01*
X029241Y022351D02*
X029316Y022276D01*
X029466Y022276D01*
X029541Y022351D01*
X029701Y022276D02*
X029926Y022276D01*
X030001Y022351D01*
X030001Y022651D01*
X029926Y022726D01*
X029701Y022726D01*
X029701Y022276D01*
X030162Y022276D02*
X030312Y022276D01*
X030237Y022276D02*
X030237Y022726D01*
X030162Y022726D02*
X030312Y022726D01*
X030469Y022726D02*
X030694Y022726D01*
X030769Y022651D01*
X030769Y022501D01*
X030694Y022426D01*
X030469Y022426D01*
X030469Y022276D02*
X030469Y022726D01*
X028545Y022726D02*
X028320Y022501D01*
X028545Y022276D02*
X028545Y022726D01*
X024155Y022727D02*
X024155Y022877D01*
X024080Y022952D01*
X024005Y022952D01*
X023930Y022877D01*
X023930Y022652D01*
X024080Y022652D01*
X024155Y022727D01*
X023930Y022652D02*
X023780Y022802D01*
X023705Y022952D01*
X023780Y023112D02*
X023855Y023112D01*
X023930Y023187D01*
X023930Y023337D01*
X024005Y023412D01*
X024080Y023412D01*
X024155Y023337D01*
X024155Y023187D01*
X024080Y023112D01*
X024005Y023112D01*
X023930Y023187D01*
X023930Y023337D02*
X023855Y023412D01*
X023780Y023412D01*
X023705Y023337D01*
X023705Y023187D01*
X023780Y023112D01*
X023780Y023572D02*
X023705Y023648D01*
X023705Y023798D01*
X023780Y023873D01*
X024080Y023572D01*
X024155Y023648D01*
X024155Y023798D01*
X024080Y023873D01*
X023780Y023873D01*
X023780Y023572D02*
X024080Y023572D01*
X022155Y027902D02*
X021855Y028202D01*
X021780Y028202D01*
X021705Y028127D01*
X021705Y027977D01*
X021780Y027902D01*
X022155Y027902D02*
X022155Y028202D01*
X022155Y028362D02*
X021705Y028362D01*
X021930Y028437D02*
X022155Y028662D01*
X022155Y028822D02*
X022080Y028822D01*
X021780Y029123D01*
X021705Y029123D01*
X021705Y028822D01*
X021705Y028662D02*
X022005Y028362D01*
X022863Y028592D02*
X023014Y028442D01*
X023164Y028592D01*
X023164Y028892D01*
X023324Y028892D02*
X023324Y028667D01*
X023474Y028742D01*
X023549Y028742D01*
X023624Y028667D01*
X023624Y028517D01*
X023549Y028442D01*
X023399Y028442D01*
X023324Y028517D01*
X023324Y028892D02*
X023624Y028892D01*
X023784Y028892D02*
X024009Y028892D01*
X024084Y028817D01*
X024084Y028667D01*
X024009Y028592D01*
X023784Y028592D01*
X023784Y028442D02*
X023784Y028892D01*
X024245Y028817D02*
X024245Y028517D01*
X024320Y028442D01*
X024470Y028442D01*
X024545Y028517D01*
X024545Y028817D02*
X024470Y028892D01*
X024320Y028892D01*
X024245Y028817D01*
X025515Y028255D02*
X025628Y028142D01*
X025515Y028255D02*
X025855Y028255D01*
X025855Y028142D02*
X025855Y028369D01*
X025155Y031042D02*
X025155Y031342D01*
X025155Y031192D02*
X024705Y031192D01*
X024855Y031042D01*
X025005Y031502D02*
X024705Y031802D01*
X024705Y031962D02*
X024930Y031962D01*
X024855Y032113D01*
X024855Y032188D01*
X024930Y032263D01*
X025080Y032263D01*
X025155Y032188D01*
X025155Y032038D01*
X025080Y031962D01*
X025155Y031802D02*
X024930Y031577D01*
X024705Y031502D02*
X025155Y031502D01*
X024705Y031962D02*
X024705Y032263D01*
X023905Y032876D02*
X023905Y033026D01*
X023830Y033101D01*
X023755Y033101D01*
X023680Y033026D01*
X023680Y032800D01*
X023830Y032800D01*
X023905Y032876D01*
X023680Y032800D02*
X023530Y032951D01*
X023455Y033101D01*
X023530Y033261D02*
X023605Y033261D01*
X023680Y033336D01*
X023680Y033486D01*
X023755Y033561D01*
X023830Y033561D01*
X023905Y033486D01*
X023905Y033336D01*
X023830Y033261D01*
X023755Y033261D01*
X023680Y033336D01*
X023680Y033486D02*
X023605Y033561D01*
X023530Y033561D01*
X023455Y033486D01*
X023455Y033336D01*
X023530Y033261D01*
X023530Y033721D02*
X023455Y033796D01*
X023455Y033946D01*
X023530Y034022D01*
X023830Y033721D01*
X023905Y033796D01*
X023905Y033946D01*
X023830Y034022D01*
X023530Y034022D01*
X023530Y033721D02*
X023830Y033721D01*
X020538Y033742D02*
X020538Y033292D01*
X020238Y033742D01*
X020238Y033292D01*
X020078Y033367D02*
X020003Y033292D01*
X019853Y033292D01*
X019778Y033367D01*
X019778Y033517D02*
X019928Y033592D01*
X020003Y033592D01*
X020078Y033517D01*
X020078Y033367D01*
X019778Y033517D02*
X019778Y033742D01*
X020078Y033742D01*
X019618Y033667D02*
X019543Y033742D01*
X019392Y033742D01*
X019317Y033667D01*
X019618Y033667D02*
X019618Y033592D01*
X019317Y033292D01*
X019618Y033292D01*
X019157Y033292D02*
X018857Y033292D01*
X019007Y033292D02*
X019007Y033742D01*
X018857Y033592D01*
X018697Y033742D02*
X018397Y033742D01*
X018547Y033742D02*
X018547Y033292D01*
X018236Y033367D02*
X018161Y033292D01*
X018011Y033292D01*
X017936Y033367D01*
X017936Y033667D01*
X018011Y033742D01*
X018161Y033742D01*
X018236Y033667D01*
X017776Y033592D02*
X017776Y033292D01*
X017776Y033517D02*
X017476Y033517D01*
X017476Y033592D02*
X017626Y033742D01*
X017776Y033592D01*
X017476Y033592D02*
X017476Y033292D01*
X017241Y033292D02*
X017241Y033742D01*
X017015Y033517D01*
X017316Y033517D01*
X016855Y033667D02*
X016555Y033367D01*
X016555Y033292D01*
X016555Y033742D02*
X016855Y033742D01*
X016855Y033667D01*
X016330Y029522D02*
X016030Y029522D01*
X016330Y029221D01*
X016405Y029296D01*
X016405Y029446D01*
X016330Y029522D01*
X016030Y029522D02*
X015955Y029446D01*
X015955Y029296D01*
X016030Y029221D01*
X016330Y029221D01*
X016330Y029061D02*
X016405Y028986D01*
X016405Y028836D01*
X016330Y028761D01*
X016255Y028761D01*
X016180Y028836D01*
X016180Y028986D01*
X016255Y029061D01*
X016330Y029061D01*
X016180Y028986D02*
X016105Y029061D01*
X016030Y029061D01*
X015955Y028986D01*
X015955Y028836D01*
X016030Y028761D01*
X016105Y028761D01*
X016180Y028836D01*
X016255Y028601D02*
X016180Y028526D01*
X016180Y028300D01*
X016330Y028300D01*
X016405Y028376D01*
X016405Y028526D01*
X016330Y028601D01*
X016255Y028601D01*
X016030Y028451D02*
X016180Y028300D01*
X016030Y028451D02*
X015955Y028601D01*
X017705Y028601D02*
X017780Y028451D01*
X017930Y028300D01*
X017930Y028526D01*
X018005Y028601D01*
X018080Y028601D01*
X018155Y028526D01*
X018155Y028376D01*
X018080Y028300D01*
X017930Y028300D01*
X018005Y028761D02*
X017930Y028836D01*
X017930Y028986D01*
X018005Y029061D01*
X018080Y029061D01*
X018155Y028986D01*
X018155Y028836D01*
X018080Y028761D01*
X018005Y028761D01*
X017930Y028836D02*
X017855Y028761D01*
X017780Y028761D01*
X017705Y028836D01*
X017705Y028986D01*
X017780Y029061D01*
X017855Y029061D01*
X017930Y028986D01*
X018080Y029221D02*
X017780Y029221D01*
X017705Y029296D01*
X017705Y029446D01*
X017780Y029522D01*
X018080Y029221D01*
X018155Y029296D01*
X018155Y029446D01*
X018080Y029522D01*
X017780Y029522D01*
X019705Y029446D02*
X019705Y029296D01*
X019780Y029221D01*
X020080Y029221D01*
X019780Y029522D01*
X020080Y029522D01*
X020155Y029446D01*
X020155Y029296D01*
X020080Y029221D01*
X020080Y029061D02*
X020155Y028986D01*
X020155Y028836D01*
X020080Y028761D01*
X020005Y028761D01*
X019930Y028836D01*
X019930Y028986D01*
X020005Y029061D01*
X020080Y029061D01*
X019930Y028986D02*
X019855Y029061D01*
X019780Y029061D01*
X019705Y028986D01*
X019705Y028836D01*
X019780Y028761D01*
X019855Y028761D01*
X019930Y028836D01*
X020005Y028601D02*
X019930Y028526D01*
X019930Y028300D01*
X020080Y028300D01*
X020155Y028376D01*
X020155Y028526D01*
X020080Y028601D01*
X020005Y028601D01*
X019780Y028451D02*
X019930Y028300D01*
X019780Y028451D02*
X019705Y028601D01*
X019705Y029446D02*
X019780Y029522D01*
X022863Y028892D02*
X022863Y028592D01*
X026845Y036292D02*
X027145Y036292D01*
X026995Y036292D02*
X026995Y036742D01*
X026845Y036592D01*
X026834Y037342D02*
X027134Y037342D01*
X026984Y037342D02*
X026984Y037792D01*
X026834Y037642D01*
X027295Y037567D02*
X027595Y037567D01*
X027520Y037792D02*
X027295Y037567D01*
X027520Y037342D02*
X027520Y037792D01*
X029655Y038129D02*
X029730Y038054D01*
X029655Y038129D02*
X029655Y038279D01*
X029730Y038354D01*
X029805Y038354D01*
X030105Y038054D01*
X030105Y038354D01*
X030255Y038514D02*
X030105Y038664D01*
X030105Y038589D01*
X030030Y038589D01*
X030030Y038664D01*
X030105Y038664D01*
X030030Y038821D02*
X030105Y038896D01*
X030105Y039046D01*
X030030Y039121D01*
X029880Y039121D01*
X029805Y039046D01*
X029805Y038971D01*
X029880Y038821D01*
X029655Y038821D01*
X029655Y039121D01*
X029880Y039281D02*
X029655Y039506D01*
X030105Y039506D01*
X029880Y039582D02*
X029880Y039281D01*
X032175Y038637D02*
X032175Y038337D01*
X032250Y038262D01*
X032400Y038262D01*
X032475Y038337D01*
X032475Y038487D01*
X032325Y038487D01*
X032175Y038637D02*
X032250Y038712D01*
X032400Y038712D01*
X032475Y038637D01*
X032635Y038712D02*
X032936Y038262D01*
X032936Y038712D01*
X033096Y038712D02*
X033321Y038712D01*
X033396Y038637D01*
X033396Y038337D01*
X033321Y038262D01*
X033096Y038262D01*
X033096Y038712D01*
X032635Y038712D02*
X032635Y038262D01*
X035030Y033782D02*
X034955Y033706D01*
X034955Y033481D01*
X035405Y033481D01*
X035255Y033481D02*
X035255Y033706D01*
X035180Y033782D01*
X035030Y033782D01*
X034955Y033324D02*
X034955Y033174D01*
X034955Y033249D02*
X035405Y033249D01*
X035405Y033174D02*
X035405Y033324D01*
X035330Y033014D02*
X035030Y033014D01*
X034955Y032939D01*
X034955Y032714D01*
X035405Y032714D01*
X035405Y032939D01*
X035330Y033014D01*
X035330Y032554D02*
X035030Y032554D01*
X034955Y032479D01*
X034955Y032329D01*
X035030Y032254D01*
X035105Y032254D01*
X035180Y032329D01*
X035180Y032554D01*
X035330Y032554D02*
X035405Y032479D01*
X035405Y032329D01*
X035330Y032254D01*
X035330Y032093D02*
X035405Y032018D01*
X035405Y031868D01*
X035330Y031793D01*
X035255Y031793D01*
X035180Y031868D01*
X035180Y032018D01*
X035255Y032093D01*
X035330Y032093D01*
X035180Y032018D02*
X035105Y032093D01*
X035030Y032093D01*
X034955Y032018D01*
X034955Y031868D01*
X035030Y031793D01*
X035105Y031793D01*
X035180Y031868D01*
X035180Y031633D02*
X035180Y031333D01*
X034955Y031558D01*
X035405Y031558D01*
X035405Y031173D02*
X035405Y030872D01*
X035405Y031023D02*
X034955Y031023D01*
X035105Y030872D01*
X035030Y030712D02*
X034955Y030637D01*
X034955Y030487D01*
X035030Y030412D01*
X035330Y030412D01*
X035405Y030487D01*
X035405Y030637D01*
X035330Y030712D01*
X035405Y030252D02*
X034955Y030252D01*
X035105Y030102D01*
X034955Y029952D01*
X035405Y029952D01*
X032355Y028119D02*
X032355Y027892D01*
X032355Y028005D02*
X032015Y028005D01*
X032128Y027892D01*
X031580Y030792D02*
X031655Y030867D01*
X031655Y031017D01*
X031580Y031092D01*
X031505Y031092D01*
X031430Y031017D01*
X031430Y030792D01*
X031580Y030792D01*
X031430Y030792D02*
X031280Y030942D01*
X031205Y031092D01*
X031280Y031252D02*
X031355Y031252D01*
X031430Y031327D01*
X031430Y031477D01*
X031505Y031552D01*
X031580Y031552D01*
X031655Y031477D01*
X031655Y031327D01*
X031580Y031252D01*
X031505Y031252D01*
X031430Y031327D01*
X031430Y031477D02*
X031355Y031552D01*
X031280Y031552D01*
X031205Y031477D01*
X031205Y031327D01*
X031280Y031252D01*
X031280Y031712D02*
X031205Y031788D01*
X031205Y031938D01*
X031280Y032013D01*
X031580Y031712D01*
X031655Y031788D01*
X031655Y031938D01*
X031580Y032013D01*
X031280Y032013D01*
X031280Y031712D02*
X031580Y031712D01*
X036563Y022162D02*
X036488Y022087D01*
X036488Y021937D01*
X036563Y021862D01*
X036863Y021862D01*
X036563Y022162D01*
X036863Y022162D01*
X036938Y022087D01*
X036938Y021937D01*
X036863Y021862D01*
X036938Y021702D02*
X036938Y021402D01*
X036938Y021552D02*
X036488Y021552D01*
X036638Y021402D01*
X036088Y019102D02*
X036088Y018802D01*
X036088Y018952D02*
X035638Y018952D01*
X035788Y018802D01*
X035088Y018802D02*
X034788Y019102D01*
X034713Y019102D01*
X034638Y019027D01*
X034638Y018877D01*
X034713Y018802D01*
X035088Y018802D02*
X035088Y019102D01*
X022309Y007058D02*
X021858Y007058D01*
X021858Y006757D02*
X022309Y007058D01*
X022309Y006757D02*
X021858Y006757D01*
X021858Y006597D02*
X021933Y006597D01*
X022233Y006297D01*
X022309Y006297D01*
X022233Y006137D02*
X022309Y006062D01*
X022309Y005912D01*
X022233Y005837D01*
X022233Y005676D02*
X022309Y005601D01*
X022309Y005451D01*
X022233Y005376D01*
X022083Y005376D02*
X022008Y005526D01*
X022008Y005601D01*
X022083Y005676D01*
X022233Y005676D01*
X022008Y005837D02*
X022083Y005912D01*
X022083Y006137D01*
X021933Y006137D02*
X021858Y006062D01*
X021858Y005912D01*
X021933Y005837D01*
X022008Y005837D01*
X021858Y005676D02*
X021858Y005376D01*
X022083Y005376D01*
X021933Y005216D02*
X021858Y005141D01*
X021858Y004991D01*
X021933Y004916D01*
X022233Y004916D01*
X022309Y004991D01*
X022309Y005141D01*
X022233Y005216D01*
X022309Y004756D02*
X021858Y004756D01*
X022083Y004756D02*
X022083Y004455D01*
X022083Y004295D02*
X022083Y003995D01*
X021858Y004220D01*
X022309Y004220D01*
X022309Y004455D02*
X021858Y004455D01*
X021858Y003835D02*
X021933Y003835D01*
X022233Y003535D01*
X022309Y003535D01*
X021858Y003535D02*
X021858Y003835D01*
X021933Y006137D02*
X022233Y006137D01*
X021858Y006297D02*
X021858Y006597D01*
X024258Y005706D02*
X024258Y005405D01*
X024258Y005245D02*
X024558Y004945D01*
X024483Y005020D02*
X024708Y005245D01*
X024708Y005405D02*
X024633Y005405D01*
X024333Y005706D01*
X024258Y005706D01*
X024258Y004945D02*
X024708Y004945D01*
X024708Y004785D02*
X024708Y004485D01*
X024408Y004785D01*
X024333Y004785D01*
X024258Y004710D01*
X024258Y004560D01*
X024333Y004485D01*
X026939Y003579D02*
X026939Y003128D01*
X027239Y003128D02*
X027239Y003579D01*
X027089Y003429D01*
X026939Y003579D01*
X027399Y003504D02*
X027399Y003203D01*
X027474Y003128D01*
X027624Y003128D01*
X027700Y003203D01*
X027860Y003128D02*
X028160Y003128D01*
X028010Y003128D02*
X028010Y003579D01*
X027860Y003429D01*
X027700Y003504D02*
X027624Y003579D01*
X027474Y003579D01*
X027399Y003504D01*
X028320Y003353D02*
X028620Y003353D01*
X028780Y003278D02*
X028855Y003353D01*
X029006Y003353D01*
X029081Y003278D01*
X029081Y003203D01*
X029006Y003128D01*
X028855Y003128D01*
X028780Y003203D01*
X028780Y003278D01*
X028855Y003353D02*
X028780Y003429D01*
X028780Y003504D01*
X028855Y003579D01*
X029006Y003579D01*
X029081Y003504D01*
X029081Y003429D01*
X029006Y003353D01*
X029241Y003429D02*
X029316Y003353D01*
X029541Y003353D01*
X029541Y003203D02*
X029541Y003504D01*
X029466Y003579D01*
X029316Y003579D01*
X029241Y003504D01*
X029241Y003429D01*
X029241Y003203D02*
X029316Y003128D01*
X029466Y003128D01*
X029541Y003203D01*
X029701Y003128D02*
X029926Y003128D01*
X030001Y003203D01*
X030001Y003504D01*
X029926Y003579D01*
X029701Y003579D01*
X029701Y003128D01*
X030162Y003128D02*
X030312Y003128D01*
X030237Y003128D02*
X030237Y003579D01*
X030162Y003579D02*
X030312Y003579D01*
X030469Y003579D02*
X030694Y003579D01*
X030769Y003504D01*
X030769Y003353D01*
X030694Y003278D01*
X030469Y003278D01*
X030469Y003128D02*
X030469Y003579D01*
X028545Y003579D02*
X028545Y003128D01*
X028320Y003353D02*
X028545Y003579D01*
X025408Y001311D02*
X025408Y001085D01*
X025408Y001198D02*
X025068Y001198D01*
X025181Y001085D01*
X019330Y008652D02*
X019405Y008727D01*
X019405Y008877D01*
X019330Y008952D01*
X019255Y008952D01*
X019180Y008877D01*
X019180Y008652D01*
X019330Y008652D01*
X019180Y008652D02*
X019030Y008802D01*
X018955Y008952D01*
X019030Y009112D02*
X019105Y009112D01*
X019180Y009187D01*
X019180Y009337D01*
X019255Y009412D01*
X019330Y009412D01*
X019405Y009337D01*
X019405Y009187D01*
X019330Y009112D01*
X019255Y009112D01*
X019180Y009187D01*
X019180Y009337D02*
X019105Y009412D01*
X019030Y009412D01*
X018955Y009337D01*
X018955Y009187D01*
X019030Y009112D01*
X019030Y009572D02*
X018955Y009648D01*
X018955Y009798D01*
X019030Y009873D01*
X019330Y009572D01*
X019405Y009648D01*
X019405Y009798D01*
X019330Y009873D01*
X019030Y009873D01*
X019030Y009572D02*
X019330Y009572D01*
X018466Y009717D02*
X018391Y009642D01*
X018240Y009642D01*
X018165Y009717D01*
X018165Y009867D02*
X018316Y009942D01*
X018391Y009942D01*
X018466Y009867D01*
X018466Y009717D01*
X018165Y009867D02*
X018165Y010092D01*
X018466Y010092D01*
X018005Y010092D02*
X018005Y009792D01*
X017855Y009642D01*
X017705Y009792D01*
X017705Y010092D01*
X013405Y009332D02*
X012955Y009332D01*
X012955Y009031D02*
X013405Y009332D01*
X013405Y009031D02*
X012955Y009031D01*
X012955Y008871D02*
X012955Y008571D01*
X013180Y008571D01*
X013105Y008721D01*
X013105Y008796D01*
X013180Y008871D01*
X013330Y008871D01*
X013405Y008796D01*
X013405Y008646D01*
X013330Y008571D01*
X013330Y008411D02*
X013030Y008411D01*
X012955Y008336D01*
X012955Y008186D01*
X013030Y008110D01*
X013105Y008110D01*
X013180Y008186D01*
X013180Y008411D01*
X013330Y008411D02*
X013405Y008336D01*
X013405Y008186D01*
X013330Y008110D01*
X013330Y007950D02*
X013405Y007875D01*
X013405Y007725D01*
X013330Y007650D01*
X013180Y007650D02*
X013105Y007800D01*
X013105Y007875D01*
X013180Y007950D01*
X013330Y007950D01*
X013180Y007650D02*
X012955Y007650D01*
X012955Y007950D01*
X013030Y007490D02*
X012955Y007415D01*
X012955Y007265D01*
X013030Y007190D01*
X013330Y007190D01*
X013405Y007265D01*
X013405Y007415D01*
X013330Y007490D01*
X013405Y007030D02*
X012955Y007030D01*
X013180Y007030D02*
X013180Y006729D01*
X013180Y006569D02*
X013180Y006269D01*
X012955Y006494D01*
X013405Y006494D01*
X013405Y006729D02*
X012955Y006729D01*
X012955Y006109D02*
X013030Y006109D01*
X013330Y005809D01*
X013405Y005809D01*
X012955Y005809D02*
X012955Y006109D01*
X005155Y013081D02*
X004855Y013382D01*
X004780Y013382D01*
X004705Y013306D01*
X004705Y013156D01*
X004780Y013081D01*
X005155Y013081D02*
X005155Y013382D01*
X004155Y013382D02*
X004155Y013081D01*
X004155Y013231D02*
X003705Y013231D01*
X003855Y013081D01*
X003230Y010782D02*
X002930Y010782D01*
X003230Y010481D01*
X003305Y010556D01*
X003305Y010706D01*
X003230Y010782D01*
X002930Y010782D02*
X002855Y010706D01*
X002855Y010556D01*
X002930Y010481D01*
X003230Y010481D01*
X003305Y010321D02*
X003305Y010021D01*
X003305Y010171D02*
X002855Y010171D01*
X003005Y010021D01*
X012955Y015559D02*
X012955Y015859D01*
X013030Y015859D01*
X013330Y015559D01*
X013405Y015559D01*
X013180Y016019D02*
X013180Y016319D01*
X013180Y016479D02*
X013180Y016780D01*
X013030Y016940D02*
X013330Y016940D01*
X013405Y017015D01*
X013405Y017165D01*
X013330Y017240D01*
X013330Y017400D02*
X013405Y017475D01*
X013405Y017625D01*
X013330Y017700D01*
X013180Y017700D01*
X013105Y017625D01*
X013105Y017550D01*
X013180Y017400D01*
X012955Y017400D01*
X012955Y017700D01*
X013030Y017860D02*
X013105Y017860D01*
X013180Y017936D01*
X013180Y018161D01*
X013330Y018161D02*
X013030Y018161D01*
X012955Y018086D01*
X012955Y017936D01*
X013030Y017860D01*
X013330Y017860D02*
X013405Y017936D01*
X013405Y018086D01*
X013330Y018161D01*
X013330Y018321D02*
X013405Y018396D01*
X013405Y018546D01*
X013330Y018621D01*
X013180Y018621D01*
X013105Y018546D01*
X013105Y018471D01*
X013180Y018321D01*
X012955Y018321D01*
X012955Y018621D01*
X012955Y018781D02*
X013405Y019082D01*
X012955Y019082D01*
X012955Y018781D02*
X013405Y018781D01*
X013030Y017240D02*
X012955Y017165D01*
X012955Y017015D01*
X013030Y016940D01*
X012955Y016780D02*
X013405Y016780D01*
X013405Y016479D02*
X012955Y016479D01*
X012955Y016244D02*
X013180Y016019D01*
X013405Y016244D02*
X012955Y016244D01*
X017455Y016140D02*
X017905Y016140D01*
X017680Y016140D02*
X017680Y016440D01*
X017830Y016600D02*
X017905Y016675D01*
X017905Y016825D01*
X017830Y016900D01*
X017905Y017060D02*
X017905Y017361D01*
X017905Y017211D02*
X017455Y017211D01*
X017605Y017060D01*
X017530Y016900D02*
X017455Y016825D01*
X017455Y016675D01*
X017530Y016600D01*
X017830Y016600D01*
X017905Y016440D02*
X017455Y016440D01*
X017680Y015980D02*
X017680Y015679D01*
X017455Y015904D01*
X017905Y015904D01*
X017530Y015519D02*
X017830Y015219D01*
X017905Y015219D01*
X017530Y015519D02*
X017455Y015519D01*
X017455Y015219D01*
X017680Y017521D02*
X017680Y017821D01*
X017905Y017746D02*
X017455Y017746D01*
X017680Y017521D01*
X017905Y017981D02*
X017455Y017981D01*
X017905Y018282D01*
X017455Y018282D01*
X014405Y022402D02*
X014105Y022702D01*
X014030Y022702D01*
X013955Y022627D01*
X013955Y022477D01*
X014030Y022402D01*
X014405Y022402D02*
X014405Y022702D01*
X014405Y022862D02*
X013955Y022862D01*
X014180Y022937D02*
X014405Y023162D01*
X014405Y023322D02*
X014330Y023322D01*
X014030Y023623D01*
X013955Y023623D01*
X013955Y023322D01*
X013955Y023162D02*
X014255Y022862D01*
X013405Y022862D02*
X012955Y022862D01*
X013030Y022702D02*
X012955Y022627D01*
X012955Y022477D01*
X013030Y022402D01*
X013030Y022702D02*
X013105Y022702D01*
X013405Y022402D01*
X013405Y022702D01*
X013255Y022862D02*
X012955Y023162D01*
X012955Y023322D02*
X012955Y023623D01*
X013030Y023623D01*
X013330Y023322D01*
X013405Y023322D01*
X013405Y023162D02*
X013180Y022937D01*
X012405Y022862D02*
X011955Y022862D01*
X012030Y022702D02*
X011955Y022627D01*
X011955Y022477D01*
X012030Y022402D01*
X012030Y022702D02*
X012105Y022702D01*
X012405Y022402D01*
X012405Y022702D01*
X012255Y022862D02*
X011955Y023162D01*
X011955Y023322D02*
X011955Y023623D01*
X012030Y023623D01*
X012330Y023322D01*
X012405Y023322D01*
X012405Y023162D02*
X012180Y022937D01*
X005155Y024331D02*
X004855Y024632D01*
X004780Y024632D01*
X004705Y024556D01*
X004705Y024406D01*
X004780Y024331D01*
X005155Y024331D02*
X005155Y024632D01*
X004155Y024632D02*
X004155Y024331D01*
X004155Y024481D02*
X003705Y024481D01*
X003855Y024331D01*
X003230Y022032D02*
X002930Y022032D01*
X003230Y021731D01*
X003305Y021806D01*
X003305Y021956D01*
X003230Y022032D01*
X002930Y022032D02*
X002855Y021956D01*
X002855Y021806D01*
X002930Y021731D01*
X003230Y021731D01*
X003305Y021571D02*
X003305Y021271D01*
X003305Y021421D02*
X002855Y021421D01*
X003005Y021271D01*
X010680Y030910D02*
X010680Y031136D01*
X010755Y031211D01*
X010830Y031211D01*
X010905Y031136D01*
X010905Y030986D01*
X010830Y030910D01*
X010680Y030910D01*
X010530Y031061D01*
X010455Y031211D01*
X010530Y031371D02*
X010605Y031371D01*
X010680Y031446D01*
X010680Y031596D01*
X010755Y031671D01*
X010830Y031671D01*
X010905Y031596D01*
X010905Y031446D01*
X010830Y031371D01*
X010755Y031371D01*
X010680Y031446D01*
X010680Y031596D02*
X010605Y031671D01*
X010530Y031671D01*
X010455Y031596D01*
X010455Y031446D01*
X010530Y031371D01*
X010530Y031831D02*
X010455Y031906D01*
X010455Y032056D01*
X010530Y032132D01*
X010830Y031831D01*
X010905Y031906D01*
X010905Y032056D01*
X010830Y032132D01*
X010530Y032132D01*
X010530Y031831D02*
X010830Y031831D01*
X010095Y035333D02*
X010095Y035559D01*
X010095Y035446D02*
X009755Y035446D01*
X009868Y035333D01*
X011984Y036292D02*
X012284Y036292D01*
X012134Y036292D02*
X012134Y036742D01*
X011984Y036592D01*
X012445Y036667D02*
X012520Y036742D01*
X012670Y036742D01*
X012745Y036667D01*
X012745Y036592D01*
X012670Y036517D01*
X012745Y036442D01*
X012745Y036367D01*
X012670Y036292D01*
X012520Y036292D01*
X012445Y036367D01*
X012595Y036517D02*
X012670Y036517D01*
X012620Y037292D02*
X012545Y037367D01*
X012620Y037292D02*
X012770Y037292D01*
X012845Y037367D01*
X012845Y037517D01*
X012770Y037592D01*
X012695Y037592D01*
X012545Y037517D01*
X012545Y037742D01*
X012845Y037742D01*
X012384Y037667D02*
X012309Y037742D01*
X012159Y037742D01*
X012084Y037667D01*
X012384Y037667D02*
X012384Y037592D01*
X012084Y037292D01*
X012384Y037292D01*
X011648Y038142D02*
X011573Y038217D01*
X011573Y038517D01*
X011498Y038442D02*
X011648Y038442D01*
X011340Y038442D02*
X011265Y038442D01*
X011114Y038292D01*
X011114Y038142D02*
X011114Y038442D01*
X010954Y038367D02*
X010879Y038442D01*
X010729Y038442D01*
X010654Y038367D01*
X010654Y038217D01*
X010729Y038142D01*
X010879Y038142D01*
X010954Y038217D01*
X010954Y038367D01*
X010494Y038367D02*
X010494Y038142D01*
X010494Y038367D02*
X010419Y038442D01*
X010269Y038442D01*
X010194Y038367D01*
X010033Y038442D02*
X009808Y038442D01*
X009733Y038367D01*
X009808Y038292D01*
X009958Y038292D01*
X010033Y038217D01*
X009958Y038142D01*
X009733Y038142D01*
X010194Y038142D02*
X010194Y038592D01*
X010194Y038892D02*
X010494Y039192D01*
X010494Y039267D01*
X010419Y039342D01*
X010269Y039342D01*
X010194Y039267D01*
X010033Y039342D02*
X010033Y038892D01*
X010194Y038892D02*
X010494Y038892D01*
X010654Y038967D02*
X010729Y038892D01*
X010879Y038892D01*
X010954Y038967D01*
X010954Y039117D01*
X010879Y039192D01*
X010804Y039192D01*
X010654Y039117D01*
X010654Y039342D01*
X010954Y039342D01*
X010033Y039117D02*
X009733Y039117D01*
X009733Y038892D02*
X009733Y039342D01*
D17*
X002560Y034817D02*
X002560Y034217D01*
X002310Y034217D02*
X002310Y034817D01*
X002300Y028817D02*
X002300Y028217D01*
X002550Y028217D02*
X002550Y028817D01*
X004310Y017317D02*
X004310Y016717D01*
X004560Y016717D02*
X004560Y017317D01*
X004560Y015567D02*
X004560Y014967D01*
X004310Y014967D02*
X004310Y015567D01*
X008550Y015317D02*
X008550Y014717D01*
X008800Y014717D02*
X008800Y015317D01*
X008800Y013567D02*
X008800Y012967D01*
X008550Y012967D02*
X008550Y013567D01*
X013310Y011567D02*
X013310Y010967D01*
X013560Y010967D02*
X013560Y011567D01*
X016550Y008567D02*
X016550Y007967D01*
X016800Y007967D02*
X016800Y008567D01*
X017560Y011217D02*
X017560Y011817D01*
X017810Y011817D02*
X017810Y011217D01*
X021800Y010967D02*
X021800Y011567D01*
X022050Y011567D02*
X022050Y010967D01*
X026880Y012647D02*
X027480Y012647D01*
X027480Y012897D02*
X026880Y012897D01*
X028130Y012887D02*
X028730Y012887D01*
X028730Y012637D02*
X028130Y012637D01*
X029880Y012647D02*
X030480Y012647D01*
X030480Y012897D02*
X029880Y012897D01*
X031130Y012887D02*
X031730Y012887D01*
X031730Y012637D02*
X031130Y012637D01*
X035300Y014967D02*
X035300Y015567D01*
X035550Y015567D02*
X035550Y014967D01*
X035550Y016717D02*
X035550Y017317D01*
X035300Y017317D02*
X035300Y016717D01*
X031980Y019137D02*
X031380Y019137D01*
X031380Y019387D02*
X031980Y019387D01*
X030730Y019397D02*
X030130Y019397D01*
X030130Y019147D02*
X030730Y019147D01*
X028980Y019137D02*
X028380Y019137D01*
X028380Y019387D02*
X028980Y019387D01*
X027730Y019397D02*
X027130Y019397D01*
X027130Y019147D02*
X027730Y019147D01*
X025480Y023397D02*
X024880Y023397D01*
X024880Y023647D02*
X025480Y023647D01*
X026550Y024967D02*
X026550Y025567D01*
X026800Y025567D02*
X026800Y024967D01*
X028550Y024967D02*
X028550Y025567D01*
X028800Y025567D02*
X028800Y024967D01*
X030560Y024967D02*
X030560Y025567D01*
X030810Y025567D02*
X030810Y024967D01*
X031880Y026897D02*
X032480Y026897D01*
X032480Y027147D02*
X031880Y027147D01*
X035060Y027067D02*
X035060Y026467D01*
X035310Y026467D02*
X035310Y027067D01*
X032480Y034387D02*
X031880Y034387D01*
X031880Y034637D02*
X032480Y034637D01*
X034560Y035217D02*
X034560Y035817D01*
X034810Y035817D02*
X034810Y035217D01*
X025980Y034887D02*
X025380Y034887D01*
X025380Y034637D02*
X025980Y034637D01*
X023730Y027387D02*
X023130Y027387D01*
X023130Y027137D02*
X023730Y027137D01*
X019060Y020567D02*
X019060Y019967D01*
X018810Y019967D02*
X018810Y020567D01*
X016800Y020567D02*
X016800Y019967D01*
X016550Y019967D02*
X016550Y020567D01*
X026880Y006647D02*
X027480Y006647D01*
X027480Y006397D02*
X026880Y006397D01*
X028130Y006387D02*
X028730Y006387D01*
X028730Y006637D02*
X028130Y006637D01*
X029880Y006647D02*
X030480Y006647D01*
X030480Y006397D02*
X029880Y006397D01*
X031130Y006387D02*
X031730Y006387D01*
X031730Y006637D02*
X031130Y006637D01*
X034550Y006067D02*
X034550Y005467D01*
X034800Y005467D02*
X034800Y006067D01*
X034230Y003397D02*
X033630Y003397D01*
X033630Y003147D02*
X034230Y003147D01*
X022060Y002067D02*
X022060Y001467D01*
X021810Y001467D02*
X021810Y002067D01*
X013310Y002067D02*
X013310Y001467D01*
X013060Y001467D02*
X013060Y002067D01*
X005730Y004387D02*
X005130Y004387D01*
X005130Y004637D02*
X005730Y004637D01*
D18*
X001932Y005952D02*
X001932Y016054D01*
X000790Y016054D01*
X000790Y005952D01*
X001932Y005952D01*
X002001Y016965D02*
X000859Y016965D01*
X000859Y027068D01*
X002001Y027068D01*
X002001Y016965D01*
X004680Y026517D02*
X004680Y027267D01*
X008680Y027267D01*
X008680Y026517D01*
X004680Y026517D01*
X004680Y027267D02*
X004680Y029017D01*
X008680Y029017D01*
X008680Y027267D01*
X008680Y029267D02*
X008680Y030017D01*
X004680Y030017D01*
X004680Y031767D01*
X008680Y031767D01*
X008680Y030017D01*
X008680Y029267D02*
X004680Y029267D01*
X004680Y030017D01*
X004680Y032017D02*
X004680Y032767D01*
X008680Y032767D01*
X008680Y032017D01*
X004680Y032017D01*
X004680Y032767D02*
X004680Y034517D01*
X008680Y034517D01*
X008680Y032767D01*
X008680Y034767D02*
X008680Y035517D01*
X004680Y035517D01*
X004680Y037267D01*
X008680Y037267D01*
X008680Y035517D01*
X008680Y034767D02*
X004680Y034767D01*
X004680Y035517D01*
X022880Y029767D02*
X022882Y029713D01*
X022887Y029659D01*
X022896Y029606D01*
X022909Y029553D01*
X022925Y029502D01*
X022945Y029452D01*
X022968Y029403D01*
X022994Y029355D01*
X023023Y029310D01*
X023056Y029267D01*
X023091Y029226D01*
X023129Y029187D01*
X023169Y029151D01*
X023212Y029118D01*
X023257Y029088D01*
X023304Y029061D01*
X024077Y029072D02*
X024125Y029102D01*
X024170Y029135D01*
X024213Y029171D01*
X024254Y029209D01*
X024291Y029251D01*
X024326Y029295D01*
X024357Y029341D01*
X024386Y029390D01*
X024410Y029440D01*
X024431Y029492D01*
X024449Y029546D01*
X024462Y029600D01*
X024472Y029655D01*
X024478Y029711D01*
X024480Y029767D01*
X024478Y029820D01*
X024473Y029874D01*
X024464Y029926D01*
X024452Y029978D01*
X024436Y030029D01*
X024417Y030079D01*
X024394Y030128D01*
X024368Y030175D01*
X024340Y030220D01*
X024308Y030263D01*
X024274Y030303D01*
X024236Y030342D01*
X024197Y030378D01*
X023168Y030382D02*
X023128Y030346D01*
X023090Y030307D01*
X023055Y030266D01*
X023023Y030223D01*
X022993Y030178D01*
X022967Y030131D01*
X022945Y030082D01*
X022925Y030031D01*
X022909Y029980D01*
X022896Y029928D01*
X022887Y029874D01*
X022882Y029821D01*
X022880Y029767D01*
X037859Y028715D02*
X039001Y028715D01*
X039001Y034818D01*
X037859Y034818D01*
X037859Y028715D01*
X037798Y027078D02*
X037798Y016975D01*
X038940Y016975D01*
X038940Y027078D01*
X037798Y027078D01*
X037798Y016054D02*
X037798Y005952D01*
X038940Y005952D01*
X038940Y016054D01*
X037798Y016054D01*
X016283Y010462D02*
X016235Y010432D01*
X016190Y010399D01*
X016147Y010363D01*
X016106Y010325D01*
X016069Y010283D01*
X016034Y010239D01*
X016003Y010193D01*
X015974Y010144D01*
X015950Y010094D01*
X015929Y010042D01*
X015911Y009988D01*
X015898Y009934D01*
X015888Y009879D01*
X015882Y009823D01*
X015880Y009767D01*
X017056Y010473D02*
X017103Y010446D01*
X017148Y010416D01*
X017191Y010383D01*
X017231Y010347D01*
X017269Y010308D01*
X017304Y010267D01*
X017337Y010224D01*
X017366Y010179D01*
X017392Y010131D01*
X017415Y010082D01*
X017435Y010032D01*
X017451Y009981D01*
X017464Y009928D01*
X017473Y009875D01*
X017478Y009821D01*
X017480Y009767D01*
X016163Y009156D02*
X016124Y009192D01*
X016086Y009231D01*
X016052Y009271D01*
X016020Y009314D01*
X015992Y009359D01*
X015966Y009406D01*
X015943Y009455D01*
X015924Y009505D01*
X015908Y009556D01*
X015896Y009608D01*
X015887Y009660D01*
X015882Y009714D01*
X015880Y009767D01*
X017192Y009152D02*
X017232Y009188D01*
X017270Y009227D01*
X017305Y009268D01*
X017337Y009311D01*
X017367Y009356D01*
X017393Y009403D01*
X017415Y009452D01*
X017435Y009503D01*
X017451Y009554D01*
X017464Y009606D01*
X017473Y009660D01*
X017478Y009713D01*
X017480Y009767D01*
D19*
X005780Y006917D02*
X005780Y014117D01*
X003080Y014117D01*
X003080Y011317D01*
X003080Y009717D02*
X003080Y009317D01*
X003080Y008717D02*
X003080Y006917D01*
X005780Y006917D01*
X005780Y018167D02*
X003080Y018167D01*
X003080Y019967D01*
X003080Y020567D02*
X003080Y020967D01*
X003080Y022567D02*
X003080Y025367D01*
X005780Y025367D01*
X005780Y018167D01*
X034013Y018177D02*
X036713Y018177D01*
X036713Y020977D01*
X036713Y022577D02*
X036713Y022977D01*
X036713Y023577D02*
X036713Y025377D01*
X034013Y025377D01*
X034013Y018177D01*
X034013Y014103D02*
X034013Y006903D01*
X036713Y006903D01*
X036713Y009703D01*
X036713Y011303D02*
X036713Y011703D01*
X036713Y012303D02*
X036713Y014103D01*
X034013Y014103D01*
D20*
X023930Y022097D03*
X023930Y024937D03*
X021930Y027347D03*
X019930Y027347D03*
X017930Y027347D03*
X016180Y027347D03*
X014180Y024687D03*
X013180Y024687D03*
X012180Y024687D03*
X012180Y021847D03*
X013180Y021847D03*
X014180Y021847D03*
X016180Y030187D03*
X017930Y030187D03*
X019930Y030187D03*
X021930Y030187D03*
X023680Y031847D03*
X023680Y034687D03*
X019180Y010937D03*
X019180Y008097D03*
D21*
X010755Y039737D03*
D22*
X029210Y039692D03*
D23*
X019930Y039867D03*
D24*
X019930Y038292D03*
X021020Y038292D03*
X022100Y038292D03*
X023190Y038292D03*
X024280Y038292D03*
X025360Y038292D03*
X026450Y038292D03*
X018840Y038292D03*
X017760Y038292D03*
X016670Y038292D03*
X015580Y038292D03*
X014500Y038292D03*
X013410Y038292D03*
D25*
X013950Y038792D03*
X015040Y038792D03*
X016130Y038792D03*
X017210Y038792D03*
X018300Y038792D03*
X019390Y038792D03*
X020470Y038792D03*
X021560Y038792D03*
X022650Y038792D03*
X023730Y038792D03*
X024820Y038792D03*
X025910Y038792D03*
M02*
