%
M48
M72
T01C0.0315
T02C0.0320
T03C0.0360
T04C0.0394
T05C0.0400
T06C0.0472
T07C0.0512
T08C0.1260
T09C0.1300
%
T01
X2930Y30017
X2930Y31017
X2930Y32017
X2930Y33017
T02
X2930Y34517
X1930Y34517
X1930Y28517
X2930Y28517
X7180Y25267
X7180Y24267
X7180Y23267
X7180Y22267
X7180Y21267
X7180Y20267
X7180Y19267
X7180Y18267
X7180Y17267
X7180Y16267
X8180Y15017
X9180Y15017
X10180Y16267
X10180Y17267
X10180Y18267
X10180Y19267
X10180Y20267
X10180Y21267
X10180Y22267
X10180Y23267
X10180Y24267
X10180Y25267
X9930Y26767
X9930Y27767
X9930Y28767
X9930Y29767
X9930Y30767
X9930Y31767
X9930Y32767
X9930Y33767
X9930Y34767
X11430Y34767
X11430Y33767
X11430Y32767
X11430Y31767
X11430Y30767
X11430Y29767
X11430Y28767
X11430Y27767
X11430Y26767
X12180Y25267
X13180Y25267
X14180Y25267
X14430Y26767
X14430Y27767
X14430Y28767
X14430Y29767
X14430Y30767
X14430Y31767
X14430Y32767
X14430Y33767
X14430Y34767
X16180Y35017
X17180Y35017
X18180Y35017
X19180Y35017
X20180Y35017
X21180Y35017
X22180Y35017
X23680Y35267
X25680Y35267
X25680Y34267
X25680Y33017
X25680Y32017
X25680Y31017
X25680Y30017
X25680Y29017
X25680Y27017
X24680Y27017
X23430Y26767
X23430Y27767
X21930Y26767
X21680Y25017
X20680Y25017
X19680Y25017
X18680Y25017
X17680Y25017
X16680Y25017
X15680Y25017
X16180Y26767
X17930Y26767
X19930Y26767
X22680Y25017
X23930Y25517
X25180Y24017
X25180Y23017
X26564Y24001
X27564Y24001
X28564Y24001
X29564Y24001
X30564Y24001
X31564Y24001
X32564Y24001
X31180Y25267
X30180Y25267
X29180Y25267
X28180Y25267
X27180Y25267
X26180Y25267
X27430Y27017
X27430Y28017
X27430Y29017
X27430Y30017
X27430Y31017
X27430Y32017
X27430Y33017
X27430Y34017
X30430Y34017
X30430Y33017
X30430Y32017
X30430Y31017
X30430Y30017
X30430Y29017
X30430Y28017
X30430Y27017
X32180Y27517
X32180Y26517
X33680Y28267
X33680Y29267
X33680Y30267
X33680Y31267
X33680Y32267
X33680Y33267
X33680Y34267
X34180Y35517
X35180Y35517
X36680Y34267
X36680Y33267
X36680Y32267
X36680Y31267
X36680Y30267
X36680Y29267
X36680Y28267
X35680Y26767
X34680Y26767
X32180Y28767
X32180Y29767
X32180Y30767
X32180Y31767
X32180Y32767
X32180Y34017
X32180Y35017
X23680Y31267
X23680Y30267
X23680Y29267
X21930Y30767
X22180Y32017
X21180Y32017
X20180Y32017
X19180Y32017
X18180Y32017
X17180Y32017
X16180Y32017
X16180Y30767
X17930Y30767
X19930Y30767
X19680Y22017
X18680Y22017
X17680Y22017
X16680Y22017
X15680Y22017
X14180Y21267
X13180Y21267
X12180Y21267
X11680Y19767
X11680Y18767
X11680Y17767
X11680Y16767
X11680Y15767
X11680Y14767
X11680Y13767
X11680Y12767
X10180Y12017
X10180Y11017
X10180Y10017
X10180Y9017
X10180Y8017
X10180Y7017
X10180Y6017
X10180Y5017
X10180Y4017
X10180Y3017
X11680Y3017
X11680Y4017
X11680Y5017
X11680Y6017
X11680Y7017
X11680Y8017
X11680Y9017
X11680Y10017
X12930Y11267
X13930Y11267
X14680Y10017
X14680Y9017
X14680Y8017
X14680Y7017
X14680Y6017
X14680Y5017
X14680Y4017
X14680Y3017
X13680Y1767
X12680Y1767
X16980Y6017
X18380Y6017
X19180Y7517
X20584Y7960
X20584Y6960
X20584Y5960
X20584Y4960
X20584Y3960
X20584Y2960
X21430Y1767
X22430Y1767
X23584Y2960
X23584Y3960
X23584Y4960
X23584Y5960
X23584Y6960
X23584Y7960
X23584Y8960
X23584Y9960
X22430Y11267
X21430Y11267
X20584Y9960
X20584Y8960
X19180Y11517
X18180Y11517
X17180Y11517
X16680Y10267
X16680Y9267
X16180Y8267
X17180Y8267
X16180Y12767
X16180Y13767
X16180Y14767
X16180Y15767
X16180Y16767
X16180Y17767
X16180Y18767
X16180Y20267
X17180Y20267
X18430Y20267
X19430Y20267
X20680Y19767
X20680Y18767
X20680Y17767
X20680Y16767
X20680Y15767
X20680Y14767
X20680Y13767
X20680Y12767
X19180Y12767
X19180Y13767
X19180Y14767
X19180Y15767
X19180Y16767
X19180Y17767
X19180Y18767
X20680Y22017
X21680Y22017
X22680Y22017
X23930Y21517
X25233Y20601
X25233Y19601
X25233Y18601
X25233Y17601
X25233Y16601
X25233Y15601
X25233Y14601
X25233Y13601
X25233Y12601
X23680Y12767
X23680Y13767
X23680Y14767
X23680Y15767
X23680Y16767
X23680Y17767
X23680Y18767
X23680Y19767
X26564Y21001
X27564Y21001
X28564Y21001
X29564Y21001
X30564Y21001
X31564Y21001
X32564Y21001
X31680Y19767
X31680Y18767
X30430Y18767
X30430Y19767
X28680Y19767
X28680Y18767
X27430Y18767
X27430Y19767
X27564Y17452
X28564Y17452
X29564Y17452
X30564Y17452
X31564Y17452
X32564Y17452
X34930Y17017
X35930Y17017
X35930Y15267
X34930Y15267
X32564Y14452
X31564Y14452
X30564Y14452
X29564Y14452
X28564Y14452
X27564Y14452
X26564Y14452
X27180Y13267
X27180Y12267
X27564Y11152
X28564Y11152
X29564Y11152
X30564Y11152
X31564Y11152
X32564Y11152
X31430Y12267
X31430Y13267
X30180Y13267
X30180Y12267
X28430Y12267
X28430Y13267
X26564Y11152
X25233Y9960
X25233Y8960
X25233Y7960
X25233Y6960
X25233Y5960
X25233Y4960
X25233Y3960
X25233Y2960
X25233Y1960
X26564Y1853
X27564Y1853
X28564Y1853
X29564Y1853
X30564Y1853
X31564Y1853
X32564Y1853
X33930Y2767
X33930Y3767
X32564Y4853
X31564Y4853
X31430Y6017
X31430Y7017
X31564Y8152
X32564Y8152
X30564Y8152
X29564Y8152
X28564Y8152
X27564Y8152
X26564Y8152
X27180Y7017
X27180Y6017
X27564Y4853
X28564Y4853
X28430Y6017
X28430Y7017
X30180Y7017
X30180Y6017
X30564Y4853
X29564Y4853
X26564Y4853
X34180Y5767
X35180Y5767
X26564Y17452
X14680Y17767
X14680Y18767
X14680Y19767
X14680Y16767
X14680Y15767
X14680Y14767
X14680Y13767
X14680Y12767
X9180Y13267
X8180Y13267
X7180Y12017
X7180Y11017
X7180Y10017
X7180Y9017
X7180Y8017
X7180Y7017
X7180Y6017
X7180Y5017
X7180Y4017
X7180Y3017
X5430Y4017
X5430Y5017
X4930Y15267
X3930Y15267
X3930Y17017
X4930Y17017
T03
X4930Y19767
X4930Y20767
X4930Y21767
X4930Y22767
X4930Y23767
X3930Y23767
X3930Y22767
X3930Y21767
X3930Y20767
X3930Y19767
X3930Y12517
X4930Y12517
X4930Y11517
X4930Y10517
X3930Y10517
X3930Y11517
X3930Y9517
X3930Y8517
X4930Y8517
X4930Y9517
X34863Y9503
X34863Y8503
X35863Y8503
X35863Y9503
X35863Y10503
X35863Y11503
X35863Y12503
X34863Y12503
X34863Y11503
X34863Y10503
X34863Y19777
X34863Y20777
X34863Y21777
X34863Y22777
X34863Y23777
X35863Y23777
X35863Y22777
X35863Y21777
X35863Y20777
X35863Y19777
T04
X8180Y27767
X7180Y27767
X6180Y27767
X5180Y27767
X5180Y30517
X6180Y30517
X7180Y30517
X8180Y30517
X8180Y33267
X7180Y33267
X6180Y33267
X5180Y33267
X5180Y36017
X6180Y36017
X7180Y36017
X8180Y36017
T05
X13410Y36517
X14500Y36517
X15580Y36517
X16670Y36517
X17760Y36517
X18840Y36517
X19930Y36517
X21020Y36517
X22100Y36517
X23190Y36517
X24280Y36517
X25360Y36517
X26450Y36517
X25910Y37517
X24820Y37517
X23730Y37517
X22650Y37517
X21560Y37517
X20470Y37517
X19390Y37517
X18300Y37517
X17210Y37517
X16130Y37517
X15040Y37517
X13950Y37517
X32680Y37517
T06
X38430Y34267
X38430Y33267
X38430Y32267
X38430Y31267
X38430Y30267
X38430Y29267
X38369Y26527
X38369Y25527
X38369Y24527
X38369Y23527
X38369Y22527
X38369Y21527
X38369Y20527
X38369Y19527
X38369Y18527
X38369Y17527
X38369Y15503
X38369Y14503
X38369Y13503
X38369Y12503
X38369Y11503
X38369Y10503
X38369Y9503
X38369Y8503
X38369Y7503
X38369Y6503
X1361Y6503
X1361Y7503
X1361Y8503
X1361Y9503
X1361Y10503
X1361Y11503
X1361Y12503
X1361Y13503
X1361Y14503
X1361Y15503
X1430Y17517
X1430Y18517
X1430Y19517
X1430Y20517
X1430Y21517
X1430Y22517
X1430Y23517
X1430Y24517
X1430Y25517
X1430Y26517
T07
X16688Y2507
X18688Y2507
T08
X2936Y3523
X2936Y37381
X36794Y37381
X36794Y3523
T09
X29190Y37017
X10670Y37017
M30
