G75*
%MOIN*%
%OFA0B0*%
%FSLAX24Y24*%
%IPPOS*%
%LPD*%
%AMOC8*
5,1,8,0,0,1.08239X$1,22.5*
%
%ADD10C,0.1340*%
%ADD11C,0.0600*%
%ADD12OC8,0.0600*%
%ADD13C,0.0789*%
%ADD14OC8,0.0640*%
%ADD15OC8,0.0710*%
%ADD16C,0.0710*%
%ADD17C,0.0595*%
%ADD18C,0.0867*%
%ADD19OC8,0.0680*%
%ADD20C,0.2080*%
%ADD21C,0.0674*%
D10*
X002936Y003523D03*
X002936Y037381D03*
X036794Y037381D03*
X036794Y003523D03*
D11*
X032564Y004593D02*
X032564Y005113D01*
X031564Y005113D02*
X031564Y004593D01*
X030564Y004593D02*
X030564Y005113D01*
X029564Y005113D02*
X029564Y004593D01*
X028564Y004593D02*
X028564Y005113D01*
X027564Y005113D02*
X027564Y004593D01*
X026564Y004593D02*
X026564Y005113D01*
X025493Y004960D02*
X024973Y004960D01*
X024973Y005960D02*
X025493Y005960D01*
X025493Y006960D02*
X024973Y006960D01*
X024973Y007960D02*
X025493Y007960D01*
X026564Y007892D02*
X026564Y008412D01*
X025493Y008960D02*
X024973Y008960D01*
X024973Y009960D02*
X025493Y009960D01*
X026564Y010892D02*
X026564Y011412D01*
X027564Y011412D02*
X027564Y010892D01*
X028564Y010892D02*
X028564Y011412D01*
X029564Y011412D02*
X029564Y010892D01*
X030564Y010892D02*
X030564Y011412D01*
X031564Y011412D02*
X031564Y010892D01*
X032564Y010892D02*
X032564Y011412D01*
X032564Y014192D02*
X032564Y014712D01*
X031564Y014712D02*
X031564Y014192D01*
X030564Y014192D02*
X030564Y014712D01*
X029564Y014712D02*
X029564Y014192D01*
X028564Y014192D02*
X028564Y014712D01*
X027564Y014712D02*
X027564Y014192D01*
X026564Y014192D02*
X026564Y014712D01*
X025493Y014601D02*
X024973Y014601D01*
X024973Y015601D02*
X025493Y015601D01*
X025493Y016601D02*
X024973Y016601D01*
X024973Y017601D02*
X025493Y017601D01*
X026564Y017712D02*
X026564Y017192D01*
X027564Y017192D02*
X027564Y017712D01*
X028564Y017712D02*
X028564Y017192D01*
X029564Y017192D02*
X029564Y017712D01*
X030564Y017712D02*
X030564Y017192D01*
X031564Y017192D02*
X031564Y017712D01*
X032564Y017712D02*
X032564Y017192D01*
X032564Y020741D02*
X032564Y021261D01*
X031564Y021261D02*
X031564Y020741D01*
X030564Y020741D02*
X030564Y021261D01*
X029564Y021261D02*
X029564Y020741D01*
X028564Y020741D02*
X028564Y021261D01*
X027564Y021261D02*
X027564Y020741D01*
X026564Y020741D02*
X026564Y021261D01*
X025493Y020601D02*
X024973Y020601D01*
X023940Y019767D02*
X023420Y019767D01*
X023420Y018767D02*
X023940Y018767D01*
X023940Y017767D02*
X023420Y017767D01*
X023420Y016767D02*
X023940Y016767D01*
X023940Y015767D02*
X023420Y015767D01*
X023420Y014767D02*
X023940Y014767D01*
X023940Y013767D02*
X023420Y013767D01*
X023420Y012767D02*
X023940Y012767D01*
X024973Y012601D02*
X025493Y012601D01*
X025493Y013601D02*
X024973Y013601D01*
X023844Y009960D02*
X023324Y009960D01*
X023324Y008960D02*
X023844Y008960D01*
X023844Y007960D02*
X023324Y007960D01*
X023324Y006960D02*
X023844Y006960D01*
X023844Y005960D02*
X023324Y005960D01*
X023324Y004960D02*
X023844Y004960D01*
X023844Y003960D02*
X023324Y003960D01*
X023324Y002960D02*
X023844Y002960D01*
X024973Y002960D02*
X025493Y002960D01*
X025493Y003960D02*
X024973Y003960D01*
X026564Y002113D02*
X026564Y001593D01*
X025493Y001960D02*
X024973Y001960D01*
X027564Y002113D02*
X027564Y001593D01*
X028564Y001593D02*
X028564Y002113D01*
X029564Y002113D02*
X029564Y001593D01*
X030564Y001593D02*
X030564Y002113D01*
X031564Y002113D02*
X031564Y001593D01*
X032564Y001593D02*
X032564Y002113D01*
X032564Y007892D02*
X032564Y008412D01*
X031564Y008412D02*
X031564Y007892D01*
X030564Y007892D02*
X030564Y008412D01*
X029564Y008412D02*
X029564Y007892D01*
X028564Y007892D02*
X028564Y008412D01*
X027564Y008412D02*
X027564Y007892D01*
X020844Y007960D02*
X020324Y007960D01*
X020324Y006960D02*
X020844Y006960D01*
X020844Y005960D02*
X020324Y005960D01*
X020324Y004960D02*
X020844Y004960D01*
X020844Y003960D02*
X020324Y003960D01*
X020324Y002960D02*
X020844Y002960D01*
X014940Y003017D02*
X014420Y003017D01*
X014420Y004017D02*
X014940Y004017D01*
X014940Y005017D02*
X014420Y005017D01*
X014420Y006017D02*
X014940Y006017D01*
X014940Y007017D02*
X014420Y007017D01*
X014420Y008017D02*
X014940Y008017D01*
X014940Y009017D02*
X014420Y009017D01*
X014420Y010017D02*
X014940Y010017D01*
X014940Y012767D02*
X014420Y012767D01*
X014420Y013767D02*
X014940Y013767D01*
X014940Y014767D02*
X014420Y014767D01*
X014420Y015767D02*
X014940Y015767D01*
X014940Y016767D02*
X014420Y016767D01*
X014420Y017767D02*
X014940Y017767D01*
X014940Y018767D02*
X014420Y018767D01*
X014420Y019767D02*
X014940Y019767D01*
X015920Y018767D02*
X016440Y018767D01*
X016440Y017767D02*
X015920Y017767D01*
X015920Y016767D02*
X016440Y016767D01*
X016440Y015767D02*
X015920Y015767D01*
X015920Y014767D02*
X016440Y014767D01*
X016440Y013767D02*
X015920Y013767D01*
X015920Y012767D02*
X016440Y012767D01*
X018920Y012767D02*
X019440Y012767D01*
X020420Y012767D02*
X020940Y012767D01*
X020940Y013767D02*
X020420Y013767D01*
X020420Y014767D02*
X020940Y014767D01*
X020940Y015767D02*
X020420Y015767D01*
X020420Y016767D02*
X020940Y016767D01*
X020940Y017767D02*
X020420Y017767D01*
X020420Y018767D02*
X020940Y018767D01*
X020940Y019767D02*
X020420Y019767D01*
X019440Y018767D02*
X018920Y018767D01*
X018920Y017767D02*
X019440Y017767D01*
X019440Y016767D02*
X018920Y016767D01*
X018920Y015767D02*
X019440Y015767D01*
X019440Y014767D02*
X018920Y014767D01*
X018920Y013767D02*
X019440Y013767D01*
X020324Y009960D02*
X020844Y009960D01*
X020844Y008960D02*
X020324Y008960D01*
X011940Y009017D02*
X011420Y009017D01*
X010440Y009017D02*
X009920Y009017D01*
X009920Y010017D02*
X010440Y010017D01*
X011420Y010017D02*
X011940Y010017D01*
X010440Y011017D02*
X009920Y011017D01*
X009920Y012017D02*
X010440Y012017D01*
X011420Y012767D02*
X011940Y012767D01*
X011940Y013767D02*
X011420Y013767D01*
X011420Y014767D02*
X011940Y014767D01*
X011940Y015767D02*
X011420Y015767D01*
X011420Y016767D02*
X011940Y016767D01*
X011940Y017767D02*
X011420Y017767D01*
X011420Y018767D02*
X011940Y018767D01*
X011940Y019767D02*
X011420Y019767D01*
X010440Y020267D02*
X009920Y020267D01*
X009920Y021267D02*
X010440Y021267D01*
X010440Y022267D02*
X009920Y022267D01*
X009920Y023267D02*
X010440Y023267D01*
X010440Y024267D02*
X009920Y024267D01*
X009920Y025267D02*
X010440Y025267D01*
X010190Y026767D02*
X009670Y026767D01*
X009670Y027767D02*
X010190Y027767D01*
X011170Y027767D02*
X011690Y027767D01*
X011690Y026767D02*
X011170Y026767D01*
X011170Y028767D02*
X011690Y028767D01*
X011690Y029767D02*
X011170Y029767D01*
X010190Y029767D02*
X009670Y029767D01*
X009670Y028767D02*
X010190Y028767D01*
X010190Y030767D02*
X009670Y030767D01*
X009670Y031767D02*
X010190Y031767D01*
X011170Y031767D02*
X011690Y031767D01*
X011690Y030767D02*
X011170Y030767D01*
X011170Y032767D02*
X011690Y032767D01*
X011690Y033767D02*
X011170Y033767D01*
X010190Y033767D02*
X009670Y033767D01*
X009670Y032767D02*
X010190Y032767D01*
X010190Y034767D02*
X009670Y034767D01*
X011170Y034767D02*
X011690Y034767D01*
X014170Y034767D02*
X014690Y034767D01*
X014690Y033767D02*
X014170Y033767D01*
X014170Y032767D02*
X014690Y032767D01*
X014690Y031767D02*
X014170Y031767D01*
X014170Y030767D02*
X014690Y030767D01*
X014690Y029767D02*
X014170Y029767D01*
X014170Y028767D02*
X014690Y028767D01*
X014690Y027767D02*
X014170Y027767D01*
X014170Y026767D02*
X014690Y026767D01*
X015680Y025537D02*
X015680Y025017D01*
X016680Y025017D02*
X016680Y025537D01*
X017680Y025537D02*
X017680Y025017D01*
X018680Y025017D02*
X018680Y025537D01*
X019680Y025537D02*
X019680Y025017D01*
X020680Y025017D02*
X020680Y025537D01*
X021680Y025537D02*
X021680Y025017D01*
X022680Y025017D02*
X022680Y025537D01*
X025420Y029017D02*
X025940Y029017D01*
X026910Y029017D02*
X027430Y029017D01*
X027430Y028017D02*
X026910Y028017D01*
X026910Y027017D02*
X027430Y027017D01*
X027564Y024261D02*
X027564Y023741D01*
X028564Y023741D02*
X028564Y024261D01*
X029564Y024261D02*
X029564Y023741D01*
X030564Y023741D02*
X030564Y024261D01*
X031564Y024261D02*
X031564Y023741D01*
X032564Y023741D02*
X032564Y024261D01*
X030950Y027017D02*
X030430Y027017D01*
X030430Y028017D02*
X030950Y028017D01*
X030950Y029017D02*
X030430Y029017D01*
X030430Y030017D02*
X030950Y030017D01*
X030950Y031017D02*
X030430Y031017D01*
X030430Y032017D02*
X030950Y032017D01*
X030950Y033017D02*
X030430Y033017D01*
X030430Y034017D02*
X030950Y034017D01*
X031920Y032767D02*
X032440Y032767D01*
X032440Y031767D02*
X031920Y031767D01*
X031920Y030767D02*
X032440Y030767D01*
X032440Y029767D02*
X031920Y029767D01*
X031920Y028767D02*
X032440Y028767D01*
X033420Y029267D02*
X033940Y029267D01*
X033940Y028267D02*
X033420Y028267D01*
X033420Y030267D02*
X033940Y030267D01*
X033940Y031267D02*
X033420Y031267D01*
X033420Y032267D02*
X033940Y032267D01*
X033940Y033267D02*
X033420Y033267D01*
X033420Y034267D02*
X033940Y034267D01*
X036420Y034267D02*
X036940Y034267D01*
X036940Y033267D02*
X036420Y033267D01*
X036420Y032267D02*
X036940Y032267D01*
X036940Y031267D02*
X036420Y031267D01*
X036420Y030267D02*
X036940Y030267D01*
X036940Y029267D02*
X036420Y029267D01*
X036420Y028267D02*
X036940Y028267D01*
X027430Y030017D02*
X026910Y030017D01*
X025940Y030017D02*
X025420Y030017D01*
X025420Y031017D02*
X025940Y031017D01*
X026910Y031017D02*
X027430Y031017D01*
X027430Y032017D02*
X026910Y032017D01*
X025940Y032017D02*
X025420Y032017D01*
X025420Y033017D02*
X025940Y033017D01*
X026910Y033017D02*
X027430Y033017D01*
X027430Y034017D02*
X026910Y034017D01*
X022180Y034757D02*
X022180Y035277D01*
X021180Y035277D02*
X021180Y034757D01*
X020180Y034757D02*
X020180Y035277D01*
X019180Y035277D02*
X019180Y034757D01*
X018180Y034757D02*
X018180Y035277D01*
X017180Y035277D02*
X017180Y034757D01*
X016180Y034757D02*
X016180Y035277D01*
X016180Y032277D02*
X016180Y031757D01*
X017180Y031757D02*
X017180Y032277D01*
X018180Y032277D02*
X018180Y031757D01*
X019180Y031757D02*
X019180Y032277D01*
X020180Y032277D02*
X020180Y031757D01*
X021180Y031757D02*
X021180Y032277D01*
X022180Y032277D02*
X022180Y031757D01*
X026564Y024261D02*
X026564Y023741D01*
X022680Y022017D02*
X022680Y021497D01*
X021680Y021497D02*
X021680Y022017D01*
X020680Y022017D02*
X020680Y021497D01*
X019680Y021497D02*
X019680Y022017D01*
X018680Y022017D02*
X018680Y021497D01*
X017680Y021497D02*
X017680Y022017D01*
X016680Y022017D02*
X016680Y021497D01*
X015680Y021497D02*
X015680Y022017D01*
X010440Y019267D02*
X009920Y019267D01*
X009920Y018267D02*
X010440Y018267D01*
X010440Y017267D02*
X009920Y017267D01*
X009920Y016267D02*
X010440Y016267D01*
X007440Y016267D02*
X006920Y016267D01*
X006920Y017267D02*
X007440Y017267D01*
X007440Y018267D02*
X006920Y018267D01*
X006920Y019267D02*
X007440Y019267D01*
X007440Y020267D02*
X006920Y020267D01*
X006920Y021267D02*
X007440Y021267D01*
X007440Y022267D02*
X006920Y022267D01*
X006920Y023267D02*
X007440Y023267D01*
X007440Y024267D02*
X006920Y024267D01*
X006920Y025267D02*
X007440Y025267D01*
X007440Y012017D02*
X006920Y012017D01*
X006920Y011017D02*
X007440Y011017D01*
X007440Y010017D02*
X006920Y010017D01*
X006920Y009017D02*
X007440Y009017D01*
X007440Y008017D02*
X006920Y008017D01*
X006920Y007017D02*
X007440Y007017D01*
X007440Y006017D02*
X006920Y006017D01*
X006920Y005017D02*
X007440Y005017D01*
X007440Y004017D02*
X006920Y004017D01*
X006920Y003017D02*
X007440Y003017D01*
X009920Y003017D02*
X010440Y003017D01*
X011420Y003017D02*
X011940Y003017D01*
X011940Y004017D02*
X011420Y004017D01*
X010440Y004017D02*
X009920Y004017D01*
X009920Y005017D02*
X010440Y005017D01*
X011420Y005017D02*
X011940Y005017D01*
X011940Y006017D02*
X011420Y006017D01*
X010440Y006017D02*
X009920Y006017D01*
X009920Y007017D02*
X010440Y007017D01*
X011420Y007017D02*
X011940Y007017D01*
X011940Y008017D02*
X011420Y008017D01*
X010440Y008017D02*
X009920Y008017D01*
X024973Y018601D02*
X025493Y018601D01*
X025493Y019601D02*
X024973Y019601D01*
D12*
X023930Y021517D03*
X025180Y023017D03*
X025180Y024017D03*
X026180Y025267D03*
X027180Y025267D03*
X028180Y025267D03*
X029180Y025267D03*
X030180Y025267D03*
X031180Y025267D03*
X032180Y026517D03*
X032180Y027517D03*
X034680Y026767D03*
X035680Y026767D03*
X031680Y019767D03*
X031680Y018767D03*
X030430Y018767D03*
X030430Y019767D03*
X028680Y019767D03*
X028680Y018767D03*
X027430Y018767D03*
X027430Y019767D03*
X023930Y025517D03*
X023430Y026767D03*
X023430Y027767D03*
X021930Y026767D03*
X019930Y026767D03*
X017930Y026767D03*
X016180Y026767D03*
X014180Y025267D03*
X013180Y025267D03*
X012180Y025267D03*
X012180Y021267D03*
X013180Y021267D03*
X014180Y021267D03*
X016180Y020267D03*
X017180Y020267D03*
X018430Y020267D03*
X019430Y020267D03*
X027180Y013267D03*
X027180Y012267D03*
X028430Y012267D03*
X028430Y013267D03*
X030180Y013267D03*
X030180Y012267D03*
X031430Y012267D03*
X031430Y013267D03*
X034930Y015267D03*
X035930Y015267D03*
X035930Y017017D03*
X034930Y017017D03*
X031430Y007017D03*
X031430Y006017D03*
X030180Y006017D03*
X030180Y007017D03*
X028430Y007017D03*
X028430Y006017D03*
X027180Y006017D03*
X027180Y007017D03*
X022430Y011267D03*
X021430Y011267D03*
X019180Y011517D03*
X018180Y011517D03*
X017180Y011517D03*
X016680Y010267D03*
X016680Y009267D03*
X016180Y008267D03*
X017180Y008267D03*
X019180Y007517D03*
X013930Y011267D03*
X012930Y011267D03*
X009180Y013267D03*
X008180Y013267D03*
X008180Y015017D03*
X009180Y015017D03*
X004930Y015267D03*
X003930Y015267D03*
X003930Y017017D03*
X004930Y017017D03*
X002930Y028517D03*
X001930Y028517D03*
X001930Y034517D03*
X002930Y034517D03*
X016180Y030767D03*
X017930Y030767D03*
X019930Y030767D03*
X021930Y030767D03*
X023680Y031267D03*
X023680Y030267D03*
X023680Y029267D03*
X025680Y034267D03*
X025680Y035267D03*
X023680Y035267D03*
X032180Y035017D03*
X032180Y034017D03*
X034180Y035517D03*
X035180Y035517D03*
X035180Y005767D03*
X034180Y005767D03*
X033930Y003767D03*
X033930Y002767D03*
X022430Y001767D03*
X021430Y001767D03*
X013680Y001767D03*
X012680Y001767D03*
X005430Y004017D03*
X005430Y005017D03*
D13*
X001715Y006503D02*
X001007Y006503D01*
X001007Y007503D02*
X001715Y007503D01*
X001715Y008503D02*
X001007Y008503D01*
X001007Y009503D02*
X001715Y009503D01*
X001715Y010503D02*
X001007Y010503D01*
X001007Y011503D02*
X001715Y011503D01*
X001715Y012503D02*
X001007Y012503D01*
X001007Y013503D02*
X001715Y013503D01*
X001715Y014503D02*
X001007Y014503D01*
X001007Y015503D02*
X001715Y015503D01*
X001784Y017517D02*
X001076Y017517D01*
X001076Y018517D02*
X001784Y018517D01*
X001784Y019517D02*
X001076Y019517D01*
X001076Y020517D02*
X001784Y020517D01*
X001784Y021517D02*
X001076Y021517D01*
X001076Y022517D02*
X001784Y022517D01*
X001784Y023517D02*
X001076Y023517D01*
X001076Y024517D02*
X001784Y024517D01*
X001784Y025517D02*
X001076Y025517D01*
X001076Y026517D02*
X001784Y026517D01*
X038015Y026527D02*
X038723Y026527D01*
X038723Y025527D02*
X038015Y025527D01*
X038015Y024527D02*
X038723Y024527D01*
X038723Y023527D02*
X038015Y023527D01*
X038015Y022527D02*
X038723Y022527D01*
X038723Y021527D02*
X038015Y021527D01*
X038015Y020527D02*
X038723Y020527D01*
X038723Y019527D02*
X038015Y019527D01*
X038015Y018527D02*
X038723Y018527D01*
X038723Y017527D02*
X038015Y017527D01*
X038015Y015503D02*
X038723Y015503D01*
X038723Y014503D02*
X038015Y014503D01*
X038015Y013503D02*
X038723Y013503D01*
X038723Y012503D02*
X038015Y012503D01*
X038015Y011503D02*
X038723Y011503D01*
X038723Y010503D02*
X038015Y010503D01*
X038015Y009503D02*
X038723Y009503D01*
X038723Y008503D02*
X038015Y008503D01*
X038015Y007503D02*
X038723Y007503D01*
X038723Y006503D02*
X038015Y006503D01*
X038076Y029267D02*
X038784Y029267D01*
X038784Y030267D02*
X038076Y030267D01*
X038076Y031267D02*
X038784Y031267D01*
X038784Y032267D02*
X038076Y032267D01*
X038076Y033267D02*
X038784Y033267D01*
X038784Y034267D02*
X038076Y034267D01*
D14*
X035863Y023777D03*
X035863Y022777D03*
X035863Y021777D03*
X034863Y021777D03*
X034863Y022777D03*
X034863Y023777D03*
X034863Y020777D03*
X034863Y019777D03*
X035863Y019777D03*
X035863Y020777D03*
X035863Y012503D03*
X034863Y012503D03*
X034863Y011503D03*
X034863Y010503D03*
X035863Y010503D03*
X035863Y011503D03*
X035863Y009503D03*
X035863Y008503D03*
X034863Y008503D03*
X034863Y009503D03*
X004930Y009517D03*
X004930Y008517D03*
X003930Y008517D03*
X003930Y009517D03*
X003930Y010517D03*
X003930Y011517D03*
X003930Y012517D03*
X004930Y012517D03*
X004930Y011517D03*
X004930Y010517D03*
X004930Y019767D03*
X004930Y020767D03*
X004930Y021767D03*
X004930Y022767D03*
X004930Y023767D03*
X003930Y023767D03*
X003930Y022767D03*
X003930Y021767D03*
X003930Y020767D03*
X003930Y019767D03*
D15*
X018380Y006017D03*
X025680Y027017D03*
D16*
X024680Y027017D03*
X016980Y006017D03*
D17*
X002930Y030017D03*
X002930Y031017D03*
X002930Y032017D03*
X002930Y033017D03*
D18*
X016688Y002507D03*
X018688Y002507D03*
D19*
X018840Y036517D03*
X017760Y036517D03*
X016670Y036517D03*
X015580Y036517D03*
X014500Y036517D03*
X013410Y036517D03*
X013950Y037517D03*
X015040Y037517D03*
X016130Y037517D03*
X017210Y037517D03*
X018300Y037517D03*
X019390Y037517D03*
X020470Y037517D03*
X021560Y037517D03*
X022650Y037517D03*
X023730Y037517D03*
X024820Y037517D03*
X025910Y037517D03*
X026450Y036517D03*
X025360Y036517D03*
X024280Y036517D03*
X023190Y036517D03*
X022100Y036517D03*
X021020Y036517D03*
X019930Y036517D03*
X032680Y037517D03*
D20*
X029190Y037017D03*
X010670Y037017D03*
D21*
X008180Y036314D02*
X008180Y035720D01*
X007180Y035720D02*
X007180Y036314D01*
X006180Y036314D02*
X006180Y035720D01*
X005180Y035720D02*
X005180Y036314D01*
X005180Y033564D02*
X005180Y032970D01*
X006180Y032970D02*
X006180Y033564D01*
X007180Y033564D02*
X007180Y032970D01*
X008180Y032970D02*
X008180Y033564D01*
X008180Y030814D02*
X008180Y030220D01*
X007180Y030220D02*
X007180Y030814D01*
X006180Y030814D02*
X006180Y030220D01*
X005180Y030220D02*
X005180Y030814D01*
X005180Y028064D02*
X005180Y027470D01*
X006180Y027470D02*
X006180Y028064D01*
X007180Y028064D02*
X007180Y027470D01*
X008180Y027470D02*
X008180Y028064D01*
M02*
